<mxfile host="65bd71144e">
    <diagram name="Page-1" id="U3XyFL_ZbY4wMuc_LF6b">
        <mxGraphModel dx="2315" dy="1824" grid="0" gridSize="10" guides="0" tooltips="1" connect="1" arrows="1" fold="1" page="0" pageScale="1" pageWidth="827" pageHeight="583" background="#000000" math="0" shadow="0">
            <root>
                <mxCell id="0"/>
                <mxCell id="1" parent="0"/>
                <mxCell id="259" value="Entity" style="whiteSpace=wrap;html=1;align=center;rounded=0;labelBackgroundColor=none;labelBorderColor=none;comic=0;strokeWidth=5;fontFamily=Helvetica;fontSize=25;startSize=30;fillColor=none;fontStyle=1;strokeColor=#C7C700;fontColor=none;noLabel=1;perimeterSpacing=0;swimlaneLine=1;swimlaneFillColor=#000000;movable=0;resizable=0;rotatable=0;deletable=0;editable=0;connectable=0;spacingTop=0;spacingLeft=2;spacingRight=2;" parent="1" vertex="1">
                    <mxGeometry x="888" y="202" width="1247" height="439" as="geometry"/>
                </mxCell>
                <mxCell id="fZQeGDUFqkQw0Y8u2uUr-1" value="User" style="shape=table;startSize=30;container=1;collapsible=1;childLayout=tableLayout;fixedRows=1;rowLines=0;fontStyle=1;align=center;resizeLast=1;labelBackgroundColor=none;fillColor=#008a00;strokeColor=#C7C700;fontColor=#ffffff;rounded=0;strokeWidth=5;swimlaneLine=1;fixDash=0;snapToPoint=0;comic=0;enumerate=0;backgroundOutline=0;fontSize=25;labelBorderColor=none;perimeterSpacing=0;swimlaneFillColor=#000000;movable=0;resizable=0;rotatable=0;deletable=0;editable=0;connectable=0;spacingTop=0;spacingLeft=2;spacingRight=2;" parent="1" vertex="1">
                    <mxGeometry x="542" y="537" width="200" height="270" as="geometry">
                        <mxRectangle x="1050" y="610" width="70" height="30" as="alternateBounds"/>
                    </mxGeometry>
                </mxCell>
                <mxCell id="fZQeGDUFqkQw0Y8u2uUr-2" value="" style="shape=tableRow;horizontal=0;startSize=0;swimlaneHead=0;swimlaneBody=0;fillColor=none;collapsible=0;dropTarget=0;points=[[0,0.5],[1,0.5]];portConstraint=eastwest;top=0;left=0;right=0;bottom=1;labelBackgroundColor=none;strokeColor=#C7C700;fontColor=#FFFFFF;rounded=0;strokeWidth=5;swimlaneLine=1;fixDash=0;snapToPoint=0;comic=0;enumerate=0;backgroundOutline=0;fontSize=25;labelBorderColor=none;perimeterSpacing=0;swimlaneFillColor=#000000;movable=0;resizable=0;rotatable=0;deletable=0;editable=0;connectable=0;spacingTop=0;spacingLeft=2;spacingRight=2;" parent="fZQeGDUFqkQw0Y8u2uUr-1" vertex="1">
                    <mxGeometry y="30" width="200" height="30" as="geometry"/>
                </mxCell>
                <mxCell id="fZQeGDUFqkQw0Y8u2uUr-3" value="PK" style="shape=partialRectangle;connectable=0;fillColor=none;top=0;left=0;bottom=0;right=0;fontStyle=1;overflow=hidden;labelBackgroundColor=none;strokeColor=#C7C700;fontColor=#FFFFFF;rounded=0;strokeWidth=5;swimlaneLine=1;fixDash=0;snapToPoint=0;comic=0;enumerate=0;backgroundOutline=0;fontSize=25;labelBorderColor=none;perimeterSpacing=0;swimlaneFillColor=#000000;movable=0;resizable=0;rotatable=0;deletable=0;editable=0;spacingTop=0;spacingLeft=2;spacingRight=2;" parent="fZQeGDUFqkQw0Y8u2uUr-2" vertex="1">
                    <mxGeometry width="50" height="30" as="geometry">
                        <mxRectangle width="50" height="30" as="alternateBounds"/>
                    </mxGeometry>
                </mxCell>
                <mxCell id="fZQeGDUFqkQw0Y8u2uUr-4" value="UserID" style="shape=partialRectangle;connectable=0;fillColor=none;top=0;left=0;bottom=0;right=0;align=left;spacingLeft=2;fontStyle=5;overflow=hidden;labelBackgroundColor=none;strokeColor=#C7C700;fontColor=#FFFFFF;rounded=0;strokeWidth=5;swimlaneLine=1;fixDash=0;snapToPoint=0;comic=0;enumerate=0;backgroundOutline=0;fontSize=25;labelBorderColor=none;perimeterSpacing=0;swimlaneFillColor=#000000;movable=0;resizable=0;rotatable=0;deletable=0;editable=0;spacingTop=0;spacingRight=2;" parent="fZQeGDUFqkQw0Y8u2uUr-2" vertex="1">
                    <mxGeometry x="50" width="150" height="30" as="geometry">
                        <mxRectangle width="150" height="30" as="alternateBounds"/>
                    </mxGeometry>
                </mxCell>
                <mxCell id="fZQeGDUFqkQw0Y8u2uUr-5" value="" style="shape=tableRow;horizontal=0;startSize=0;swimlaneHead=0;swimlaneBody=0;fillColor=none;collapsible=0;dropTarget=0;points=[[0,0.5],[1,0.5]];portConstraint=eastwest;top=0;left=0;right=0;bottom=0;labelBackgroundColor=none;strokeColor=#C7C700;fontColor=#FFFFFF;rounded=0;strokeWidth=5;swimlaneLine=1;fixDash=0;snapToPoint=0;comic=0;enumerate=0;backgroundOutline=0;fontSize=25;labelBorderColor=none;perimeterSpacing=0;swimlaneFillColor=#000000;movable=0;resizable=0;rotatable=0;deletable=0;editable=0;connectable=0;spacingTop=0;spacingLeft=2;spacingRight=2;" parent="fZQeGDUFqkQw0Y8u2uUr-1" vertex="1">
                    <mxGeometry y="60" width="200" height="30" as="geometry"/>
                </mxCell>
                <mxCell id="fZQeGDUFqkQw0Y8u2uUr-6" value="" style="shape=partialRectangle;connectable=0;fillColor=none;top=0;left=0;bottom=0;right=0;editable=0;overflow=hidden;labelBackgroundColor=none;strokeColor=#C7C700;fontColor=#FFFFFF;rounded=0;strokeWidth=5;swimlaneLine=1;fixDash=0;snapToPoint=0;comic=0;enumerate=0;backgroundOutline=0;fontSize=25;labelBorderColor=none;perimeterSpacing=0;swimlaneFillColor=#000000;movable=0;resizable=0;rotatable=0;deletable=0;spacingTop=0;spacingLeft=2;spacingRight=2;" parent="fZQeGDUFqkQw0Y8u2uUr-5" vertex="1">
                    <mxGeometry width="50" height="30" as="geometry">
                        <mxRectangle width="50" height="30" as="alternateBounds"/>
                    </mxGeometry>
                </mxCell>
                <mxCell id="fZQeGDUFqkQw0Y8u2uUr-7" value="username" style="shape=partialRectangle;connectable=0;fillColor=none;top=0;left=0;bottom=0;right=0;align=left;spacingLeft=2;overflow=hidden;labelBackgroundColor=none;strokeColor=#C7C700;fontColor=#FFFFFF;rounded=0;strokeWidth=5;swimlaneLine=1;fixDash=0;snapToPoint=0;comic=0;enumerate=0;backgroundOutline=0;fontSize=25;labelBorderColor=none;perimeterSpacing=0;swimlaneFillColor=#000000;movable=0;resizable=0;rotatable=0;deletable=0;editable=0;spacingTop=0;spacingRight=2;" parent="fZQeGDUFqkQw0Y8u2uUr-5" vertex="1">
                    <mxGeometry x="50" width="150" height="30" as="geometry">
                        <mxRectangle width="150" height="30" as="alternateBounds"/>
                    </mxGeometry>
                </mxCell>
                <mxCell id="fZQeGDUFqkQw0Y8u2uUr-8" value="" style="shape=tableRow;horizontal=0;startSize=0;swimlaneHead=0;swimlaneBody=0;fillColor=none;collapsible=0;dropTarget=0;points=[[0,0.5],[1,0.5]];portConstraint=eastwest;top=0;left=0;right=0;bottom=0;labelBackgroundColor=none;strokeColor=#C7C700;fontColor=#FFFFFF;rounded=0;strokeWidth=5;swimlaneLine=1;fixDash=0;snapToPoint=0;comic=0;enumerate=0;backgroundOutline=0;fontSize=25;labelBorderColor=none;perimeterSpacing=0;swimlaneFillColor=#000000;movable=0;resizable=0;rotatable=0;deletable=0;editable=0;connectable=0;spacingTop=0;spacingLeft=2;spacingRight=2;" parent="fZQeGDUFqkQw0Y8u2uUr-1" vertex="1">
                    <mxGeometry y="90" width="200" height="30" as="geometry"/>
                </mxCell>
                <mxCell id="fZQeGDUFqkQw0Y8u2uUr-9" value="" style="shape=partialRectangle;connectable=0;fillColor=none;top=0;left=0;bottom=0;right=0;editable=0;overflow=hidden;labelBackgroundColor=none;strokeColor=#C7C700;fontColor=#FFFFFF;rounded=0;strokeWidth=5;swimlaneLine=1;fixDash=0;snapToPoint=0;comic=0;enumerate=0;backgroundOutline=0;fontSize=25;labelBorderColor=none;perimeterSpacing=0;swimlaneFillColor=#000000;movable=0;resizable=0;rotatable=0;deletable=0;spacingTop=0;spacingLeft=2;spacingRight=2;" parent="fZQeGDUFqkQw0Y8u2uUr-8" vertex="1">
                    <mxGeometry width="50" height="30" as="geometry">
                        <mxRectangle width="50" height="30" as="alternateBounds"/>
                    </mxGeometry>
                </mxCell>
                <mxCell id="fZQeGDUFqkQw0Y8u2uUr-10" value="password" style="shape=partialRectangle;connectable=0;fillColor=none;top=0;left=0;bottom=0;right=0;align=left;spacingLeft=2;overflow=hidden;labelBackgroundColor=none;strokeColor=#C7C700;fontColor=#FFFFFF;rounded=0;strokeWidth=5;swimlaneLine=1;fixDash=0;snapToPoint=0;comic=0;enumerate=0;backgroundOutline=0;fontSize=25;labelBorderColor=none;perimeterSpacing=0;swimlaneFillColor=#000000;movable=0;resizable=0;rotatable=0;deletable=0;editable=0;spacingTop=0;spacingRight=2;" parent="fZQeGDUFqkQw0Y8u2uUr-8" vertex="1">
                    <mxGeometry x="50" width="150" height="30" as="geometry">
                        <mxRectangle width="150" height="30" as="alternateBounds"/>
                    </mxGeometry>
                </mxCell>
                <mxCell id="fZQeGDUFqkQw0Y8u2uUr-11" value="" style="shape=tableRow;horizontal=0;startSize=0;swimlaneHead=0;swimlaneBody=0;fillColor=none;collapsible=0;dropTarget=0;points=[[0,0.5],[1,0.5]];portConstraint=eastwest;top=0;left=0;right=0;bottom=0;labelBackgroundColor=none;strokeColor=#C7C700;fontColor=#FFFFFF;rounded=0;strokeWidth=5;swimlaneLine=1;fixDash=0;snapToPoint=0;comic=0;enumerate=0;backgroundOutline=0;fontSize=25;labelBorderColor=none;perimeterSpacing=0;swimlaneFillColor=#000000;movable=0;resizable=0;rotatable=0;deletable=0;editable=0;connectable=0;spacingTop=0;spacingLeft=2;spacingRight=2;" parent="fZQeGDUFqkQw0Y8u2uUr-1" vertex="1">
                    <mxGeometry y="120" width="200" height="30" as="geometry"/>
                </mxCell>
                <mxCell id="fZQeGDUFqkQw0Y8u2uUr-12" value="" style="shape=partialRectangle;connectable=0;fillColor=none;top=0;left=0;bottom=0;right=0;editable=0;overflow=hidden;labelBackgroundColor=none;strokeColor=#C7C700;fontColor=#FFFFFF;rounded=0;strokeWidth=5;swimlaneLine=1;fixDash=0;snapToPoint=0;comic=0;enumerate=0;backgroundOutline=0;fontSize=25;labelBorderColor=none;perimeterSpacing=0;swimlaneFillColor=#000000;movable=0;resizable=0;rotatable=0;deletable=0;spacingTop=0;spacingLeft=2;spacingRight=2;" parent="fZQeGDUFqkQw0Y8u2uUr-11" vertex="1">
                    <mxGeometry width="50" height="30" as="geometry">
                        <mxRectangle width="50" height="30" as="alternateBounds"/>
                    </mxGeometry>
                </mxCell>
                <mxCell id="fZQeGDUFqkQw0Y8u2uUr-13" value="email" style="shape=partialRectangle;connectable=0;fillColor=none;top=0;left=0;bottom=0;right=0;align=left;spacingLeft=2;overflow=hidden;labelBackgroundColor=none;strokeColor=#C7C700;fontColor=#FFFFFF;rounded=0;strokeWidth=5;swimlaneLine=1;fixDash=0;snapToPoint=0;comic=0;enumerate=0;backgroundOutline=0;fontSize=25;labelBorderColor=none;perimeterSpacing=0;swimlaneFillColor=#000000;movable=0;resizable=0;rotatable=0;deletable=0;editable=0;spacingTop=0;spacingRight=2;" parent="fZQeGDUFqkQw0Y8u2uUr-11" vertex="1">
                    <mxGeometry x="50" width="150" height="30" as="geometry">
                        <mxRectangle width="150" height="30" as="alternateBounds"/>
                    </mxGeometry>
                </mxCell>
                <mxCell id="fZQeGDUFqkQw0Y8u2uUr-14" value="" style="shape=tableRow;horizontal=0;startSize=0;swimlaneHead=0;swimlaneBody=0;fillColor=none;collapsible=0;dropTarget=0;points=[[0,0.5],[1,0.5]];portConstraint=eastwest;top=0;left=0;right=0;bottom=0;labelBackgroundColor=none;strokeColor=#C7C700;fontColor=#FFFFFF;rounded=0;strokeWidth=5;swimlaneLine=1;fixDash=0;snapToPoint=0;comic=0;enumerate=0;backgroundOutline=0;fontSize=25;labelBorderColor=none;perimeterSpacing=0;swimlaneFillColor=#000000;movable=0;resizable=0;rotatable=0;deletable=0;editable=0;connectable=0;spacingTop=0;spacingLeft=2;spacingRight=2;" parent="fZQeGDUFqkQw0Y8u2uUr-1" vertex="1">
                    <mxGeometry y="150" width="200" height="30" as="geometry"/>
                </mxCell>
                <mxCell id="fZQeGDUFqkQw0Y8u2uUr-15" value="" style="shape=partialRectangle;connectable=0;fillColor=none;top=0;left=0;bottom=0;right=0;editable=0;overflow=hidden;labelBackgroundColor=none;strokeColor=#C7C700;fontColor=#FFFFFF;rounded=0;strokeWidth=5;swimlaneLine=1;fixDash=0;snapToPoint=0;comic=0;enumerate=0;backgroundOutline=0;fontSize=25;labelBorderColor=none;perimeterSpacing=0;swimlaneFillColor=#000000;movable=0;resizable=0;rotatable=0;deletable=0;spacingTop=0;spacingLeft=2;spacingRight=2;" parent="fZQeGDUFqkQw0Y8u2uUr-14" vertex="1">
                    <mxGeometry width="50" height="30" as="geometry">
                        <mxRectangle width="50" height="30" as="alternateBounds"/>
                    </mxGeometry>
                </mxCell>
                <mxCell id="fZQeGDUFqkQw0Y8u2uUr-16" value="birthday" style="shape=partialRectangle;connectable=0;fillColor=none;top=0;left=0;bottom=0;right=0;align=left;spacingLeft=2;overflow=hidden;labelBackgroundColor=none;strokeColor=#C7C700;fontColor=#FFFFFF;rounded=0;strokeWidth=5;swimlaneLine=1;fixDash=0;snapToPoint=0;comic=0;enumerate=0;backgroundOutline=0;fontSize=25;labelBorderColor=none;perimeterSpacing=0;swimlaneFillColor=#000000;movable=0;resizable=0;rotatable=0;deletable=0;editable=0;spacingTop=0;spacingRight=2;" parent="fZQeGDUFqkQw0Y8u2uUr-14" vertex="1">
                    <mxGeometry x="50" width="150" height="30" as="geometry">
                        <mxRectangle width="150" height="30" as="alternateBounds"/>
                    </mxGeometry>
                </mxCell>
                <mxCell id="fZQeGDUFqkQw0Y8u2uUr-17" value="" style="shape=tableRow;horizontal=0;startSize=0;swimlaneHead=0;swimlaneBody=0;fillColor=none;collapsible=0;dropTarget=0;points=[[0,0.5],[1,0.5]];portConstraint=eastwest;top=0;left=0;right=0;bottom=0;labelBackgroundColor=none;strokeColor=#C7C700;fontColor=#FFFFFF;rounded=0;strokeWidth=5;swimlaneLine=1;fixDash=0;snapToPoint=0;comic=0;enumerate=0;backgroundOutline=0;fontSize=25;labelBorderColor=none;perimeterSpacing=0;swimlaneFillColor=#000000;movable=0;resizable=0;rotatable=0;deletable=0;editable=0;connectable=0;spacingTop=0;spacingLeft=2;spacingRight=2;" parent="fZQeGDUFqkQw0Y8u2uUr-1" vertex="1">
                    <mxGeometry y="180" width="200" height="30" as="geometry"/>
                </mxCell>
                <mxCell id="fZQeGDUFqkQw0Y8u2uUr-18" value="" style="shape=partialRectangle;connectable=0;fillColor=none;top=0;left=0;bottom=0;right=0;editable=0;overflow=hidden;labelBackgroundColor=none;strokeColor=#C7C700;fontColor=#FFFFFF;rounded=0;strokeWidth=5;swimlaneLine=1;fixDash=0;snapToPoint=0;comic=0;enumerate=0;backgroundOutline=0;fontSize=25;labelBorderColor=none;perimeterSpacing=0;swimlaneFillColor=#000000;movable=0;resizable=0;rotatable=0;deletable=0;spacingTop=0;spacingLeft=2;spacingRight=2;" parent="fZQeGDUFqkQw0Y8u2uUr-17" vertex="1">
                    <mxGeometry width="50" height="30" as="geometry">
                        <mxRectangle width="50" height="30" as="alternateBounds"/>
                    </mxGeometry>
                </mxCell>
                <mxCell id="fZQeGDUFqkQw0Y8u2uUr-19" value="address" style="shape=partialRectangle;connectable=0;fillColor=none;top=0;left=0;bottom=0;right=0;align=left;spacingLeft=2;overflow=hidden;labelBackgroundColor=none;strokeColor=#C7C700;fontColor=#FFFFFF;rounded=0;strokeWidth=5;swimlaneLine=1;fixDash=0;snapToPoint=0;comic=0;enumerate=0;backgroundOutline=0;fontSize=25;labelBorderColor=none;perimeterSpacing=0;swimlaneFillColor=#000000;movable=0;resizable=0;rotatable=0;deletable=0;editable=0;spacingTop=0;spacingRight=2;" parent="fZQeGDUFqkQw0Y8u2uUr-17" vertex="1">
                    <mxGeometry x="50" width="150" height="30" as="geometry">
                        <mxRectangle width="150" height="30" as="alternateBounds"/>
                    </mxGeometry>
                </mxCell>
                <mxCell id="OFqDbIYOe_2my_a9MHT3-129" value="" style="shape=tableRow;horizontal=0;startSize=0;swimlaneHead=0;swimlaneBody=0;fillColor=none;collapsible=0;dropTarget=0;points=[[0,0.5],[1,0.5]];portConstraint=eastwest;top=0;left=0;right=0;bottom=0;labelBackgroundColor=none;strokeColor=#C7C700;fontColor=#FFFFFF;rounded=0;strokeWidth=5;swimlaneLine=1;fixDash=0;snapToPoint=0;comic=0;enumerate=0;backgroundOutline=0;fontSize=25;labelBorderColor=none;perimeterSpacing=0;swimlaneFillColor=#000000;movable=0;resizable=0;rotatable=0;deletable=0;editable=0;connectable=0;spacingTop=0;spacingLeft=2;spacingRight=2;" parent="fZQeGDUFqkQw0Y8u2uUr-1" vertex="1">
                    <mxGeometry y="210" width="200" height="30" as="geometry"/>
                </mxCell>
                <mxCell id="OFqDbIYOe_2my_a9MHT3-130" value="" style="shape=partialRectangle;connectable=0;fillColor=none;top=0;left=0;bottom=0;right=0;editable=0;overflow=hidden;labelBackgroundColor=none;strokeColor=#C7C700;fontColor=#FFFFFF;rounded=0;strokeWidth=5;swimlaneLine=1;fixDash=0;snapToPoint=0;comic=0;enumerate=0;backgroundOutline=0;fontSize=25;labelBorderColor=none;perimeterSpacing=0;swimlaneFillColor=#000000;movable=0;resizable=0;rotatable=0;deletable=0;spacingTop=0;spacingLeft=2;spacingRight=2;" parent="OFqDbIYOe_2my_a9MHT3-129" vertex="1">
                    <mxGeometry width="50" height="30" as="geometry">
                        <mxRectangle width="50" height="30" as="alternateBounds"/>
                    </mxGeometry>
                </mxCell>
                <mxCell id="OFqDbIYOe_2my_a9MHT3-131" value="wallet" style="shape=partialRectangle;connectable=0;fillColor=none;top=0;left=0;bottom=0;right=0;align=left;spacingLeft=2;overflow=hidden;labelBackgroundColor=none;strokeColor=#C7C700;fontColor=#FFFFFF;rounded=0;strokeWidth=5;swimlaneLine=1;fixDash=0;snapToPoint=0;comic=0;enumerate=0;backgroundOutline=0;fontSize=25;labelBorderColor=none;perimeterSpacing=0;swimlaneFillColor=#000000;movable=0;resizable=0;rotatable=0;deletable=0;editable=0;spacingTop=0;spacingRight=2;" parent="OFqDbIYOe_2my_a9MHT3-129" vertex="1">
                    <mxGeometry x="50" width="150" height="30" as="geometry">
                        <mxRectangle width="150" height="30" as="alternateBounds"/>
                    </mxGeometry>
                </mxCell>
                <mxCell id="407" style="shape=tableRow;horizontal=0;startSize=0;swimlaneHead=0;swimlaneBody=0;fillColor=none;collapsible=0;dropTarget=0;points=[[0,0.5],[1,0.5]];portConstraint=eastwest;top=0;left=0;right=0;bottom=0;labelBackgroundColor=none;strokeColor=#C7C700;fontColor=#FFFFFF;rounded=0;strokeWidth=5;swimlaneLine=1;fixDash=0;snapToPoint=0;comic=0;enumerate=0;backgroundOutline=0;fontSize=25;labelBorderColor=none;perimeterSpacing=0;swimlaneFillColor=#000000;movable=0;resizable=0;rotatable=0;deletable=0;editable=0;connectable=0;spacingTop=0;spacingLeft=2;spacingRight=2;" parent="fZQeGDUFqkQw0Y8u2uUr-1" vertex="1">
                    <mxGeometry y="240" width="200" height="30" as="geometry"/>
                </mxCell>
                <mxCell id="408" style="shape=partialRectangle;connectable=0;fillColor=none;top=0;left=0;bottom=0;right=0;editable=0;overflow=hidden;labelBackgroundColor=none;strokeColor=#C7C700;fontColor=#FFFFFF;rounded=0;strokeWidth=5;swimlaneLine=1;fixDash=0;snapToPoint=0;comic=0;enumerate=0;backgroundOutline=0;fontSize=25;labelBorderColor=none;perimeterSpacing=0;swimlaneFillColor=#000000;movable=0;resizable=0;rotatable=0;deletable=0;spacingTop=0;spacingLeft=2;spacingRight=2;" parent="407" vertex="1">
                    <mxGeometry width="50" height="30" as="geometry">
                        <mxRectangle width="50" height="30" as="alternateBounds"/>
                    </mxGeometry>
                </mxCell>
                <mxCell id="409" value="is_premium" style="shape=partialRectangle;connectable=0;fillColor=none;top=0;left=0;bottom=0;right=0;align=left;spacingLeft=2;overflow=hidden;labelBackgroundColor=none;strokeColor=#C7C700;fontColor=#FFFFFF;rounded=0;strokeWidth=5;swimlaneLine=1;fixDash=0;snapToPoint=0;comic=0;enumerate=0;backgroundOutline=0;fontSize=25;labelBorderColor=none;perimeterSpacing=0;swimlaneFillColor=#000000;movable=0;resizable=0;rotatable=0;deletable=0;editable=0;spacingTop=0;spacingRight=2;" parent="407" vertex="1">
                    <mxGeometry x="50" width="150" height="30" as="geometry">
                        <mxRectangle width="150" height="30" as="alternateBounds"/>
                    </mxGeometry>
                </mxCell>
                <mxCell id="OFqDbIYOe_2my_a9MHT3-4" value="freinds" style="rhombus;labelBackgroundColor=none;fillColor=#008a00;strokeColor=#C7C700;fontColor=#ffffff;rounded=0;strokeWidth=5;swimlaneLine=1;fixDash=0;snapToPoint=0;comic=0;enumerate=0;backgroundOutline=0;fontSize=25;labelBorderColor=none;direction=north;perimeterSpacing=0;swimlaneFillColor=#000000;movable=0;resizable=0;rotatable=0;deletable=0;editable=0;connectable=0;spacingTop=0;spacingLeft=2;spacingRight=2;" parent="1" vertex="1">
                    <mxGeometry x="-797" y="454" width="93" height="42" as="geometry"/>
                </mxCell>
                <mxCell id="OFqDbIYOe_2my_a9MHT3-5" value="" style="endArrow=ERzeroToMany;labelBackgroundColor=none;strokeColor=#C7C700;fontColor=#FFFFFF;edgeStyle=orthogonalEdgeStyle;endFill=0;entryX=0;entryY=0.25;entryDx=0;entryDy=0;strokeWidth=5;swimlaneLine=1;fixDash=0;snapToPoint=0;comic=0;enumerate=0;backgroundOutline=0;fontSize=25;labelBorderColor=none;startArrow=none;rounded=1;movable=0;resizable=0;rotatable=0;deletable=0;editable=0;connectable=0;spacingTop=0;spacingLeft=2;spacingRight=2;exitX=1;exitY=0.5;exitDx=0;exitDy=0;" parent="1" source="OFqDbIYOe_2my_a9MHT3-10" target="286" edge="1">
                    <mxGeometry width="50" height="50" relative="1" as="geometry">
                        <mxPoint x="-535" y="495" as="sourcePoint"/>
                        <mxPoint x="-407" y="489" as="targetPoint"/>
                    </mxGeometry>
                </mxCell>
                <mxCell id="OFqDbIYOe_2my_a9MHT3-8" value="" style="endArrow=ERzeroToMany;labelBackgroundColor=none;strokeColor=#C7C700;fontColor=#FFFFFF;edgeStyle=orthogonalEdgeStyle;endFill=0;exitX=0.995;exitY=0.873;exitDx=0;exitDy=0;entryX=-0.005;entryY=0.048;entryDx=0;entryDy=0;strokeWidth=5;swimlaneLine=1;fixDash=0;snapToPoint=0;comic=0;enumerate=0;backgroundOutline=0;fontSize=25;labelBorderColor=none;startArrow=none;rounded=1;movable=0;resizable=0;rotatable=0;deletable=0;editable=0;connectable=0;spacingTop=0;spacingLeft=2;spacingRight=2;exitPerimeter=0;entryPerimeter=0;" parent="1" source="OFqDbIYOe_2my_a9MHT3-7" target="286" edge="1">
                    <mxGeometry width="50" height="50" relative="1" as="geometry">
                        <mxPoint x="-297" y="879" as="sourcePoint"/>
                        <mxPoint x="-481.3219999999999" y="453.4319999999998" as="targetPoint"/>
                    </mxGeometry>
                </mxCell>
                <mxCell id="OFqDbIYOe_2my_a9MHT3-11" value="followers" style="rhombus;labelBackgroundColor=none;fillColor=#008a00;strokeColor=#C7C700;fontColor=#ffffff;rounded=0;strokeWidth=5;swimlaneLine=1;fixDash=0;snapToPoint=0;comic=0;enumerate=0;backgroundOutline=0;fontSize=25;labelBorderColor=none;direction=south;perimeterSpacing=0;swimlaneFillColor=#000000;movable=0;resizable=0;rotatable=0;deletable=0;editable=0;connectable=0;spacingTop=0;spacingLeft=2;spacingRight=2;" parent="1" vertex="1">
                    <mxGeometry x="-815" y="595" width="117" height="42" as="geometry"/>
                </mxCell>
                <mxCell id="OFqDbIYOe_2my_a9MHT3-14" value="" style="endArrow=ERzeroToMany;labelBackgroundColor=none;strokeColor=#C7C700;fontColor=#FFFFFF;edgeStyle=orthogonalEdgeStyle;endFill=0;exitX=1;exitY=0.25;exitDx=0;exitDy=0;strokeWidth=5;swimlaneLine=1;fixDash=0;snapToPoint=0;comic=0;enumerate=0;backgroundOutline=0;fontSize=25;labelBorderColor=none;entryX=0;entryY=0.75;entryDx=0;entryDy=0;startArrow=none;rounded=1;movable=0;resizable=0;rotatable=0;deletable=0;editable=0;connectable=0;spacingTop=0;spacingLeft=2;spacingRight=2;" parent="1" source="OFqDbIYOe_2my_a9MHT3-18" target="286" edge="1">
                    <mxGeometry width="50" height="50" relative="1" as="geometry">
                        <mxPoint x="440.20000000000005" y="580.4" as="sourcePoint"/>
                        <mxPoint x="-482" y="660.75" as="targetPoint"/>
                    </mxGeometry>
                </mxCell>
                <mxCell id="OFqDbIYOe_2my_a9MHT3-17" value="" style="endArrow=ERzeroToMany;labelBackgroundColor=none;strokeColor=#C7C700;fontColor=#FFFFFF;edgeStyle=orthogonalEdgeStyle;endFill=0;entryX=0;entryY=0.5;entryDx=0;entryDy=0;exitX=1;exitY=0.5;exitDx=0;exitDy=0;strokeWidth=5;swimlaneLine=1;fixDash=0;snapToPoint=0;comic=0;enumerate=0;backgroundOutline=0;fontSize=25;labelBorderColor=none;startArrow=none;rounded=1;movable=0;resizable=0;rotatable=0;deletable=0;editable=0;connectable=0;spacingTop=0;spacingLeft=2;spacingRight=2;" parent="1" source="OFqDbIYOe_2my_a9MHT3-15" target="286" edge="1">
                    <mxGeometry width="50" height="50" relative="1" as="geometry">
                        <mxPoint x="78" y="985" as="sourcePoint"/>
                        <mxPoint x="-482" y="581.5" as="targetPoint"/>
                    </mxGeometry>
                </mxCell>
                <mxCell id="66" value="" style="edgeStyle=orthogonalEdgeStyle;shape=connector;exitX=0.75;exitY=0;exitDx=0;exitDy=0;labelBackgroundColor=none;strokeColor=#C7C700;fontFamily=Helvetica;fontSize=25;fontColor=#FFFFFF;endArrow=none;endFill=0;fillColor=#A8DADC;entryX=0;entryY=0.5;entryDx=0;entryDy=0;startArrow=ERmandOne;startFill=0;strokeWidth=5;swimlaneLine=1;fixDash=0;snapToPoint=0;comic=0;enumerate=0;backgroundOutline=0;labelBorderColor=none;entryPerimeter=0;rounded=1;movable=0;resizable=0;rotatable=0;deletable=0;editable=0;connectable=0;spacingTop=0;spacingLeft=2;spacingRight=2;" parent="1" source="OFqDbIYOe_2my_a9MHT3-49" target="64" edge="1">
                    <mxGeometry relative="1" as="geometry">
                        <mxPoint x="1346.0001220703125" y="771.9999694824219" as="targetPoint"/>
                    </mxGeometry>
                </mxCell>
                <mxCell id="405" style="edgeStyle=orthogonalEdgeStyle;shape=connector;rounded=1;comic=0;html=1;exitX=0.5;exitY=0;exitDx=0;exitDy=0;entryX=0.5;entryY=1;entryDx=0;entryDy=0;labelBackgroundColor=none;labelBorderColor=none;strokeColor=#C7C700;strokeWidth=5;fontFamily=Helvetica;fontSize=25;fontColor=default;endArrow=none;endFill=0;startSize=30;targetPerimeterSpacing=0;fillColor=#A8DADC;movable=0;resizable=0;rotatable=0;deletable=0;editable=0;connectable=0;" parent="1" source="OFqDbIYOe_2my_a9MHT3-49" target="404" edge="1">
                    <mxGeometry relative="1" as="geometry">
                        <Array as="points">
                            <mxPoint x="1397" y="907"/>
                            <mxPoint x="1242" y="907"/>
                            <mxPoint x="1242" y="788"/>
                        </Array>
                    </mxGeometry>
                </mxCell>
                <mxCell id="OFqDbIYOe_2my_a9MHT3-49" value="artist" style="shape=table;startSize=23;container=1;collapsible=1;childLayout=tableLayout;fixedRows=1;rowLines=0;fontStyle=1;align=center;resizeLast=1;strokeColor=#C7C700;fontColor=#ffffff;fillColor=#008a00;labelBackgroundColor=none;rounded=0;strokeWidth=5;swimlaneLine=1;fixDash=0;snapToPoint=0;comic=0;enumerate=0;backgroundOutline=0;fontSize=25;labelBorderColor=none;perimeterSpacing=0;swimlaneFillColor=#000000;movable=0;resizable=0;rotatable=0;deletable=0;editable=0;connectable=0;spacingTop=0;spacingLeft=2;spacingRight=2;" parent="1" vertex="1">
                    <mxGeometry x="1272" y="1080" width="250" height="83" as="geometry"/>
                </mxCell>
                <mxCell id="330" style="shape=tableRow;horizontal=0;startSize=0;swimlaneHead=0;swimlaneBody=0;fillColor=none;collapsible=0;dropTarget=0;points=[[0,0.5],[1,0.5]];portConstraint=eastwest;top=0;left=0;right=0;bottom=1;strokeColor=#C7C700;fontColor=#FFFFFF;labelBackgroundColor=none;rounded=0;strokeWidth=5;swimlaneLine=1;fixDash=0;snapToPoint=0;comic=0;enumerate=0;backgroundOutline=0;fontSize=25;labelBorderColor=none;perimeterSpacing=0;swimlaneFillColor=#000000;movable=0;resizable=0;rotatable=0;deletable=0;editable=0;connectable=0;spacingTop=0;spacingLeft=2;spacingRight=2;" parent="OFqDbIYOe_2my_a9MHT3-49" vertex="1">
                    <mxGeometry y="23" width="250" height="30" as="geometry"/>
                </mxCell>
                <mxCell id="331" value="PK,FK" style="shape=partialRectangle;connectable=0;fillColor=none;top=0;left=0;bottom=0;right=0;fontStyle=1;overflow=hidden;strokeColor=#C7C700;fontColor=#FFFFFF;labelBackgroundColor=none;rounded=0;strokeWidth=5;swimlaneLine=1;fixDash=0;snapToPoint=0;comic=0;enumerate=0;backgroundOutline=0;fontSize=25;labelBorderColor=none;perimeterSpacing=0;swimlaneFillColor=#000000;movable=0;resizable=0;rotatable=0;deletable=0;editable=0;spacingTop=0;spacingLeft=2;spacingRight=2;" parent="330" vertex="1">
                    <mxGeometry width="100" height="30" as="geometry">
                        <mxRectangle width="100" height="30" as="alternateBounds"/>
                    </mxGeometry>
                </mxCell>
                <mxCell id="332" value="ArtistID" style="shape=partialRectangle;connectable=0;fillColor=none;top=0;left=0;bottom=0;right=0;align=left;spacingLeft=2;fontStyle=5;overflow=hidden;strokeColor=#C7C700;fontColor=#FFFFFF;labelBackgroundColor=none;rounded=0;strokeWidth=5;swimlaneLine=1;fixDash=0;snapToPoint=0;comic=0;enumerate=0;backgroundOutline=0;fontSize=25;labelBorderColor=none;perimeterSpacing=0;swimlaneFillColor=#000000;movable=0;resizable=0;rotatable=0;deletable=0;editable=0;spacingTop=0;spacingRight=2;" parent="330" vertex="1">
                    <mxGeometry x="100" width="150" height="30" as="geometry">
                        <mxRectangle width="150" height="30" as="alternateBounds"/>
                    </mxGeometry>
                </mxCell>
                <mxCell id="OFqDbIYOe_2my_a9MHT3-50" value="" style="shape=tableRow;horizontal=0;startSize=0;swimlaneHead=0;swimlaneBody=0;fillColor=none;collapsible=0;dropTarget=0;points=[[0,0.5],[1,0.5]];portConstraint=eastwest;top=0;left=0;right=0;bottom=1;strokeColor=#C7C700;fontColor=#FFFFFF;labelBackgroundColor=none;rounded=0;strokeWidth=5;swimlaneLine=1;fixDash=0;snapToPoint=0;comic=0;enumerate=0;backgroundOutline=0;fontSize=25;labelBorderColor=none;perimeterSpacing=0;swimlaneFillColor=#000000;movable=0;resizable=0;rotatable=0;deletable=0;editable=0;connectable=0;spacingTop=0;spacingLeft=2;spacingRight=2;" parent="OFqDbIYOe_2my_a9MHT3-49" vertex="1">
                    <mxGeometry y="53" width="250" height="30" as="geometry"/>
                </mxCell>
                <mxCell id="OFqDbIYOe_2my_a9MHT3-51" value="" style="shape=partialRectangle;connectable=0;fillColor=none;top=0;left=0;bottom=0;right=0;fontStyle=1;overflow=hidden;strokeColor=#C7C700;fontColor=#FFFFFF;labelBackgroundColor=none;rounded=0;strokeWidth=5;swimlaneLine=1;fixDash=0;snapToPoint=0;comic=0;enumerate=0;backgroundOutline=0;fontSize=25;labelBorderColor=none;perimeterSpacing=0;swimlaneFillColor=#000000;movable=0;resizable=0;rotatable=0;deletable=0;editable=0;spacingTop=0;spacingLeft=2;spacingRight=2;" parent="OFqDbIYOe_2my_a9MHT3-50" vertex="1">
                    <mxGeometry width="100" height="30" as="geometry">
                        <mxRectangle width="100" height="30" as="alternateBounds"/>
                    </mxGeometry>
                </mxCell>
                <mxCell id="OFqDbIYOe_2my_a9MHT3-52" value="name" style="shape=partialRectangle;connectable=0;fillColor=none;top=0;left=0;bottom=0;right=0;align=left;spacingLeft=2;fontStyle=5;overflow=hidden;strokeColor=#C7C700;fontColor=#FFFFFF;labelBackgroundColor=none;rounded=0;strokeWidth=5;swimlaneLine=1;fixDash=0;snapToPoint=0;comic=0;enumerate=0;backgroundOutline=0;fontSize=25;labelBorderColor=none;perimeterSpacing=0;swimlaneFillColor=#000000;movable=0;resizable=0;rotatable=0;deletable=0;editable=0;spacingTop=0;spacingRight=2;" parent="OFqDbIYOe_2my_a9MHT3-50" vertex="1">
                    <mxGeometry x="100" width="150" height="30" as="geometry">
                        <mxRectangle width="150" height="30" as="alternateBounds"/>
                    </mxGeometry>
                </mxCell>
                <mxCell id="OFqDbIYOe_2my_a9MHT3-81" value="Concert" style="shape=table;startSize=30;container=1;collapsible=1;childLayout=tableLayout;fixedRows=1;rowLines=0;fontStyle=1;align=center;resizeLast=1;strokeColor=#C7C700;fontColor=#ffffff;fillColor=#008a00;labelBackgroundColor=none;rounded=0;perimeterSpacing=0;strokeWidth=5;swimlaneLine=1;fixDash=0;snapToPoint=0;comic=0;enumerate=0;backgroundOutline=0;fontSize=25;labelBorderColor=none;swimlaneFillColor=#000000;movable=0;resizable=0;rotatable=0;deletable=0;editable=0;connectable=0;spacingTop=0;spacingLeft=2;spacingRight=2;" parent="1" vertex="1">
                    <mxGeometry x="663" y="1080" width="200" height="120" as="geometry"/>
                </mxCell>
                <mxCell id="OFqDbIYOe_2my_a9MHT3-82" value="" style="shape=tableRow;horizontal=0;startSize=0;swimlaneHead=0;swimlaneBody=0;fillColor=none;collapsible=0;dropTarget=0;points=[[0,0.5],[1,0.5]];portConstraint=eastwest;top=0;left=0;right=0;bottom=1;strokeColor=#C7C700;fontColor=#FFFFFF;labelBackgroundColor=none;rounded=0;strokeWidth=5;swimlaneLine=1;fixDash=0;snapToPoint=0;comic=0;enumerate=0;backgroundOutline=0;fontSize=25;labelBorderColor=none;perimeterSpacing=0;swimlaneFillColor=#000000;movable=0;resizable=0;rotatable=0;deletable=0;editable=0;connectable=0;spacingTop=0;spacingLeft=2;spacingRight=2;" parent="OFqDbIYOe_2my_a9MHT3-81" vertex="1">
                    <mxGeometry y="30" width="200" height="30" as="geometry"/>
                </mxCell>
                <mxCell id="OFqDbIYOe_2my_a9MHT3-83" value="PK" style="shape=partialRectangle;connectable=0;fillColor=none;top=0;left=0;bottom=0;right=0;fontStyle=1;overflow=hidden;strokeColor=#C7C700;fontColor=#FFFFFF;labelBackgroundColor=none;rounded=0;strokeWidth=5;swimlaneLine=1;fixDash=0;snapToPoint=0;comic=0;enumerate=0;backgroundOutline=0;fontSize=25;labelBorderColor=none;perimeterSpacing=0;swimlaneFillColor=#000000;movable=0;resizable=0;rotatable=0;deletable=0;editable=0;spacingTop=0;spacingLeft=2;spacingRight=2;" parent="OFqDbIYOe_2my_a9MHT3-82" vertex="1">
                    <mxGeometry width="50" height="30" as="geometry">
                        <mxRectangle width="50" height="30" as="alternateBounds"/>
                    </mxGeometry>
                </mxCell>
                <mxCell id="OFqDbIYOe_2my_a9MHT3-84" value="ConcertID" style="shape=partialRectangle;connectable=0;fillColor=none;top=0;left=0;bottom=0;right=0;align=left;spacingLeft=2;fontStyle=5;overflow=hidden;strokeColor=#C7C700;fontColor=#FFFFFF;labelBackgroundColor=none;rounded=0;strokeWidth=5;swimlaneLine=1;fixDash=0;snapToPoint=0;comic=0;enumerate=0;backgroundOutline=0;fontSize=25;labelBorderColor=none;perimeterSpacing=0;swimlaneFillColor=#000000;movable=0;resizable=0;rotatable=0;deletable=0;editable=0;spacingTop=0;spacingRight=2;" parent="OFqDbIYOe_2my_a9MHT3-82" vertex="1">
                    <mxGeometry x="50" width="150" height="30" as="geometry">
                        <mxRectangle width="150" height="30" as="alternateBounds"/>
                    </mxGeometry>
                </mxCell>
                <mxCell id="347" style="shape=tableRow;horizontal=0;startSize=0;swimlaneHead=0;swimlaneBody=0;fillColor=none;collapsible=0;dropTarget=0;points=[[0,0.5],[1,0.5]];portConstraint=eastwest;top=0;left=0;right=0;bottom=1;strokeColor=#C7C700;fontColor=#FFFFFF;labelBackgroundColor=none;rounded=0;strokeWidth=5;swimlaneLine=1;fixDash=0;snapToPoint=0;comic=0;enumerate=0;backgroundOutline=0;fontSize=25;labelBorderColor=none;perimeterSpacing=0;swimlaneFillColor=#000000;movable=0;resizable=0;rotatable=0;deletable=0;editable=0;connectable=0;spacingTop=0;spacingLeft=2;spacingRight=2;" parent="OFqDbIYOe_2my_a9MHT3-81" vertex="1">
                    <mxGeometry y="60" width="200" height="30" as="geometry"/>
                </mxCell>
                <mxCell id="348" value="FK" style="shape=partialRectangle;connectable=0;fillColor=none;top=0;left=0;bottom=0;right=0;fontStyle=1;overflow=hidden;strokeColor=#C7C700;fontColor=#FFFFFF;labelBackgroundColor=none;rounded=0;strokeWidth=5;swimlaneLine=1;fixDash=0;snapToPoint=0;comic=0;enumerate=0;backgroundOutline=0;fontSize=25;labelBorderColor=none;perimeterSpacing=0;swimlaneFillColor=#000000;movable=0;resizable=0;rotatable=0;deletable=0;editable=0;spacingTop=0;spacingLeft=2;spacingRight=2;" parent="347" vertex="1">
                    <mxGeometry width="50" height="30" as="geometry">
                        <mxRectangle width="50" height="30" as="alternateBounds"/>
                    </mxGeometry>
                </mxCell>
                <mxCell id="349" value="ArtistID" style="shape=partialRectangle;connectable=0;fillColor=none;top=0;left=0;bottom=0;right=0;align=left;spacingLeft=2;fontStyle=5;overflow=hidden;strokeColor=#C7C700;fontColor=#FFFFFF;labelBackgroundColor=none;rounded=0;strokeWidth=5;swimlaneLine=1;fixDash=0;snapToPoint=0;comic=0;enumerate=0;backgroundOutline=0;fontSize=25;labelBorderColor=none;perimeterSpacing=0;swimlaneFillColor=#000000;movable=0;resizable=0;rotatable=0;deletable=0;editable=0;spacingTop=0;spacingRight=2;" parent="347" vertex="1">
                    <mxGeometry x="50" width="150" height="30" as="geometry">
                        <mxRectangle width="150" height="30" as="alternateBounds"/>
                    </mxGeometry>
                </mxCell>
                <mxCell id="OFqDbIYOe_2my_a9MHT3-88" value="" style="shape=tableRow;horizontal=0;startSize=0;swimlaneHead=0;swimlaneBody=0;fillColor=none;collapsible=0;dropTarget=0;points=[[0,0.5],[1,0.5]];portConstraint=eastwest;top=0;left=0;right=0;bottom=0;strokeColor=#C7C700;fontColor=#FFFFFF;labelBackgroundColor=none;rounded=0;strokeWidth=5;swimlaneLine=1;fixDash=0;snapToPoint=0;comic=0;enumerate=0;backgroundOutline=0;fontSize=25;labelBorderColor=none;perimeterSpacing=0;swimlaneFillColor=#000000;movable=0;resizable=0;rotatable=0;deletable=0;editable=0;connectable=0;spacingTop=0;spacingLeft=2;spacingRight=2;" parent="OFqDbIYOe_2my_a9MHT3-81" vertex="1">
                    <mxGeometry y="90" width="200" height="30" as="geometry"/>
                </mxCell>
                <mxCell id="OFqDbIYOe_2my_a9MHT3-89" value="" style="shape=partialRectangle;connectable=0;fillColor=none;top=0;left=0;bottom=0;right=0;editable=0;overflow=hidden;strokeColor=#C7C700;fontColor=#FFFFFF;labelBackgroundColor=none;rounded=0;strokeWidth=5;swimlaneLine=1;fixDash=0;snapToPoint=0;comic=0;enumerate=0;backgroundOutline=0;fontSize=25;labelBorderColor=none;perimeterSpacing=0;swimlaneFillColor=#000000;movable=0;resizable=0;rotatable=0;deletable=0;spacingTop=0;spacingLeft=2;spacingRight=2;" parent="OFqDbIYOe_2my_a9MHT3-88" vertex="1">
                    <mxGeometry width="50" height="30" as="geometry">
                        <mxRectangle width="50" height="30" as="alternateBounds"/>
                    </mxGeometry>
                </mxCell>
                <mxCell id="OFqDbIYOe_2my_a9MHT3-90" value="price" style="shape=partialRectangle;connectable=0;fillColor=none;top=0;left=0;bottom=0;right=0;align=left;spacingLeft=2;overflow=hidden;strokeColor=#C7C700;fontColor=#FFFFFF;labelBackgroundColor=none;rounded=0;strokeWidth=5;swimlaneLine=1;fixDash=0;snapToPoint=0;comic=0;enumerate=0;backgroundOutline=0;fontSize=25;labelBorderColor=none;perimeterSpacing=0;swimlaneFillColor=#000000;movable=0;resizable=0;rotatable=0;deletable=0;editable=0;spacingTop=0;spacingRight=2;" parent="OFqDbIYOe_2my_a9MHT3-88" vertex="1">
                    <mxGeometry x="50" width="150" height="30" as="geometry">
                        <mxRectangle width="150" height="30" as="alternateBounds"/>
                    </mxGeometry>
                </mxCell>
                <mxCell id="OFqDbIYOe_2my_a9MHT3-62" value="Song" style="shape=table;startSize=30;container=1;collapsible=1;childLayout=tableLayout;fixedRows=1;rowLines=0;fontStyle=1;align=center;resizeLast=1;strokeColor=#C7C700;fontColor=#ffffff;fillColor=#008a00;labelBackgroundColor=none;rounded=0;strokeWidth=5;swimlaneLine=1;fixDash=0;snapToPoint=0;comic=0;enumerate=0;backgroundOutline=0;fontSize=25;labelBorderColor=none;perimeterSpacing=0;swimlaneFillColor=#000000;movable=0;resizable=0;rotatable=0;deletable=0;editable=0;connectable=0;spacingTop=0;spacingLeft=2;spacingRight=2;" parent="1" vertex="1">
                    <mxGeometry x="1444" y="265" width="200" height="345" as="geometry"/>
                </mxCell>
                <mxCell id="OFqDbIYOe_2my_a9MHT3-63" value="" style="shape=tableRow;horizontal=0;startSize=0;swimlaneHead=0;swimlaneBody=0;fillColor=none;collapsible=0;dropTarget=0;points=[[0,0.5],[1,0.5]];portConstraint=eastwest;top=0;left=0;right=0;bottom=1;strokeColor=#C7C700;fontColor=#FFFFFF;labelBackgroundColor=none;rounded=0;strokeWidth=5;swimlaneLine=1;fixDash=0;snapToPoint=0;comic=0;enumerate=0;backgroundOutline=0;fontSize=25;labelBorderColor=none;perimeterSpacing=0;swimlaneFillColor=#000000;movable=0;resizable=0;rotatable=0;deletable=0;editable=0;connectable=0;spacingTop=0;spacingLeft=2;spacingRight=2;" parent="OFqDbIYOe_2my_a9MHT3-62" vertex="1">
                    <mxGeometry y="30" width="200" height="35" as="geometry"/>
                </mxCell>
                <mxCell id="OFqDbIYOe_2my_a9MHT3-64" value="PK" style="shape=partialRectangle;connectable=0;fillColor=none;top=0;left=0;bottom=0;right=0;fontStyle=1;overflow=hidden;strokeColor=#C7C700;fontColor=#FFFFFF;labelBackgroundColor=none;rounded=0;strokeWidth=5;swimlaneLine=1;fixDash=0;snapToPoint=0;comic=0;enumerate=0;backgroundOutline=0;fontSize=25;labelBorderColor=none;perimeterSpacing=0;swimlaneFillColor=#000000;movable=0;resizable=0;rotatable=0;deletable=0;editable=0;spacingTop=0;spacingLeft=2;spacingRight=2;" parent="OFqDbIYOe_2my_a9MHT3-63" vertex="1">
                    <mxGeometry width="50" height="35" as="geometry">
                        <mxRectangle width="50" height="35" as="alternateBounds"/>
                    </mxGeometry>
                </mxCell>
                <mxCell id="OFqDbIYOe_2my_a9MHT3-65" value="SongID" style="shape=partialRectangle;connectable=0;fillColor=none;top=0;left=0;bottom=0;right=0;align=left;spacingLeft=2;fontStyle=5;overflow=hidden;strokeColor=#C7C700;fontColor=#FFFFFF;labelBackgroundColor=none;rounded=0;strokeWidth=5;swimlaneLine=1;fixDash=0;snapToPoint=0;comic=0;enumerate=0;backgroundOutline=0;fontSize=25;labelBorderColor=none;perimeterSpacing=0;swimlaneFillColor=#000000;movable=0;resizable=0;rotatable=0;deletable=0;editable=0;spacingTop=0;spacingRight=2;" parent="OFqDbIYOe_2my_a9MHT3-63" vertex="1">
                    <mxGeometry x="50" width="150" height="35" as="geometry">
                        <mxRectangle width="150" height="35" as="alternateBounds"/>
                    </mxGeometry>
                </mxCell>
                <mxCell id="343" style="shape=tableRow;horizontal=0;startSize=0;swimlaneHead=0;swimlaneBody=0;fillColor=none;collapsible=0;dropTarget=0;points=[[0,0.5],[1,0.5]];portConstraint=eastwest;top=0;left=0;right=0;bottom=1;strokeColor=#C7C700;fontColor=#FFFFFF;labelBackgroundColor=none;rounded=0;strokeWidth=5;swimlaneLine=1;fixDash=0;snapToPoint=0;comic=0;enumerate=0;backgroundOutline=0;fontSize=25;labelBorderColor=none;perimeterSpacing=0;swimlaneFillColor=#000000;movable=0;resizable=0;rotatable=0;deletable=0;editable=0;connectable=0;spacingTop=0;spacingLeft=2;spacingRight=2;" parent="OFqDbIYOe_2my_a9MHT3-62" vertex="1">
                    <mxGeometry y="65" width="200" height="35" as="geometry"/>
                </mxCell>
                <mxCell id="344" value="FK" style="shape=partialRectangle;connectable=0;fillColor=none;top=0;left=0;bottom=0;right=0;fontStyle=1;overflow=hidden;strokeColor=#C7C700;fontColor=#FFFFFF;labelBackgroundColor=none;rounded=0;strokeWidth=5;swimlaneLine=1;fixDash=0;snapToPoint=0;comic=0;enumerate=0;backgroundOutline=0;fontSize=25;labelBorderColor=none;perimeterSpacing=0;swimlaneFillColor=#000000;movable=0;resizable=0;rotatable=0;deletable=0;editable=0;spacingTop=0;spacingLeft=2;spacingRight=2;" parent="343" vertex="1">
                    <mxGeometry width="50" height="35" as="geometry">
                        <mxRectangle width="50" height="35" as="alternateBounds"/>
                    </mxGeometry>
                </mxCell>
                <mxCell id="345" value="AlbumTitle" style="shape=partialRectangle;connectable=0;fillColor=none;top=0;left=0;bottom=0;right=0;align=left;spacingLeft=2;fontStyle=5;overflow=hidden;strokeColor=#C7C700;fontColor=#FFFFFF;labelBackgroundColor=none;rounded=0;strokeWidth=5;swimlaneLine=1;fixDash=0;snapToPoint=0;comic=0;enumerate=0;backgroundOutline=0;fontSize=25;labelBorderColor=none;perimeterSpacing=0;swimlaneFillColor=#000000;movable=0;resizable=0;rotatable=0;deletable=0;editable=0;spacingTop=0;spacingRight=2;" parent="343" vertex="1">
                    <mxGeometry x="50" width="150" height="35" as="geometry">
                        <mxRectangle width="150" height="35" as="alternateBounds"/>
                    </mxGeometry>
                </mxCell>
                <mxCell id="337" style="shape=tableRow;horizontal=0;startSize=0;swimlaneHead=0;swimlaneBody=0;fillColor=none;collapsible=0;dropTarget=0;points=[[0,0.5],[1,0.5]];portConstraint=eastwest;top=0;left=0;right=0;bottom=1;strokeColor=#C7C700;fontColor=#FFFFFF;labelBackgroundColor=none;rounded=0;strokeWidth=5;swimlaneLine=1;fixDash=0;snapToPoint=0;comic=0;enumerate=0;backgroundOutline=0;fontSize=25;labelBorderColor=none;perimeterSpacing=0;swimlaneFillColor=#000000;movable=0;resizable=0;rotatable=0;deletable=0;editable=0;connectable=0;spacingTop=0;spacingLeft=2;spacingRight=2;" parent="OFqDbIYOe_2my_a9MHT3-62" vertex="1">
                    <mxGeometry y="100" width="200" height="35" as="geometry"/>
                </mxCell>
                <mxCell id="338" value="FK" style="shape=partialRectangle;connectable=0;fillColor=none;top=0;left=0;bottom=0;right=0;fontStyle=1;overflow=hidden;strokeColor=#C7C700;fontColor=#FFFFFF;labelBackgroundColor=none;rounded=0;strokeWidth=5;swimlaneLine=1;fixDash=0;snapToPoint=0;comic=0;enumerate=0;backgroundOutline=0;fontSize=25;labelBorderColor=none;perimeterSpacing=0;swimlaneFillColor=#000000;movable=0;resizable=0;rotatable=0;deletable=0;editable=0;spacingTop=0;spacingLeft=2;spacingRight=2;" parent="337" vertex="1">
                    <mxGeometry width="50" height="35" as="geometry">
                        <mxRectangle width="50" height="35" as="alternateBounds"/>
                    </mxGeometry>
                </mxCell>
                <mxCell id="339" value="ArtistID" style="shape=partialRectangle;connectable=0;fillColor=none;top=0;left=0;bottom=0;right=0;align=left;spacingLeft=2;fontStyle=5;overflow=hidden;strokeColor=#C7C700;fontColor=#FFFFFF;labelBackgroundColor=none;rounded=0;strokeWidth=5;swimlaneLine=1;fixDash=0;snapToPoint=0;comic=0;enumerate=0;backgroundOutline=0;fontSize=25;labelBorderColor=none;perimeterSpacing=0;swimlaneFillColor=#000000;movable=0;resizable=0;rotatable=0;deletable=0;editable=0;spacingTop=0;spacingRight=2;" parent="337" vertex="1">
                    <mxGeometry x="50" width="150" height="35" as="geometry">
                        <mxRectangle width="150" height="35" as="alternateBounds"/>
                    </mxGeometry>
                </mxCell>
                <mxCell id="OFqDbIYOe_2my_a9MHT3-66" value="" style="shape=tableRow;horizontal=0;startSize=0;swimlaneHead=0;swimlaneBody=0;fillColor=none;collapsible=0;dropTarget=0;points=[[0,0.5],[1,0.5]];portConstraint=eastwest;top=0;left=0;right=0;bottom=0;strokeColor=#C7C700;fontColor=#FFFFFF;labelBackgroundColor=none;rounded=0;strokeWidth=5;swimlaneLine=1;fixDash=0;snapToPoint=0;comic=0;enumerate=0;backgroundOutline=0;fontSize=25;labelBorderColor=none;perimeterSpacing=0;swimlaneFillColor=#000000;movable=0;resizable=0;rotatable=0;deletable=0;editable=0;connectable=0;spacingTop=0;spacingLeft=2;spacingRight=2;" parent="OFqDbIYOe_2my_a9MHT3-62" vertex="1">
                    <mxGeometry y="135" width="200" height="30" as="geometry"/>
                </mxCell>
                <mxCell id="OFqDbIYOe_2my_a9MHT3-67" value="" style="shape=partialRectangle;connectable=0;fillColor=none;top=0;left=0;bottom=0;right=0;editable=0;overflow=hidden;strokeColor=#C7C700;fontColor=#FFFFFF;labelBackgroundColor=none;rounded=0;strokeWidth=5;swimlaneLine=1;fixDash=0;snapToPoint=0;comic=0;enumerate=0;backgroundOutline=0;fontSize=25;labelBorderColor=none;perimeterSpacing=0;swimlaneFillColor=#000000;movable=0;resizable=0;rotatable=0;deletable=0;spacingTop=0;spacingLeft=2;spacingRight=2;" parent="OFqDbIYOe_2my_a9MHT3-66" vertex="1">
                    <mxGeometry width="50" height="30" as="geometry">
                        <mxRectangle width="50" height="30" as="alternateBounds"/>
                    </mxGeometry>
                </mxCell>
                <mxCell id="OFqDbIYOe_2my_a9MHT3-68" value="name" style="shape=partialRectangle;connectable=0;fillColor=none;top=0;left=0;bottom=0;right=0;align=left;spacingLeft=2;overflow=hidden;strokeColor=#C7C700;fontColor=#FFFFFF;labelBackgroundColor=none;rounded=0;strokeWidth=5;swimlaneLine=1;fixDash=0;snapToPoint=0;comic=0;enumerate=0;backgroundOutline=0;fontSize=25;labelBorderColor=none;perimeterSpacing=0;swimlaneFillColor=#000000;movable=0;resizable=0;rotatable=0;deletable=0;editable=0;spacingTop=0;spacingRight=2;" parent="OFqDbIYOe_2my_a9MHT3-66" vertex="1">
                    <mxGeometry x="50" width="150" height="30" as="geometry">
                        <mxRectangle width="150" height="30" as="alternateBounds"/>
                    </mxGeometry>
                </mxCell>
                <mxCell id="OFqDbIYOe_2my_a9MHT3-158" value="" style="shape=tableRow;horizontal=0;startSize=0;swimlaneHead=0;swimlaneBody=0;fillColor=none;collapsible=0;dropTarget=0;points=[[0,0.5],[1,0.5]];portConstraint=eastwest;top=0;left=0;right=0;bottom=0;strokeColor=#C7C700;fontColor=#FFFFFF;labelBackgroundColor=none;rounded=0;strokeWidth=5;swimlaneLine=1;fixDash=0;snapToPoint=0;comic=0;enumerate=0;backgroundOutline=0;fontSize=25;labelBorderColor=none;perimeterSpacing=0;swimlaneFillColor=#000000;movable=0;resizable=0;rotatable=0;deletable=0;editable=0;connectable=0;spacingTop=0;spacingLeft=2;spacingRight=2;" parent="OFqDbIYOe_2my_a9MHT3-62" vertex="1">
                    <mxGeometry y="165" width="200" height="30" as="geometry"/>
                </mxCell>
                <mxCell id="OFqDbIYOe_2my_a9MHT3-159" value="" style="shape=partialRectangle;connectable=0;fillColor=none;top=0;left=0;bottom=0;right=0;editable=0;overflow=hidden;strokeColor=#C7C700;fontColor=#FFFFFF;labelBackgroundColor=none;rounded=0;strokeWidth=5;swimlaneLine=1;fixDash=0;snapToPoint=0;comic=0;enumerate=0;backgroundOutline=0;fontSize=25;labelBorderColor=none;perimeterSpacing=0;swimlaneFillColor=#000000;movable=0;resizable=0;rotatable=0;deletable=0;spacingTop=0;spacingLeft=2;spacingRight=2;" parent="OFqDbIYOe_2my_a9MHT3-158" vertex="1">
                    <mxGeometry width="50" height="30" as="geometry">
                        <mxRectangle width="50" height="30" as="alternateBounds"/>
                    </mxGeometry>
                </mxCell>
                <mxCell id="OFqDbIYOe_2my_a9MHT3-160" value="genre" style="shape=partialRectangle;connectable=0;fillColor=none;top=0;left=0;bottom=0;right=0;align=left;spacingLeft=2;overflow=hidden;strokeColor=#C7C700;fontColor=#FFFFFF;labelBackgroundColor=none;rounded=0;strokeWidth=5;swimlaneLine=1;fixDash=0;snapToPoint=0;comic=0;enumerate=0;backgroundOutline=0;fontSize=25;labelBorderColor=none;perimeterSpacing=0;swimlaneFillColor=#000000;movable=0;resizable=0;rotatable=0;deletable=0;editable=0;spacingTop=0;spacingRight=2;" parent="OFqDbIYOe_2my_a9MHT3-158" vertex="1">
                    <mxGeometry x="50" width="150" height="30" as="geometry">
                        <mxRectangle width="150" height="30" as="alternateBounds"/>
                    </mxGeometry>
                </mxCell>
                <mxCell id="OFqDbIYOe_2my_a9MHT3-161" value="" style="shape=tableRow;horizontal=0;startSize=0;swimlaneHead=0;swimlaneBody=0;fillColor=none;collapsible=0;dropTarget=0;points=[[0,0.5],[1,0.5]];portConstraint=eastwest;top=0;left=0;right=0;bottom=0;strokeColor=#C7C700;fontColor=#FFFFFF;labelBackgroundColor=none;rounded=0;strokeWidth=5;swimlaneLine=1;fixDash=0;snapToPoint=0;comic=0;enumerate=0;backgroundOutline=0;fontSize=25;labelBorderColor=none;perimeterSpacing=0;swimlaneFillColor=#000000;movable=0;resizable=0;rotatable=0;deletable=0;editable=0;connectable=0;spacingTop=0;spacingLeft=2;spacingRight=2;" parent="OFqDbIYOe_2my_a9MHT3-62" vertex="1">
                    <mxGeometry y="195" width="200" height="30" as="geometry"/>
                </mxCell>
                <mxCell id="OFqDbIYOe_2my_a9MHT3-162" value="" style="shape=partialRectangle;connectable=0;fillColor=none;top=0;left=0;bottom=0;right=0;editable=0;overflow=hidden;strokeColor=#C7C700;fontColor=#FFFFFF;labelBackgroundColor=none;rounded=0;strokeWidth=5;swimlaneLine=1;fixDash=0;snapToPoint=0;comic=0;enumerate=0;backgroundOutline=0;fontSize=25;labelBorderColor=none;perimeterSpacing=0;swimlaneFillColor=#000000;movable=0;resizable=0;rotatable=0;deletable=0;spacingTop=0;spacingLeft=2;spacingRight=2;" parent="OFqDbIYOe_2my_a9MHT3-161" vertex="1">
                    <mxGeometry width="50" height="30" as="geometry">
                        <mxRectangle width="50" height="30" as="alternateBounds"/>
                    </mxGeometry>
                </mxCell>
                <mxCell id="OFqDbIYOe_2my_a9MHT3-163" value="country" style="shape=partialRectangle;connectable=0;fillColor=none;top=0;left=0;bottom=0;right=0;align=left;spacingLeft=2;overflow=hidden;strokeColor=#C7C700;fontColor=#FFFFFF;labelBackgroundColor=none;rounded=0;strokeWidth=5;swimlaneLine=1;fixDash=0;snapToPoint=0;comic=0;enumerate=0;backgroundOutline=0;fontSize=25;labelBorderColor=none;perimeterSpacing=0;swimlaneFillColor=#000000;movable=0;resizable=0;rotatable=0;deletable=0;editable=0;spacingTop=0;spacingRight=2;" parent="OFqDbIYOe_2my_a9MHT3-161" vertex="1">
                    <mxGeometry x="50" width="150" height="30" as="geometry">
                        <mxRectangle width="150" height="30" as="alternateBounds"/>
                    </mxGeometry>
                </mxCell>
                <mxCell id="OFqDbIYOe_2my_a9MHT3-164" value="" style="shape=tableRow;horizontal=0;startSize=0;swimlaneHead=0;swimlaneBody=0;fillColor=none;collapsible=0;dropTarget=0;points=[[0,0.5],[1,0.5]];portConstraint=eastwest;top=0;left=0;right=0;bottom=0;strokeColor=#C7C700;fontColor=#FFFFFF;labelBackgroundColor=none;rounded=0;strokeWidth=5;swimlaneLine=1;fixDash=0;snapToPoint=0;comic=0;enumerate=0;backgroundOutline=0;fontSize=25;labelBorderColor=none;perimeterSpacing=0;swimlaneFillColor=#000000;movable=0;resizable=0;rotatable=0;deletable=0;editable=0;connectable=0;spacingTop=0;spacingLeft=2;spacingRight=2;" parent="OFqDbIYOe_2my_a9MHT3-62" vertex="1">
                    <mxGeometry y="225" width="200" height="30" as="geometry"/>
                </mxCell>
                <mxCell id="OFqDbIYOe_2my_a9MHT3-165" value="" style="shape=partialRectangle;connectable=0;fillColor=none;top=0;left=0;bottom=0;right=0;editable=0;overflow=hidden;strokeColor=#C7C700;fontColor=#FFFFFF;labelBackgroundColor=none;rounded=0;strokeWidth=5;swimlaneLine=1;fixDash=0;snapToPoint=0;comic=0;enumerate=0;backgroundOutline=0;fontSize=25;labelBorderColor=none;perimeterSpacing=0;swimlaneFillColor=#000000;movable=0;resizable=0;rotatable=0;deletable=0;spacingTop=0;spacingLeft=2;spacingRight=2;" parent="OFqDbIYOe_2my_a9MHT3-164" vertex="1">
                    <mxGeometry width="50" height="30" as="geometry">
                        <mxRectangle width="50" height="30" as="alternateBounds"/>
                    </mxGeometry>
                </mxCell>
                <mxCell id="OFqDbIYOe_2my_a9MHT3-166" value="ages" style="shape=partialRectangle;connectable=0;fillColor=none;top=0;left=0;bottom=0;right=0;align=left;spacingLeft=2;overflow=hidden;strokeColor=#C7C700;fontColor=#FFFFFF;labelBackgroundColor=none;rounded=0;strokeWidth=5;swimlaneLine=1;fixDash=0;snapToPoint=0;comic=0;enumerate=0;backgroundOutline=0;fontSize=25;labelBorderColor=none;perimeterSpacing=0;swimlaneFillColor=#000000;movable=0;resizable=0;rotatable=0;deletable=0;editable=0;spacingTop=0;spacingRight=2;" parent="OFqDbIYOe_2my_a9MHT3-164" vertex="1">
                    <mxGeometry x="50" width="150" height="30" as="geometry">
                        <mxRectangle width="150" height="30" as="alternateBounds"/>
                    </mxGeometry>
                </mxCell>
                <mxCell id="07pzX-aF63wN3rvmMnTV-4" value="" style="shape=tableRow;horizontal=0;startSize=0;swimlaneHead=0;swimlaneBody=0;fillColor=none;collapsible=0;dropTarget=0;points=[[0,0.5],[1,0.5]];portConstraint=eastwest;top=0;left=0;right=0;bottom=0;strokeColor=#C7C700;fontColor=#FFFFFF;labelBackgroundColor=none;rounded=0;strokeWidth=5;swimlaneLine=1;fixDash=0;snapToPoint=0;comic=0;enumerate=0;backgroundOutline=0;fontSize=25;labelBorderColor=none;perimeterSpacing=0;swimlaneFillColor=#000000;movable=0;resizable=0;rotatable=0;deletable=0;editable=0;connectable=0;spacingTop=0;spacingLeft=2;spacingRight=2;" parent="OFqDbIYOe_2my_a9MHT3-62" vertex="1">
                    <mxGeometry y="255" width="200" height="30" as="geometry"/>
                </mxCell>
                <mxCell id="07pzX-aF63wN3rvmMnTV-5" value="" style="shape=partialRectangle;connectable=0;fillColor=none;top=0;left=0;bottom=0;right=0;editable=0;overflow=hidden;strokeColor=#C7C700;fontColor=#FFFFFF;labelBackgroundColor=none;rounded=0;strokeWidth=5;swimlaneLine=1;fixDash=0;snapToPoint=0;comic=0;enumerate=0;backgroundOutline=0;fontSize=25;labelBorderColor=none;perimeterSpacing=0;swimlaneFillColor=#000000;movable=0;resizable=0;rotatable=0;deletable=0;spacingTop=0;spacingLeft=2;spacingRight=2;" parent="07pzX-aF63wN3rvmMnTV-4" vertex="1">
                    <mxGeometry width="50" height="30" as="geometry">
                        <mxRectangle width="50" height="30" as="alternateBounds"/>
                    </mxGeometry>
                </mxCell>
                <mxCell id="07pzX-aF63wN3rvmMnTV-6" value="lyric" style="shape=partialRectangle;connectable=0;fillColor=none;top=0;left=0;bottom=0;right=0;align=left;spacingLeft=2;overflow=hidden;strokeColor=#C7C700;fontColor=#FFFFFF;labelBackgroundColor=none;rounded=0;strokeWidth=5;swimlaneLine=1;fixDash=0;snapToPoint=0;comic=0;enumerate=0;backgroundOutline=0;fontSize=25;labelBorderColor=none;perimeterSpacing=0;swimlaneFillColor=#000000;movable=0;resizable=0;rotatable=0;deletable=0;editable=0;spacingTop=0;spacingRight=2;" parent="07pzX-aF63wN3rvmMnTV-4" vertex="1">
                    <mxGeometry x="50" width="150" height="30" as="geometry">
                        <mxRectangle width="150" height="30" as="alternateBounds"/>
                    </mxGeometry>
                </mxCell>
                <mxCell id="61" value="" style="shape=tableRow;horizontal=0;startSize=0;swimlaneHead=0;swimlaneBody=0;fillColor=none;collapsible=0;dropTarget=0;points=[[0,0.5],[1,0.5]];portConstraint=eastwest;top=0;left=0;right=0;bottom=0;strokeColor=#C7C700;fontColor=#FFFFFF;labelBackgroundColor=none;rounded=0;strokeWidth=5;swimlaneLine=1;fixDash=0;snapToPoint=0;comic=0;enumerate=0;backgroundOutline=0;fontSize=25;labelBorderColor=none;perimeterSpacing=0;swimlaneFillColor=#000000;movable=0;resizable=0;rotatable=0;deletable=0;editable=0;connectable=0;spacingTop=0;spacingLeft=2;spacingRight=2;" parent="OFqDbIYOe_2my_a9MHT3-62" vertex="1">
                    <mxGeometry y="285" width="200" height="30" as="geometry"/>
                </mxCell>
                <mxCell id="62" value="" style="shape=partialRectangle;connectable=0;fillColor=none;top=0;left=0;bottom=0;right=0;editable=0;overflow=hidden;strokeColor=#C7C700;fontColor=#FFFFFF;labelBackgroundColor=none;rounded=0;strokeWidth=5;swimlaneLine=1;fixDash=0;snapToPoint=0;comic=0;enumerate=0;backgroundOutline=0;fontSize=25;labelBorderColor=none;perimeterSpacing=0;swimlaneFillColor=#000000;movable=0;resizable=0;rotatable=0;deletable=0;spacingTop=0;spacingLeft=2;spacingRight=2;" parent="61" vertex="1">
                    <mxGeometry width="50" height="30" as="geometry">
                        <mxRectangle width="50" height="30" as="alternateBounds"/>
                    </mxGeometry>
                </mxCell>
                <mxCell id="63" value="is_limited" style="shape=partialRectangle;connectable=0;fillColor=none;top=0;left=0;bottom=0;right=0;align=left;spacingLeft=2;overflow=hidden;strokeColor=#C7C700;fontColor=#FFFFFF;labelBackgroundColor=none;rounded=0;strokeWidth=5;swimlaneLine=1;fixDash=0;snapToPoint=0;comic=0;enumerate=0;backgroundOutline=0;fontSize=25;labelBorderColor=none;perimeterSpacing=0;swimlaneFillColor=#000000;movable=0;resizable=0;rotatable=0;deletable=0;editable=0;spacingTop=0;spacingRight=2;" parent="61" vertex="1">
                    <mxGeometry x="50" width="150" height="30" as="geometry">
                        <mxRectangle width="150" height="30" as="alternateBounds"/>
                    </mxGeometry>
                </mxCell>
                <mxCell id="661" style="shape=tableRow;horizontal=0;startSize=0;swimlaneHead=0;swimlaneBody=0;fillColor=none;collapsible=0;dropTarget=0;points=[[0,0.5],[1,0.5]];portConstraint=eastwest;top=0;left=0;right=0;bottom=0;strokeColor=#C7C700;fontColor=#FFFFFF;labelBackgroundColor=none;rounded=0;strokeWidth=5;swimlaneLine=1;fixDash=0;snapToPoint=0;comic=0;enumerate=0;backgroundOutline=0;fontSize=25;labelBorderColor=none;perimeterSpacing=0;swimlaneFillColor=#000000;movable=0;resizable=0;rotatable=0;deletable=0;editable=0;connectable=0;spacingTop=0;spacingLeft=2;spacingRight=2;" vertex="1" parent="OFqDbIYOe_2my_a9MHT3-62">
                    <mxGeometry y="315" width="200" height="30" as="geometry"/>
                </mxCell>
                <mxCell id="662" style="shape=partialRectangle;connectable=0;fillColor=none;top=0;left=0;bottom=0;right=0;editable=0;overflow=hidden;strokeColor=#C7C700;fontColor=#FFFFFF;labelBackgroundColor=none;rounded=0;strokeWidth=5;swimlaneLine=1;fixDash=0;snapToPoint=0;comic=0;enumerate=0;backgroundOutline=0;fontSize=25;labelBorderColor=none;perimeterSpacing=0;swimlaneFillColor=#000000;movable=0;resizable=0;rotatable=0;deletable=0;spacingTop=0;spacingLeft=2;spacingRight=2;" vertex="1" parent="661">
                    <mxGeometry width="50" height="30" as="geometry">
                        <mxRectangle width="50" height="30" as="alternateBounds"/>
                    </mxGeometry>
                </mxCell>
                <mxCell id="663" value="audio_file" style="shape=partialRectangle;connectable=0;fillColor=none;top=0;left=0;bottom=0;right=0;align=left;spacingLeft=2;overflow=hidden;strokeColor=#C7C700;fontColor=#FFFFFF;labelBackgroundColor=none;rounded=0;strokeWidth=5;swimlaneLine=1;fixDash=0;snapToPoint=0;comic=0;enumerate=0;backgroundOutline=0;fontSize=25;labelBorderColor=none;perimeterSpacing=0;swimlaneFillColor=#000000;movable=0;resizable=0;rotatable=0;deletable=0;editable=0;spacingTop=0;spacingRight=2;" vertex="1" parent="661">
                    <mxGeometry x="50" width="150" height="30" as="geometry">
                        <mxRectangle width="150" height="30" as="alternateBounds"/>
                    </mxGeometry>
                </mxCell>
                <mxCell id="660" style="edgeStyle=orthogonalEdgeStyle;shape=connector;rounded=1;comic=0;html=1;exitX=0.5;exitY=0;exitDx=0;exitDy=0;entryX=1;entryY=0.25;entryDx=0;entryDy=0;labelBackgroundColor=none;labelBorderColor=none;strokeColor=#C7C700;strokeWidth=5;fontFamily=Helvetica;fontSize=25;fontColor=default;endArrow=none;endFill=0;fillColor=#A8DADC;dashed=1;movable=0;resizable=0;rotatable=0;deletable=0;editable=0;connectable=0;" parent="1" source="OFqDbIYOe_2my_a9MHT3-124" target="653" edge="1">
                    <mxGeometry relative="1" as="geometry">
                        <Array as="points">
                            <mxPoint x="972" y="852"/>
                            <mxPoint x="1121" y="852"/>
                            <mxPoint x="1121" y="710"/>
                        </Array>
                    </mxGeometry>
                </mxCell>
                <mxCell id="OFqDbIYOe_2my_a9MHT3-124" value="Favorite_Artist" style="rhombus;labelBackgroundColor=none;fillColor=#008a00;strokeColor=#C7C700;fontColor=#ffffff;rounded=0;strokeWidth=5;swimlaneLine=1;fixDash=0;snapToPoint=0;comic=0;enumerate=0;backgroundOutline=0;fontSize=25;labelBorderColor=none;perimeterSpacing=0;swimlaneFillColor=#000000;movable=0;resizable=0;rotatable=0;deletable=0;editable=0;connectable=0;spacingTop=0;spacingLeft=2;spacingRight=2;" parent="1" vertex="1">
                    <mxGeometry x="883" y="926" width="179" height="40" as="geometry"/>
                </mxCell>
                <mxCell id="OFqDbIYOe_2my_a9MHT3-125" value="" style="endArrow=none;strokeColor=#C7C700;fontColor=#FFFFFF;fillColor=#A8DADC;entryX=0;entryY=0.5;entryDx=0;entryDy=0;labelBackgroundColor=none;edgeStyle=orthogonalEdgeStyle;startArrow=ERzeroToMany;startFill=0;exitX=1;exitY=0.75;exitDx=0;exitDy=0;strokeWidth=5;swimlaneLine=1;fixDash=0;snapToPoint=0;comic=0;enumerate=0;backgroundOutline=0;fontSize=25;labelBorderColor=none;rounded=1;movable=0;resizable=0;rotatable=0;deletable=0;editable=0;connectable=0;spacingTop=0;spacingLeft=2;spacingRight=2;" parent="1" source="286" target="OFqDbIYOe_2my_a9MHT3-124" edge="1">
                    <mxGeometry width="50" height="50" relative="1" as="geometry">
                        <mxPoint x="26.5" y="740" as="sourcePoint"/>
                        <mxPoint x="860" y="500" as="targetPoint"/>
                        <Array as="points">
                            <mxPoint x="473" y="647"/>
                            <mxPoint x="473" y="946"/>
                        </Array>
                    </mxGeometry>
                </mxCell>
                <mxCell id="OFqDbIYOe_2my_a9MHT3-128" value="" style="endArrow=ERzeroToMany;strokeColor=#C7C700;fontColor=#FFFFFF;fillColor=#A8DADC;exitX=1;exitY=0.5;exitDx=0;exitDy=0;labelBackgroundColor=none;entryX=0.25;entryY=0;entryDx=0;entryDy=0;edgeStyle=orthogonalEdgeStyle;endFill=0;strokeWidth=5;swimlaneLine=1;fixDash=0;snapToPoint=0;comic=0;enumerate=0;backgroundOutline=0;fontSize=25;labelBorderColor=none;rounded=1;movable=0;resizable=0;rotatable=0;deletable=0;editable=0;connectable=0;spacingTop=0;spacingLeft=2;spacingRight=2;" parent="1" source="OFqDbIYOe_2my_a9MHT3-124" target="OFqDbIYOe_2my_a9MHT3-49" edge="1">
                    <mxGeometry width="50" height="50" relative="1" as="geometry">
                        <mxPoint x="1030" y="560" as="sourcePoint"/>
                        <mxPoint x="1180" y="819" as="targetPoint"/>
                    </mxGeometry>
                </mxCell>
                <mxCell id="OFqDbIYOe_2my_a9MHT3-135" value="Concert_Ticket" style="shape=table;startSize=30;container=1;collapsible=1;childLayout=tableLayout;fixedRows=1;rowLines=0;fontStyle=1;align=center;resizeLast=1;strokeColor=#C7C700;fontColor=#ffffff;fillColor=#008a00;labelBackgroundColor=none;rounded=0;strokeWidth=5;swimlaneLine=1;fixDash=0;snapToPoint=0;comic=0;enumerate=0;backgroundOutline=0;fontSize=25;labelBorderColor=none;perimeterSpacing=0;swimlaneFillColor=#000000;movable=0;resizable=0;rotatable=0;deletable=0;editable=0;connectable=0;spacingTop=0;spacingLeft=2;spacingRight=2;" parent="1" vertex="1">
                    <mxGeometry x="112" y="1080" width="200" height="120" as="geometry">
                        <mxRectangle x="1620" y="1130" width="120" height="30" as="alternateBounds"/>
                    </mxGeometry>
                </mxCell>
                <mxCell id="OFqDbIYOe_2my_a9MHT3-136" value="" style="shape=tableRow;horizontal=0;startSize=0;swimlaneHead=0;swimlaneBody=0;fillColor=none;collapsible=0;dropTarget=0;points=[[0,0.5],[1,0.5]];portConstraint=eastwest;top=0;left=0;right=0;bottom=1;strokeColor=#C7C700;fontColor=#FFFFFF;labelBackgroundColor=none;rounded=0;strokeWidth=5;swimlaneLine=1;fixDash=0;snapToPoint=0;comic=0;enumerate=0;backgroundOutline=0;fontSize=25;labelBorderColor=none;perimeterSpacing=0;swimlaneFillColor=#000000;movable=0;resizable=0;rotatable=0;deletable=0;editable=0;connectable=0;spacingTop=0;spacingLeft=2;spacingRight=2;" parent="OFqDbIYOe_2my_a9MHT3-135" vertex="1">
                    <mxGeometry y="30" width="200" height="30" as="geometry"/>
                </mxCell>
                <mxCell id="OFqDbIYOe_2my_a9MHT3-137" value="PK" style="shape=partialRectangle;connectable=0;fillColor=none;top=0;left=0;bottom=0;right=0;fontStyle=1;overflow=hidden;strokeColor=#C7C700;fontColor=#FFFFFF;labelBackgroundColor=none;rounded=0;strokeWidth=5;swimlaneLine=1;fixDash=0;snapToPoint=0;comic=0;enumerate=0;backgroundOutline=0;fontSize=25;labelBorderColor=none;perimeterSpacing=0;swimlaneFillColor=#000000;movable=0;resizable=0;rotatable=0;deletable=0;editable=0;spacingTop=0;spacingLeft=2;spacingRight=2;" parent="OFqDbIYOe_2my_a9MHT3-136" vertex="1">
                    <mxGeometry width="50" height="30" as="geometry">
                        <mxRectangle width="50" height="30" as="alternateBounds"/>
                    </mxGeometry>
                </mxCell>
                <mxCell id="OFqDbIYOe_2my_a9MHT3-138" value="TicketID" style="shape=partialRectangle;connectable=0;fillColor=none;top=0;left=0;bottom=0;right=0;align=left;spacingLeft=2;fontStyle=5;overflow=hidden;strokeColor=#C7C700;fontColor=#FFFFFF;labelBackgroundColor=none;rounded=0;strokeWidth=5;swimlaneLine=1;fixDash=0;snapToPoint=0;comic=0;enumerate=0;backgroundOutline=0;fontSize=25;labelBorderColor=none;perimeterSpacing=0;swimlaneFillColor=#000000;movable=0;resizable=0;rotatable=0;deletable=0;editable=0;spacingTop=0;spacingRight=2;" parent="OFqDbIYOe_2my_a9MHT3-136" vertex="1">
                    <mxGeometry x="50" width="150" height="30" as="geometry">
                        <mxRectangle width="150" height="30" as="alternateBounds"/>
                    </mxGeometry>
                </mxCell>
                <mxCell id="350" style="shape=tableRow;horizontal=0;startSize=0;swimlaneHead=0;swimlaneBody=0;fillColor=none;collapsible=0;dropTarget=0;points=[[0,0.5],[1,0.5]];portConstraint=eastwest;top=0;left=0;right=0;bottom=1;strokeColor=#C7C700;fontColor=#FFFFFF;labelBackgroundColor=none;rounded=0;strokeWidth=5;swimlaneLine=1;fixDash=0;snapToPoint=0;comic=0;enumerate=0;backgroundOutline=0;fontSize=25;labelBorderColor=none;perimeterSpacing=0;swimlaneFillColor=#000000;movable=0;resizable=0;rotatable=0;deletable=0;editable=0;connectable=0;spacingTop=0;spacingLeft=2;spacingRight=2;" parent="OFqDbIYOe_2my_a9MHT3-135" vertex="1">
                    <mxGeometry y="60" width="200" height="30" as="geometry"/>
                </mxCell>
                <mxCell id="351" value="FK" style="shape=partialRectangle;connectable=0;fillColor=none;top=0;left=0;bottom=0;right=0;fontStyle=1;overflow=hidden;strokeColor=#C7C700;fontColor=#FFFFFF;labelBackgroundColor=none;rounded=0;strokeWidth=5;swimlaneLine=1;fixDash=0;snapToPoint=0;comic=0;enumerate=0;backgroundOutline=0;fontSize=25;labelBorderColor=none;perimeterSpacing=0;swimlaneFillColor=#000000;movable=0;resizable=0;rotatable=0;deletable=0;editable=0;spacingTop=0;spacingLeft=2;spacingRight=2;" parent="350" vertex="1">
                    <mxGeometry width="50" height="30" as="geometry">
                        <mxRectangle width="50" height="30" as="alternateBounds"/>
                    </mxGeometry>
                </mxCell>
                <mxCell id="352" value="ConcertID" style="shape=partialRectangle;connectable=0;fillColor=none;top=0;left=0;bottom=0;right=0;align=left;spacingLeft=2;fontStyle=5;overflow=hidden;strokeColor=#C7C700;fontColor=#FFFFFF;labelBackgroundColor=none;rounded=0;strokeWidth=5;swimlaneLine=1;fixDash=0;snapToPoint=0;comic=0;enumerate=0;backgroundOutline=0;fontSize=25;labelBorderColor=none;perimeterSpacing=0;swimlaneFillColor=#000000;movable=0;resizable=0;rotatable=0;deletable=0;editable=0;spacingTop=0;spacingRight=2;" parent="350" vertex="1">
                    <mxGeometry x="50" width="150" height="30" as="geometry">
                        <mxRectangle width="150" height="30" as="alternateBounds"/>
                    </mxGeometry>
                </mxCell>
                <mxCell id="OFqDbIYOe_2my_a9MHT3-139" value="" style="shape=tableRow;horizontal=0;startSize=0;swimlaneHead=0;swimlaneBody=0;fillColor=none;collapsible=0;dropTarget=0;points=[[0,0.5],[1,0.5]];portConstraint=eastwest;top=0;left=0;right=0;bottom=0;strokeColor=#C7C700;fontColor=#FFFFFF;labelBackgroundColor=none;rounded=0;strokeWidth=5;swimlaneLine=1;fixDash=0;snapToPoint=0;comic=0;enumerate=0;backgroundOutline=0;fontSize=25;labelBorderColor=none;perimeterSpacing=0;swimlaneFillColor=#000000;movable=0;resizable=0;rotatable=0;deletable=0;editable=0;connectable=0;spacingTop=0;spacingLeft=2;spacingRight=2;" parent="OFqDbIYOe_2my_a9MHT3-135" vertex="1">
                    <mxGeometry y="90" width="200" height="30" as="geometry"/>
                </mxCell>
                <mxCell id="OFqDbIYOe_2my_a9MHT3-140" value="" style="shape=partialRectangle;connectable=0;fillColor=none;top=0;left=0;bottom=0;right=0;editable=0;overflow=hidden;strokeColor=#C7C700;fontColor=#FFFFFF;labelBackgroundColor=none;rounded=0;strokeWidth=5;swimlaneLine=1;fixDash=0;snapToPoint=0;comic=0;enumerate=0;backgroundOutline=0;fontSize=25;labelBorderColor=none;perimeterSpacing=0;swimlaneFillColor=#000000;movable=0;resizable=0;rotatable=0;deletable=0;spacingTop=0;spacingLeft=2;spacingRight=2;" parent="OFqDbIYOe_2my_a9MHT3-139" vertex="1">
                    <mxGeometry width="50" height="30" as="geometry">
                        <mxRectangle width="50" height="30" as="alternateBounds"/>
                    </mxGeometry>
                </mxCell>
                <mxCell id="OFqDbIYOe_2my_a9MHT3-141" value="isValid" style="shape=partialRectangle;connectable=0;fillColor=none;top=0;left=0;bottom=0;right=0;align=left;spacingLeft=2;overflow=hidden;strokeColor=#C7C700;fontColor=#FFFFFF;labelBackgroundColor=none;rounded=0;strokeWidth=5;swimlaneLine=1;fixDash=0;snapToPoint=0;comic=0;enumerate=0;backgroundOutline=0;fontSize=25;labelBorderColor=none;perimeterSpacing=0;swimlaneFillColor=#000000;movable=0;resizable=0;rotatable=0;deletable=0;editable=0;spacingTop=0;spacingRight=2;" parent="OFqDbIYOe_2my_a9MHT3-139" vertex="1">
                    <mxGeometry x="50" width="150" height="30" as="geometry">
                        <mxRectangle width="150" height="30" as="alternateBounds"/>
                    </mxGeometry>
                </mxCell>
                <mxCell id="447" style="edgeStyle=orthogonalEdgeStyle;shape=connector;rounded=1;comic=0;html=1;exitX=1;exitY=0.5;exitDx=0;exitDy=0;entryX=0.008;entryY=0.863;entryDx=0;entryDy=0;entryPerimeter=0;labelBackgroundColor=none;labelBorderColor=none;strokeColor=#C7C700;strokeWidth=5;fontFamily=Helvetica;fontSize=25;fontColor=#FFFFFF;endArrow=none;endFill=0;fillColor=#A8DADC;dashed=1;movable=0;resizable=0;rotatable=0;deletable=0;editable=0;connectable=0;" parent="1" source="OFqDbIYOe_2my_a9MHT3-146" target="449" edge="1">
                    <mxGeometry relative="1" as="geometry">
                        <mxPoint x="169.21000000000004" y="823.8800000000001" as="targetPoint"/>
                    </mxGeometry>
                </mxCell>
                <mxCell id="OFqDbIYOe_2my_a9MHT3-146" value="User_Tickets" style="rhombus;labelBackgroundColor=none;fillColor=#008a00;strokeColor=#C7C700;fontColor=#ffffff;rounded=0;strokeWidth=5;swimlaneLine=1;fixDash=0;snapToPoint=0;comic=0;enumerate=0;backgroundOutline=0;fontSize=25;labelBorderColor=none;perimeterSpacing=0;swimlaneFillColor=#000000;movable=0;resizable=0;rotatable=0;deletable=0;editable=0;connectable=0;spacingTop=0;spacingLeft=2;spacingRight=2;" parent="1" vertex="1">
                    <mxGeometry x="-187" y="866" width="163" height="40" as="geometry"/>
                </mxCell>
                <mxCell id="OFqDbIYOe_2my_a9MHT3-150" value="" style="endArrow=ERzeroToMany;strokeColor=#C7C700;fontColor=#FFFFFF;fillColor=#A8DADC;entryX=0;entryY=0.5;entryDx=0;entryDy=0;labelBackgroundColor=none;endFill=0;edgeStyle=orthogonalEdgeStyle;exitX=0.5;exitY=1;exitDx=0;exitDy=0;strokeWidth=5;swimlaneLine=1;fixDash=0;snapToPoint=0;comic=0;enumerate=0;backgroundOutline=0;fontSize=25;labelBorderColor=none;rounded=1;movable=0;resizable=0;rotatable=0;deletable=0;editable=0;connectable=0;spacingTop=0;spacingLeft=2;spacingRight=2;" parent="1" source="OFqDbIYOe_2my_a9MHT3-146" target="OFqDbIYOe_2my_a9MHT3-136" edge="1">
                    <mxGeometry width="50" height="50" relative="1" as="geometry">
                        <mxPoint x="720" y="1150" as="sourcePoint"/>
                        <mxPoint x="770" y="1100" as="targetPoint"/>
                    </mxGeometry>
                </mxCell>
                <mxCell id="OFqDbIYOe_2my_a9MHT3-172" value="playlist" style="shape=table;startSize=30;container=1;collapsible=1;childLayout=tableLayout;fixedRows=1;rowLines=0;fontStyle=1;align=center;resizeLast=1;strokeColor=#C7C700;fontColor=#ffffff;fillColor=#008a00;labelBackgroundColor=none;rounded=0;strokeWidth=5;swimlaneLine=1;fixDash=0;snapToPoint=0;comic=0;enumerate=0;backgroundOutline=0;fontSize=25;labelBorderColor=none;perimeterSpacing=0;swimlaneFillColor=#000000;movable=0;resizable=0;rotatable=0;deletable=0;editable=0;connectable=0;spacingTop=0;spacingLeft=2;spacingRight=2;" parent="1" vertex="1">
                    <mxGeometry x="955" y="265" width="200" height="160" as="geometry"/>
                </mxCell>
                <mxCell id="OFqDbIYOe_2my_a9MHT3-173" value="" style="shape=tableRow;horizontal=0;startSize=0;swimlaneHead=0;swimlaneBody=0;fillColor=none;collapsible=0;dropTarget=0;points=[[0,0.5],[1,0.5]];portConstraint=eastwest;top=0;left=0;right=0;bottom=1;strokeColor=#C7C700;fontColor=#FFFFFF;labelBackgroundColor=none;rounded=0;strokeWidth=5;swimlaneLine=1;fixDash=0;snapToPoint=0;comic=0;enumerate=0;backgroundOutline=0;fontSize=25;labelBorderColor=none;perimeterSpacing=0;swimlaneFillColor=#000000;movable=0;resizable=0;rotatable=0;deletable=0;editable=0;connectable=0;spacingTop=0;spacingLeft=2;spacingRight=2;" parent="OFqDbIYOe_2my_a9MHT3-172" vertex="1">
                    <mxGeometry y="30" width="200" height="35" as="geometry"/>
                </mxCell>
                <mxCell id="OFqDbIYOe_2my_a9MHT3-174" value="PK" style="shape=partialRectangle;connectable=0;fillColor=none;top=0;left=0;bottom=0;right=0;fontStyle=1;overflow=hidden;strokeColor=#C7C700;fontColor=#FFFFFF;labelBackgroundColor=none;rounded=0;strokeWidth=5;swimlaneLine=1;fixDash=0;snapToPoint=0;comic=0;enumerate=0;backgroundOutline=0;fontSize=25;labelBorderColor=none;perimeterSpacing=0;swimlaneFillColor=#000000;movable=0;resizable=0;rotatable=0;deletable=0;editable=0;spacingTop=0;spacingLeft=2;spacingRight=2;" parent="OFqDbIYOe_2my_a9MHT3-173" vertex="1">
                    <mxGeometry width="50" height="35" as="geometry">
                        <mxRectangle width="50" height="35" as="alternateBounds"/>
                    </mxGeometry>
                </mxCell>
                <mxCell id="OFqDbIYOe_2my_a9MHT3-175" value="PlaylistID" style="shape=partialRectangle;connectable=0;fillColor=none;top=0;left=0;bottom=0;right=0;align=left;spacingLeft=2;fontStyle=5;overflow=hidden;strokeColor=#C7C700;fontColor=#FFFFFF;labelBackgroundColor=none;rounded=0;strokeWidth=5;swimlaneLine=1;fixDash=0;snapToPoint=0;comic=0;enumerate=0;backgroundOutline=0;fontSize=25;labelBorderColor=none;perimeterSpacing=0;swimlaneFillColor=#000000;movable=0;resizable=0;rotatable=0;deletable=0;editable=0;spacingTop=0;spacingRight=2;" parent="OFqDbIYOe_2my_a9MHT3-173" vertex="1">
                    <mxGeometry x="50" width="150" height="35" as="geometry">
                        <mxRectangle width="150" height="35" as="alternateBounds"/>
                    </mxGeometry>
                </mxCell>
                <mxCell id="353" style="shape=tableRow;horizontal=0;startSize=0;swimlaneHead=0;swimlaneBody=0;fillColor=none;collapsible=0;dropTarget=0;points=[[0,0.5],[1,0.5]];portConstraint=eastwest;top=0;left=0;right=0;bottom=1;strokeColor=#C7C700;fontColor=#FFFFFF;labelBackgroundColor=none;rounded=0;strokeWidth=5;swimlaneLine=1;fixDash=0;snapToPoint=0;comic=0;enumerate=0;backgroundOutline=0;fontSize=25;labelBorderColor=none;perimeterSpacing=0;swimlaneFillColor=#000000;movable=0;resizable=0;rotatable=0;deletable=0;editable=0;connectable=0;spacingTop=0;spacingLeft=2;spacingRight=2;" parent="OFqDbIYOe_2my_a9MHT3-172" vertex="1">
                    <mxGeometry y="65" width="200" height="35" as="geometry"/>
                </mxCell>
                <mxCell id="354" value="FK" style="shape=partialRectangle;connectable=0;fillColor=none;top=0;left=0;bottom=0;right=0;fontStyle=1;overflow=hidden;strokeColor=#C7C700;fontColor=#FFFFFF;labelBackgroundColor=none;rounded=0;strokeWidth=5;swimlaneLine=1;fixDash=0;snapToPoint=0;comic=0;enumerate=0;backgroundOutline=0;fontSize=25;labelBorderColor=none;perimeterSpacing=0;swimlaneFillColor=#000000;movable=0;resizable=0;rotatable=0;deletable=0;editable=0;spacingTop=0;spacingLeft=2;spacingRight=2;" parent="353" vertex="1">
                    <mxGeometry width="50" height="35" as="geometry">
                        <mxRectangle width="50" height="35" as="alternateBounds"/>
                    </mxGeometry>
                </mxCell>
                <mxCell id="355" value="PremiumID" style="shape=partialRectangle;connectable=0;fillColor=none;top=0;left=0;bottom=0;right=0;align=left;spacingLeft=2;fontStyle=5;overflow=hidden;strokeColor=#C7C700;fontColor=#FFFFFF;labelBackgroundColor=none;rounded=0;strokeWidth=5;swimlaneLine=1;fixDash=0;snapToPoint=0;comic=0;enumerate=0;backgroundOutline=0;fontSize=25;labelBorderColor=none;perimeterSpacing=0;swimlaneFillColor=#000000;movable=0;resizable=0;rotatable=0;deletable=0;editable=0;spacingTop=0;spacingRight=2;" parent="353" vertex="1">
                    <mxGeometry x="50" width="150" height="35" as="geometry">
                        <mxRectangle width="150" height="35" as="alternateBounds"/>
                    </mxGeometry>
                </mxCell>
                <mxCell id="OFqDbIYOe_2my_a9MHT3-176" value="" style="shape=tableRow;horizontal=0;startSize=0;swimlaneHead=0;swimlaneBody=0;fillColor=none;collapsible=0;dropTarget=0;points=[[0,0.5],[1,0.5]];portConstraint=eastwest;top=0;left=0;right=0;bottom=0;strokeColor=#C7C700;fontColor=#FFFFFF;labelBackgroundColor=none;rounded=0;strokeWidth=5;swimlaneLine=1;fixDash=0;snapToPoint=0;comic=0;enumerate=0;backgroundOutline=0;fontSize=25;labelBorderColor=none;perimeterSpacing=0;swimlaneFillColor=#000000;movable=0;resizable=0;rotatable=0;deletable=0;editable=0;connectable=0;spacingTop=0;spacingLeft=2;spacingRight=2;" parent="OFqDbIYOe_2my_a9MHT3-172" vertex="1">
                    <mxGeometry y="100" width="200" height="30" as="geometry"/>
                </mxCell>
                <mxCell id="OFqDbIYOe_2my_a9MHT3-177" value="" style="shape=partialRectangle;connectable=0;fillColor=none;top=0;left=0;bottom=0;right=0;editable=0;overflow=hidden;strokeColor=#C7C700;fontColor=#FFFFFF;labelBackgroundColor=none;rounded=0;strokeWidth=5;swimlaneLine=1;fixDash=0;snapToPoint=0;comic=0;enumerate=0;backgroundOutline=0;fontSize=25;labelBorderColor=none;perimeterSpacing=0;swimlaneFillColor=#000000;movable=0;resizable=0;rotatable=0;deletable=0;spacingTop=0;spacingLeft=2;spacingRight=2;" parent="OFqDbIYOe_2my_a9MHT3-176" vertex="1">
                    <mxGeometry width="50" height="30" as="geometry">
                        <mxRectangle width="50" height="30" as="alternateBounds"/>
                    </mxGeometry>
                </mxCell>
                <mxCell id="OFqDbIYOe_2my_a9MHT3-178" value="name" style="shape=partialRectangle;connectable=0;fillColor=none;top=0;left=0;bottom=0;right=0;align=left;spacingLeft=2;overflow=hidden;strokeColor=#C7C700;fontColor=#FFFFFF;labelBackgroundColor=none;rounded=0;strokeWidth=5;swimlaneLine=1;fixDash=0;snapToPoint=0;comic=0;enumerate=0;backgroundOutline=0;fontSize=25;labelBorderColor=none;perimeterSpacing=0;swimlaneFillColor=#000000;movable=0;resizable=0;rotatable=0;deletable=0;editable=0;spacingTop=0;spacingRight=2;" parent="OFqDbIYOe_2my_a9MHT3-176" vertex="1">
                    <mxGeometry x="50" width="150" height="30" as="geometry">
                        <mxRectangle width="150" height="30" as="alternateBounds"/>
                    </mxGeometry>
                </mxCell>
                <mxCell id="07pzX-aF63wN3rvmMnTV-1" value="" style="shape=tableRow;horizontal=0;startSize=0;swimlaneHead=0;swimlaneBody=0;fillColor=none;collapsible=0;dropTarget=0;points=[[0,0.5],[1,0.5]];portConstraint=eastwest;top=0;left=0;right=0;bottom=0;strokeColor=#C7C700;fontColor=#FFFFFF;labelBackgroundColor=none;rounded=0;strokeWidth=5;swimlaneLine=1;fixDash=0;snapToPoint=0;comic=0;enumerate=0;backgroundOutline=0;fontSize=25;labelBorderColor=none;perimeterSpacing=0;swimlaneFillColor=#000000;movable=0;resizable=0;rotatable=0;deletable=0;editable=0;connectable=0;spacingTop=0;spacingLeft=2;spacingRight=2;" parent="OFqDbIYOe_2my_a9MHT3-172" vertex="1">
                    <mxGeometry y="130" width="200" height="30" as="geometry"/>
                </mxCell>
                <mxCell id="07pzX-aF63wN3rvmMnTV-2" value="" style="shape=partialRectangle;connectable=0;fillColor=none;top=0;left=0;bottom=0;right=0;editable=0;overflow=hidden;strokeColor=#C7C700;fontColor=#FFFFFF;labelBackgroundColor=none;rounded=0;strokeWidth=5;swimlaneLine=1;fixDash=0;snapToPoint=0;comic=0;enumerate=0;backgroundOutline=0;fontSize=25;labelBorderColor=none;perimeterSpacing=0;swimlaneFillColor=#000000;movable=0;resizable=0;rotatable=0;deletable=0;spacingTop=0;spacingLeft=2;spacingRight=2;" parent="07pzX-aF63wN3rvmMnTV-1" vertex="1">
                    <mxGeometry width="50" height="30" as="geometry">
                        <mxRectangle width="50" height="30" as="alternateBounds"/>
                    </mxGeometry>
                </mxCell>
                <mxCell id="07pzX-aF63wN3rvmMnTV-3" value="isPrivate" style="shape=partialRectangle;connectable=0;fillColor=none;top=0;left=0;bottom=0;right=0;align=left;spacingLeft=2;overflow=hidden;strokeColor=#C7C700;fontColor=#FFFFFF;labelBackgroundColor=none;rounded=0;strokeWidth=5;swimlaneLine=1;fixDash=0;snapToPoint=0;comic=0;enumerate=0;backgroundOutline=0;fontSize=25;labelBorderColor=none;perimeterSpacing=0;swimlaneFillColor=#000000;movable=0;resizable=0;rotatable=0;deletable=0;editable=0;spacingTop=0;spacingRight=2;" parent="07pzX-aF63wN3rvmMnTV-1" vertex="1">
                    <mxGeometry x="50" width="150" height="30" as="geometry">
                        <mxRectangle width="150" height="30" as="alternateBounds"/>
                    </mxGeometry>
                </mxCell>
                <mxCell id="261" style="edgeStyle=orthogonalEdgeStyle;html=1;exitX=1;exitY=0.5;exitDx=0;exitDy=0;entryX=0.25;entryY=0;entryDx=0;entryDy=0;fontFamily=Helvetica;fontSize=25;fontColor=#FFFFFF;startArrow=none;startFill=0;endArrow=ERzeroToMany;endFill=0;startSize=30;labelBackgroundColor=none;strokeColor=#C7C700;fillColor=#A8DADC;strokeWidth=5;comic=0;labelBorderColor=none;rounded=1;movable=0;resizable=0;rotatable=0;deletable=0;editable=0;connectable=0;spacingTop=0;spacingLeft=2;spacingRight=2;" parent="1" source="07pzX-aF63wN3rvmMnTV-7" target="259" edge="1">
                    <mxGeometry relative="1" as="geometry"/>
                </mxCell>
                <mxCell id="498" style="edgeStyle=orthogonalEdgeStyle;shape=connector;rounded=1;comic=0;html=1;exitX=0.5;exitY=0;exitDx=0;exitDy=0;labelBackgroundColor=none;labelBorderColor=none;strokeColor=#C7C700;strokeWidth=5;fontFamily=Helvetica;fontSize=25;fontColor=default;endArrow=none;endFill=0;fillColor=#A8DADC;dashed=1;entryX=0.999;entryY=0.076;entryDx=0;entryDy=0;entryPerimeter=0;movable=0;resizable=0;rotatable=0;deletable=0;editable=0;connectable=0;" parent="1" source="07pzX-aF63wN3rvmMnTV-7" target="634" edge="1">
                    <mxGeometry relative="1" as="geometry">
                        <mxPoint x="1334" y="-469" as="targetPoint"/>
                        <Array as="points">
                            <mxPoint x="883" y="17"/>
                            <mxPoint x="1375" y="17"/>
                            <mxPoint x="1375" y="-434"/>
                        </Array>
                    </mxGeometry>
                </mxCell>
                <mxCell id="07pzX-aF63wN3rvmMnTV-7" value="Favorite" style="rhombus;labelBackgroundColor=none;fillColor=#008a00;strokeColor=#C7C700;fontColor=#ffffff;rounded=0;strokeWidth=5;swimlaneLine=1;fixDash=0;snapToPoint=0;comic=0;enumerate=0;backgroundOutline=0;fontSize=25;labelBorderColor=none;perimeterSpacing=0;swimlaneFillColor=#000000;movable=0;resizable=0;rotatable=0;deletable=0;editable=0;connectable=0;spacingTop=0;spacingLeft=2;spacingRight=2;" parent="1" vertex="1">
                    <mxGeometry x="829" y="66" width="108" height="40" as="geometry"/>
                </mxCell>
                <mxCell id="07pzX-aF63wN3rvmMnTV-8" value="" style="endArrow=none;labelBackgroundColor=none;strokeColor=#C7C700;fontColor=#FFFFFF;startArrow=ERzeroToMany;startFill=0;edgeStyle=orthogonalEdgeStyle;entryX=0;entryY=0.5;entryDx=0;entryDy=0;exitX=0.75;exitY=0;exitDx=0;exitDy=0;strokeWidth=5;swimlaneLine=1;fixDash=0;snapToPoint=0;comic=0;enumerate=0;backgroundOutline=0;fontSize=25;labelBorderColor=none;rounded=1;movable=0;resizable=0;rotatable=0;deletable=0;editable=0;connectable=0;spacingTop=0;spacingLeft=2;spacingRight=2;" parent="1" source="286" target="07pzX-aF63wN3rvmMnTV-7" edge="1">
                    <mxGeometry width="50" height="50" relative="1" as="geometry">
                        <mxPoint x="26.5" y="423" as="sourcePoint"/>
                        <mxPoint x="930" y="300" as="targetPoint"/>
                    </mxGeometry>
                </mxCell>
                <mxCell id="07pzX-aF63wN3rvmMnTV-11" value="" style="endArrow=ERzeroToMany;strokeColor=#C7C700;fontColor=#FFFFFF;fillColor=#A8DADC;labelBackgroundColor=none;exitX=0;exitY=0.5;exitDx=0;exitDy=0;edgeStyle=orthogonalEdgeStyle;endFill=0;strokeWidth=5;swimlaneLine=1;fixDash=0;snapToPoint=0;comic=0;enumerate=0;backgroundOutline=0;fontSize=25;labelBorderColor=none;rounded=1;movable=0;resizable=0;rotatable=0;deletable=0;editable=0;connectable=0;spacingTop=0;spacingLeft=2;spacingRight=2;entryX=1;entryY=0.5;entryDx=0;entryDy=0;" parent="1" source="88" target="OFqDbIYOe_2my_a9MHT3-175" edge="1">
                    <mxGeometry width="50" height="50" relative="1" as="geometry">
                        <mxPoint x="1302" y="458" as="sourcePoint"/>
                        <mxPoint x="1131" y="312" as="targetPoint"/>
                    </mxGeometry>
                </mxCell>
                <mxCell id="07pzX-aF63wN3rvmMnTV-12" value="" style="endArrow=none;strokeColor=#C7C700;fontColor=#FFFFFF;fillColor=#A8DADC;exitX=0;exitY=0.5;exitDx=0;exitDy=0;labelBackgroundColor=none;entryX=1;entryY=0.5;entryDx=0;entryDy=0;edgeStyle=orthogonalEdgeStyle;endFill=0;startArrow=ERoneToMany;startFill=0;strokeWidth=5;swimlaneLine=1;fixDash=0;snapToPoint=0;comic=0;enumerate=0;backgroundOutline=0;fontSize=25;labelBorderColor=none;rounded=1;movable=0;resizable=0;rotatable=0;deletable=0;editable=0;connectable=0;spacingTop=0;spacingLeft=2;spacingRight=2;" parent="1" source="OFqDbIYOe_2my_a9MHT3-63" target="88" edge="1">
                    <mxGeometry width="50" height="50" relative="1" as="geometry">
                        <mxPoint x="1251" y="566" as="sourcePoint"/>
                        <mxPoint x="1302" y="483" as="targetPoint"/>
                    </mxGeometry>
                </mxCell>
                <mxCell id="07pzX-aF63wN3rvmMnTV-15" value="" style="endArrow=ERmandOne;strokeColor=#C7C700;fontColor=#FFFFFF;fillColor=#A8DADC;labelBackgroundColor=none;edgeStyle=orthogonalEdgeStyle;endFill=0;exitX=0;exitY=0.5;exitDx=0;exitDy=0;entryX=1;entryY=0.25;entryDx=0;entryDy=0;strokeWidth=5;swimlaneLine=1;fixDash=0;snapToPoint=0;comic=0;enumerate=0;backgroundOutline=0;fontSize=25;labelBorderColor=none;rounded=1;movable=0;resizable=0;rotatable=0;deletable=0;editable=0;connectable=0;spacingTop=0;spacingLeft=2;spacingRight=2;" parent="1" source="59" target="332" edge="1">
                    <mxGeometry width="50" height="50" relative="1" as="geometry">
                        <mxPoint x="1406" y="557" as="sourcePoint"/>
                        <mxPoint x="1353" y="881" as="targetPoint"/>
                    </mxGeometry>
                </mxCell>
                <mxCell id="07pzX-aF63wN3rvmMnTV-16" value="" style="endArrow=ERmandOne;strokeColor=#C7C700;fontColor=#FFFFFF;fillColor=#A8DADC;exitX=1;exitY=0.5;exitDx=0;exitDy=0;labelBackgroundColor=none;edgeStyle=orthogonalEdgeStyle;startArrow=none;startFill=0;endFill=0;strokeWidth=5;swimlaneLine=1;fixDash=0;snapToPoint=0;comic=0;enumerate=0;backgroundOutline=0;fontSize=25;labelBorderColor=none;entryX=0;entryY=0.5;entryDx=0;entryDy=0;rounded=1;movable=0;resizable=0;rotatable=0;deletable=0;editable=0;connectable=0;spacingTop=0;spacingLeft=2;spacingRight=2;" parent="1" source="37" target="331" edge="1">
                    <mxGeometry width="50" height="50" relative="1" as="geometry">
                        <mxPoint x="1460" y="869.9999999999998" as="sourcePoint"/>
                        <mxPoint x="1265" y="1126" as="targetPoint"/>
                    </mxGeometry>
                </mxCell>
                <mxCell id="07pzX-aF63wN3rvmMnTV-17" value="" style="endArrow=ERzeroToMany;strokeColor=#C7C700;fontColor=#FFFFFF;fillColor=#A8DADC;exitX=0.5;exitY=0;exitDx=0;exitDy=0;labelBackgroundColor=none;endFill=0;strokeWidth=5;swimlaneLine=1;fixDash=0;snapToPoint=0;comic=0;enumerate=0;backgroundOutline=0;fontSize=25;labelBorderColor=none;edgeStyle=orthogonalEdgeStyle;rounded=1;movable=0;resizable=0;rotatable=0;deletable=0;editable=0;connectable=0;spacingTop=0;spacingLeft=2;spacingRight=2;" parent="1" source="OFqDbIYOe_2my_a9MHT3-146" edge="1">
                    <mxGeometry width="50" height="50" relative="1" as="geometry">
                        <mxPoint x="650" y="1100" as="sourcePoint"/>
                        <mxPoint x="-107" y="710" as="targetPoint"/>
                    </mxGeometry>
                </mxCell>
                <mxCell id="6" value="" style="exitX=1;exitY=0.5;exitDx=0;exitDy=0;fillColor=#1ba1e2;strokeColor=#C7C700;fontColor=#FFFFFF;endArrow=classic;endFill=1;edgeStyle=orthogonalEdgeStyle;strokeWidth=5;swimlaneLine=1;fixDash=0;snapToPoint=0;comic=0;enumerate=0;backgroundOutline=0;fontSize=25;labelBackgroundColor=none;labelBorderColor=none;entryX=0;entryY=0.5;entryDx=0;entryDy=0;rounded=1;movable=0;resizable=0;rotatable=0;deletable=0;editable=0;connectable=0;spacingTop=0;spacingLeft=2;spacingRight=2;" parent="1" source="VhpyAEORnqDmUM4WeILP-8" target="fZQeGDUFqkQw0Y8u2uUr-2" edge="1">
                    <mxGeometry relative="1" as="geometry">
                        <mxPoint x="539" y="583" as="targetPoint"/>
                    </mxGeometry>
                </mxCell>
                <mxCell id="VhpyAEORnqDmUM4WeILP-8" value="is_premium" style="ellipse;strokeColor=#C7C700;fontColor=#ffffff;fillColor=#008a00;rounded=0;strokeWidth=5;swimlaneLine=1;fixDash=0;snapToPoint=0;comic=0;enumerate=0;backgroundOutline=0;fontSize=25;labelBackgroundColor=none;labelBorderColor=none;perimeterSpacing=0;swimlaneFillColor=#000000;movable=0;resizable=0;rotatable=0;deletable=0;editable=0;connectable=0;spacingTop=0;spacingLeft=2;spacingRight=2;" parent="1" vertex="1">
                    <mxGeometry x="279" y="561" width="147" height="42" as="geometry"/>
                </mxCell>
                <mxCell id="VhpyAEORnqDmUM4WeILP-9" value="" style="endArrow=none;strokeColor=#C7C700;fontColor=#FFFFFF;fillColor=#A8DADC;entryX=0;entryY=0.5;entryDx=0;entryDy=0;edgeStyle=orthogonalEdgeStyle;strokeWidth=5;swimlaneLine=1;fixDash=0;snapToPoint=0;comic=0;enumerate=0;backgroundOutline=0;fontSize=25;labelBackgroundColor=none;labelBorderColor=none;rounded=1;movable=0;resizable=0;rotatable=0;deletable=0;editable=0;connectable=0;spacingTop=0;spacingLeft=2;spacingRight=2;" parent="1" target="VhpyAEORnqDmUM4WeILP-8" edge="1">
                    <mxGeometry width="50" height="50" relative="1" as="geometry">
                        <mxPoint x="63" y="582" as="sourcePoint"/>
                        <mxPoint x="340" y="537.5" as="targetPoint"/>
                    </mxGeometry>
                </mxCell>
                <mxCell id="93" value="" style="edgeStyle=orthogonalEdgeStyle;shape=connector;exitX=0;exitY=0.5;exitDx=0;exitDy=0;labelBackgroundColor=none;strokeColor=#C7C700;fontFamily=Helvetica;fontSize=25;fontColor=#FFFFFF;startArrow=none;startFill=0;endArrow=ERzeroToMany;endFill=0;fillColor=#A8DADC;entryX=0.5;entryY=0;entryDx=0;entryDy=0;strokeWidth=5;swimlaneLine=1;fixDash=0;snapToPoint=0;comic=0;enumerate=0;backgroundOutline=0;labelBorderColor=none;rounded=1;movable=0;resizable=0;rotatable=0;deletable=0;editable=0;connectable=0;spacingTop=0;spacingLeft=2;spacingRight=2;" parent="1" source="VhpyAEORnqDmUM4WeILP-13" target="286" edge="1">
                    <mxGeometry relative="1" as="geometry">
                        <mxPoint x="-143" y="423" as="targetPoint"/>
                    </mxGeometry>
                </mxCell>
                <mxCell id="262" style="edgeStyle=orthogonalEdgeStyle;html=1;exitX=1;exitY=0.5;exitDx=0;exitDy=0;entryX=0.5;entryY=0;entryDx=0;entryDy=0;fontFamily=Helvetica;fontSize=25;fontColor=#FFFFFF;startArrow=none;startFill=0;endArrow=ERzeroToMany;endFill=0;startSize=30;labelBackgroundColor=none;strokeColor=#C7C700;fillColor=#A8DADC;strokeWidth=5;comic=0;labelBorderColor=none;rounded=1;movable=0;resizable=0;rotatable=0;deletable=0;editable=0;connectable=0;spacingTop=0;spacingLeft=2;spacingRight=2;" parent="1" source="VhpyAEORnqDmUM4WeILP-13" target="259" edge="1">
                    <mxGeometry relative="1" as="geometry"/>
                </mxCell>
                <mxCell id="497" style="edgeStyle=orthogonalEdgeStyle;shape=connector;rounded=1;comic=0;html=1;exitX=0.5;exitY=0;exitDx=0;exitDy=0;labelBackgroundColor=none;labelBorderColor=none;strokeColor=#C7C700;strokeWidth=5;fontFamily=Helvetica;fontSize=25;fontColor=default;endArrow=none;endFill=0;fillColor=#A8DADC;dashed=1;entryX=1.011;entryY=0.066;entryDx=0;entryDy=0;entryPerimeter=0;movable=0;resizable=0;rotatable=0;deletable=0;editable=0;connectable=0;" parent="1" source="VhpyAEORnqDmUM4WeILP-13" target="615" edge="1">
                    <mxGeometry relative="1" as="geometry">
                        <mxPoint x="999" y="-468" as="targetPoint"/>
                        <Array as="points">
                            <mxPoint x="887" y="-92"/>
                            <mxPoint x="1023" y="-92"/>
                            <mxPoint x="1023" y="-436"/>
                        </Array>
                    </mxGeometry>
                </mxCell>
                <mxCell id="VhpyAEORnqDmUM4WeILP-13" value="likes" style="rhombus;labelBackgroundColor=none;fillColor=#008a00;strokeColor=#C7C700;fontColor=#ffffff;rounded=0;strokeWidth=5;swimlaneLine=1;fixDash=0;snapToPoint=0;comic=0;enumerate=0;backgroundOutline=0;fontSize=25;labelBorderColor=none;perimeterSpacing=0;swimlaneFillColor=#000000;movable=0;resizable=0;rotatable=0;deletable=0;editable=0;connectable=0;spacingTop=0;spacingLeft=2;spacingRight=2;" parent="1" vertex="1">
                    <mxGeometry x="853" y="-64" width="68" height="40" as="geometry"/>
                </mxCell>
                <mxCell id="94" value="" style="edgeStyle=orthogonalEdgeStyle;shape=connector;exitX=0;exitY=0.5;exitDx=0;exitDy=0;labelBackgroundColor=none;strokeColor=#C7C700;fontFamily=Helvetica;fontSize=25;fontColor=#FFFFFF;startArrow=none;startFill=0;endArrow=ERzeroToMany;endFill=0;fillColor=#A8DADC;strokeWidth=5;swimlaneLine=1;fixDash=0;snapToPoint=0;comic=0;enumerate=0;backgroundOutline=0;labelBorderColor=none;rounded=1;movable=0;resizable=0;rotatable=0;deletable=0;editable=0;connectable=0;spacingTop=0;spacingLeft=2;spacingRight=2;" parent="1" source="VhpyAEORnqDmUM4WeILP-22" edge="1">
                    <mxGeometry relative="1" as="geometry">
                        <mxPoint x="-312" y="440" as="targetPoint"/>
                    </mxGeometry>
                </mxCell>
                <mxCell id="263" style="edgeStyle=orthogonalEdgeStyle;html=1;exitX=1;exitY=0.5;exitDx=0;exitDy=0;entryX=0.75;entryY=0;entryDx=0;entryDy=0;fontFamily=Helvetica;fontSize=25;fontColor=#FFFFFF;startArrow=none;startFill=0;endArrow=ERzeroToMany;endFill=0;startSize=30;strokeColor=#C7C700;strokeWidth=5;labelBackgroundColor=none;fillColor=#A8DADC;comic=0;labelBorderColor=none;rounded=1;movable=0;resizable=0;rotatable=0;deletable=0;editable=0;connectable=0;spacingTop=0;spacingLeft=2;spacingRight=2;" parent="1" source="VhpyAEORnqDmUM4WeILP-22" target="259" edge="1">
                    <mxGeometry relative="1" as="geometry"/>
                </mxCell>
                <mxCell id="496" style="edgeStyle=orthogonalEdgeStyle;shape=connector;rounded=1;comic=0;html=1;exitX=0.5;exitY=0;exitDx=0;exitDy=0;labelBackgroundColor=none;labelBorderColor=none;strokeColor=#C7C700;strokeWidth=5;fontFamily=Helvetica;fontSize=25;fontColor=default;endArrow=none;endFill=0;fillColor=#A8DADC;dashed=1;entryX=0.999;entryY=0.12;entryDx=0;entryDy=0;entryPerimeter=0;movable=0;resizable=0;rotatable=0;deletable=0;editable=0;connectable=0;" parent="1" source="VhpyAEORnqDmUM4WeILP-22" target="489" edge="1">
                    <mxGeometry relative="1" as="geometry">
                        <Array as="points">
                            <mxPoint x="880" y="-212"/>
                            <mxPoint x="636" y="-212"/>
                            <mxPoint x="636" y="-432"/>
                            <mxPoint x="550" y="-432"/>
                        </Array>
                    </mxGeometry>
                </mxCell>
                <mxCell id="VhpyAEORnqDmUM4WeILP-22" value="Comments" style="rhombus;labelBackgroundColor=none;fillColor=#008a00;strokeColor=#C7C700;fontColor=#ffffff;rounded=0;strokeWidth=5;swimlaneLine=1;fixDash=0;snapToPoint=0;comic=0;enumerate=0;backgroundOutline=0;fontSize=25;labelBorderColor=none;perimeterSpacing=0;swimlaneFillColor=#000000;movable=0;resizable=0;rotatable=0;deletable=0;editable=0;connectable=0;fontStyle=0;spacingTop=0;spacingLeft=2;spacingRight=2;" parent="1" vertex="1">
                    <mxGeometry x="811" y="-184" width="139" height="40" as="geometry"/>
                </mxCell>
                <mxCell id="18" value="" style="endArrow=classic;endSize=8;startSize=8;sourcePerimeterSpacing=0;targetPerimeterSpacing=0;fontColor=#FFFFFF;exitX=0.393;exitY=1.019;exitDx=0;exitDy=0;fillColor=#008a00;strokeColor=#C7C700;exitPerimeter=0;edgeStyle=orthogonalEdgeStyle;strokeWidth=5;swimlaneLine=1;fixDash=0;snapToPoint=0;comic=0;enumerate=0;backgroundOutline=0;fontSize=25;labelBackgroundColor=none;labelBorderColor=none;rounded=1;movable=0;resizable=0;rotatable=0;deletable=0;editable=0;connectable=0;spacingTop=0;spacingLeft=2;spacingRight=2;" parent="1" source="OFqDbIYOe_2my_a9MHT3-50" edge="1">
                    <mxGeometry width="100" relative="1" as="geometry">
                        <mxPoint x="1171" y="779" as="sourcePoint"/>
                        <mxPoint x="-312" y="702" as="targetPoint"/>
                        <Array as="points">
                            <mxPoint x="1343" y="1338"/>
                            <mxPoint x="-312" y="1338"/>
                        </Array>
                    </mxGeometry>
                </mxCell>
                <mxCell id="31" value="" style="edgeStyle=orthogonalEdgeStyle;shape=connector;exitX=1;exitY=0.5;exitDx=0;exitDy=0;entryX=0;entryY=0.5;entryDx=0;entryDy=0;labelBackgroundColor=none;strokeColor=#C7C700;fontFamily=Helvetica;fontSize=25;fontColor=#FFFFFF;endArrow=ERzeroToMany;fillColor=#A8DADC;endFill=0;strokeWidth=5;swimlaneLine=1;fixDash=0;snapToPoint=0;comic=0;enumerate=0;backgroundOutline=0;labelBorderColor=none;rounded=1;movable=0;resizable=0;rotatable=0;deletable=0;editable=0;connectable=0;spacingTop=0;spacingLeft=2;spacingRight=2;startArrow=none;" parent="1" source="402" target="OFqDbIYOe_2my_a9MHT3-173" edge="1">
                    <mxGeometry relative="1" as="geometry"/>
                </mxCell>
                <mxCell id="32" value="" style="edgeStyle=orthogonalEdgeStyle;shape=connector;exitX=0;exitY=0.5;exitDx=0;exitDy=0;labelBackgroundColor=none;strokeColor=#C7C700;fontFamily=Helvetica;fontSize=25;fontColor=#FFFFFF;endArrow=ERone;fillColor=#A8DADC;endFill=0;targetPerimeterSpacing=0;strokeWidth=5;entryX=1;entryY=0.5;entryDx=0;entryDy=0;swimlaneLine=1;fixDash=0;snapToPoint=0;comic=0;enumerate=0;backgroundOutline=0;labelBorderColor=none;rounded=1;movable=0;resizable=0;rotatable=0;deletable=0;editable=0;connectable=0;spacingTop=0;spacingLeft=2;spacingRight=2;" parent="1" source="402" target="287" edge="1">
                    <mxGeometry relative="1" as="geometry">
                        <mxPoint x="196" y="502.25" as="targetPoint"/>
                        <mxPoint x="543" y="313.9999999999998" as="sourcePoint"/>
                    </mxGeometry>
                </mxCell>
                <mxCell id="37" value="has" style="shape=rhombus;double=1;perimeter=rhombusPerimeter;align=center;rounded=0;labelBackgroundColor=none;strokeColor=#C7C700;fontFamily=Helvetica;fontSize=25;fontColor=#FFFFFF;fillColor=#008a00;gradientColor=none;strokeWidth=5;swimlaneLine=1;fixDash=0;snapToPoint=0;comic=0;enumerate=0;backgroundOutline=0;labelBorderColor=none;perimeterSpacing=0;swimlaneFillColor=#000000;movable=0;resizable=0;rotatable=0;deletable=0;editable=0;connectable=0;spacingTop=0;spacingLeft=2;spacingRight=2;" parent="1" vertex="1">
                    <mxGeometry x="1040" y="1127" width="58" height="42" as="geometry"/>
                </mxCell>
                <mxCell id="59" value="has" style="shape=rhombus;double=1;perimeter=rhombusPerimeter;align=center;rounded=0;labelBackgroundColor=none;strokeColor=#C7C700;fontFamily=Helvetica;fontSize=25;fontColor=#FFFFFF;fillColor=#008a00;gradientColor=none;strokeWidth=5;swimlaneLine=1;fixDash=0;snapToPoint=0;comic=0;enumerate=0;backgroundOutline=0;labelBorderColor=none;perimeterSpacing=0;swimlaneFillColor=#000000;movable=0;resizable=0;rotatable=0;deletable=0;editable=0;connectable=0;spacingTop=0;spacingLeft=2;spacingRight=2;" parent="1" vertex="1">
                    <mxGeometry x="1932" y="1089" width="58" height="42" as="geometry"/>
                </mxCell>
                <mxCell id="64" value="has" style="shape=rhombus;double=1;perimeter=rhombusPerimeter;align=center;rounded=0;labelBackgroundColor=none;strokeColor=#C7C700;fontFamily=Helvetica;fontSize=25;fontColor=#FFFFFF;fillColor=#008a00;gradientColor=none;strokeWidth=5;swimlaneLine=1;fixDash=0;snapToPoint=0;comic=0;enumerate=0;backgroundOutline=0;labelBorderColor=none;perimeterSpacing=0;swimlaneFillColor=#000000;movable=0;resizable=0;rotatable=0;deletable=0;editable=0;connectable=0;spacingTop=0;spacingLeft=2;spacingRight=2;" parent="1" vertex="1">
                    <mxGeometry x="1485" y="800" width="58" height="42" as="geometry"/>
                </mxCell>
                <mxCell id="69" value="" style="edgeStyle=orthogonalEdgeStyle;fontSize=25;endArrow=ERzeroToMany;endFill=0;labelBackgroundColor=none;strokeColor=#C7C700;fontFamily=Helvetica;fontColor=#FFFFFF;fillColor=#A8DADC;shape=connector;exitX=0;exitY=0.5;exitDx=0;exitDy=0;entryX=1;entryY=0.25;entryDx=0;entryDy=0;strokeWidth=5;swimlaneLine=1;fixDash=0;snapToPoint=0;comic=0;enumerate=0;backgroundOutline=0;labelBorderColor=none;rounded=1;movable=0;resizable=0;rotatable=0;deletable=0;editable=0;connectable=0;spacingTop=0;spacingLeft=2;spacingRight=2;" parent="1" source="37" target="349" edge="1">
                    <mxGeometry width="100" height="100" relative="1" as="geometry">
                        <mxPoint x="1503" y="817" as="sourcePoint"/>
                        <mxPoint x="1603" y="717" as="targetPoint"/>
                    </mxGeometry>
                </mxCell>
                <mxCell id="70" value="" style="edgeStyle=orthogonalEdgeStyle;fontSize=25;endArrow=ERzeroToMany;endFill=0;labelBackgroundColor=none;strokeColor=#C7C700;fontFamily=Helvetica;fontColor=#FFFFFF;fillColor=#A8DADC;shape=connector;exitX=1;exitY=0.5;exitDx=0;exitDy=0;strokeWidth=5;swimlaneLine=1;fixDash=0;snapToPoint=0;comic=0;enumerate=0;backgroundOutline=0;labelBorderColor=none;entryX=1;entryY=0.5;entryDx=0;entryDy=0;rounded=1;movable=0;resizable=0;rotatable=0;deletable=0;editable=0;connectable=0;spacingTop=0;spacingLeft=2;spacingRight=2;" parent="1" source="64" target="339" edge="1">
                    <mxGeometry width="100" height="100" relative="1" as="geometry">
                        <mxPoint x="1422" y="791" as="sourcePoint"/>
                        <mxPoint x="1522" y="691" as="targetPoint"/>
                        <Array as="points">
                            <mxPoint x="1751" y="821"/>
                            <mxPoint x="1751" y="383"/>
                        </Array>
                    </mxGeometry>
                </mxCell>
                <mxCell id="71" value="" style="fontSize=25;endArrow=ERzeroToMany;endFill=0;labelBackgroundColor=none;strokeColor=#C7C700;fontFamily=Helvetica;fontColor=#FFFFFF;fillColor=#A8DADC;shape=connector;strokeWidth=5;swimlaneLine=1;fixDash=0;snapToPoint=0;comic=0;enumerate=0;backgroundOutline=0;labelBorderColor=none;edgeStyle=orthogonalEdgeStyle;rounded=1;movable=0;resizable=0;rotatable=0;deletable=0;editable=0;connectable=0;spacingTop=0;spacingLeft=2;spacingRight=2;exitX=1;exitY=0.5;exitDx=0;exitDy=0;entryX=1;entryY=0.5;entryDx=0;entryDy=0;" parent="1" source="59" target="336" edge="1">
                    <mxGeometry width="100" height="100" relative="1" as="geometry">
                        <mxPoint x="1903" y="1056" as="sourcePoint"/>
                        <mxPoint x="2054" y="340" as="targetPoint"/>
                        <Array as="points">
                            <mxPoint x="2257" y="1110"/>
                            <mxPoint x="2257" y="340"/>
                        </Array>
                    </mxGeometry>
                </mxCell>
                <mxCell id="76" value="" style="edgeStyle=orthogonalEdgeStyle;shape=connector;exitX=0;exitY=0.5;exitDx=0;exitDy=0;labelBackgroundColor=none;strokeColor=#C7C700;fontFamily=Helvetica;fontSize=25;fontColor=#FFFFFF;startArrow=none;startFill=0;endArrow=ERoneToMany;endFill=0;fillColor=#A8DADC;entryX=1;entryY=0.5;entryDx=0;entryDy=0;strokeWidth=5;swimlaneLine=1;fixDash=0;snapToPoint=0;comic=0;enumerate=0;backgroundOutline=0;labelBorderColor=none;rounded=1;movable=0;resizable=0;rotatable=0;deletable=0;editable=0;connectable=0;spacingTop=0;spacingLeft=2;spacingRight=2;" parent="1" source="472" target="345" edge="1">
                    <mxGeometry relative="1" as="geometry">
                        <mxPoint x="1483.7999267578125" y="723.199951171875" as="targetPoint"/>
                        <mxPoint x="1715" y="313" as="sourcePoint"/>
                    </mxGeometry>
                </mxCell>
                <mxCell id="78" value="" style="fontSize=25;endArrow=ERzeroToOne;endFill=0;labelBackgroundColor=none;strokeColor=#C7C700;fontFamily=Helvetica;fontColor=#FFFFFF;fillColor=#A8DADC;shape=connector;strokeWidth=5;swimlaneLine=1;fixDash=0;snapToPoint=0;comic=0;enumerate=0;backgroundOutline=0;labelBorderColor=none;edgeStyle=orthogonalEdgeStyle;rounded=1;movable=0;resizable=0;rotatable=0;deletable=0;editable=0;connectable=0;spacingTop=0;spacingLeft=2;spacingRight=2;exitX=1;exitY=0.5;exitDx=0;exitDy=0;" parent="1" source="472" edge="1">
                    <mxGeometry width="100" height="100" relative="1" as="geometry">
                        <mxPoint x="1776" y="313" as="sourcePoint"/>
                        <mxPoint x="1857" y="313" as="targetPoint"/>
                    </mxGeometry>
                </mxCell>
                <mxCell id="81" value="" style="edgeStyle=orthogonalEdgeStyle;shape=connector;exitX=0;exitY=0.5;exitDx=0;exitDy=0;entryX=1;entryY=0.5;entryDx=0;entryDy=0;labelBackgroundColor=none;strokeColor=#C7C700;fontFamily=Helvetica;fontSize=25;fontColor=#FFFFFF;startArrow=none;startFill=0;endArrow=ERmandOne;endFill=0;fillColor=#A8DADC;strokeWidth=5;swimlaneLine=1;fixDash=0;snapToPoint=0;comic=0;enumerate=0;backgroundOutline=0;labelBorderColor=none;rounded=1;movable=0;resizable=0;rotatable=0;deletable=0;editable=0;connectable=0;spacingTop=0;spacingLeft=2;spacingRight=2;" parent="1" source="79" target="352" edge="1">
                    <mxGeometry relative="1" as="geometry"/>
                </mxCell>
                <mxCell id="79" value="has" style="shape=rhombus;double=1;perimeter=rhombusPerimeter;align=center;rounded=0;labelBackgroundColor=none;strokeColor=#C7C700;fontFamily=Helvetica;fontSize=25;fontColor=#FFFFFF;fillColor=#008a00;gradientColor=none;strokeWidth=5;swimlaneLine=1;fixDash=0;snapToPoint=0;comic=0;enumerate=0;backgroundOutline=0;labelBorderColor=none;perimeterSpacing=0;swimlaneFillColor=#000000;movable=0;resizable=0;rotatable=0;deletable=0;editable=0;connectable=0;spacingTop=0;spacingLeft=2;spacingRight=2;" parent="1" vertex="1">
                    <mxGeometry x="451" y="1104" width="58" height="42" as="geometry"/>
                </mxCell>
                <mxCell id="80" value="" style="edgeStyle=orthogonalEdgeStyle;shape=connector;exitX=0;exitY=0.5;exitDx=0;exitDy=0;entryX=1;entryY=0.5;entryDx=0;entryDy=0;labelBackgroundColor=none;strokeColor=#C7C700;fontFamily=Helvetica;fontSize=25;fontColor=#FFFFFF;startArrow=ERmandOne;startFill=0;endArrow=none;endFill=0;fillColor=#A8DADC;strokeWidth=5;swimlaneLine=1;fixDash=0;snapToPoint=0;comic=0;enumerate=0;backgroundOutline=0;labelBorderColor=none;rounded=1;movable=0;resizable=0;rotatable=0;deletable=0;editable=0;connectable=0;spacingTop=0;spacingLeft=2;spacingRight=2;" parent="1" source="OFqDbIYOe_2my_a9MHT3-82" target="79" edge="1">
                    <mxGeometry relative="1" as="geometry"/>
                </mxCell>
                <mxCell id="388" style="edgeStyle=orthogonalEdgeStyle;shape=connector;rounded=1;comic=0;html=1;exitX=0.5;exitY=1;exitDx=0;exitDy=0;entryX=0.5;entryY=0;entryDx=0;entryDy=0;labelBackgroundColor=none;labelBorderColor=none;strokeColor=#C7C700;strokeWidth=5;fontFamily=Helvetica;fontSize=25;fontColor=#FFFFFF;endArrow=none;endFill=0;targetPerimeterSpacing=0;fillColor=#A8DADC;dashed=1;movable=0;resizable=0;rotatable=0;deletable=0;editable=0;connectable=0;" parent="1" source="88" target="465" edge="1">
                    <mxGeometry relative="1" as="geometry">
                        <mxPoint x="1237" y="454" as="targetPoint"/>
                    </mxGeometry>
                </mxCell>
                <mxCell id="88" value="Playlist_Songs" style="shape=rhombus;perimeter=rhombusPerimeter;align=center;rounded=0;labelBackgroundColor=none;strokeColor=#C7C700;fontFamily=Helvetica;fontSize=25;fontColor=#FFFFFF;fillColor=#008a00;gradientColor=none;strokeWidth=5;swimlaneLine=1;fixDash=0;snapToPoint=0;comic=0;enumerate=0;backgroundOutline=0;labelBorderColor=none;perimeterSpacing=0;swimlaneFillColor=#000000;movable=0;resizable=0;rotatable=0;deletable=0;editable=0;connectable=0;spacingTop=0;spacingLeft=2;spacingRight=2;" parent="1" vertex="1">
                    <mxGeometry x="1219" y="292" width="182" height="42" as="geometry"/>
                </mxCell>
                <mxCell id="265" value="" style="endArrow=none;labelBackgroundColor=none;strokeColor=#C7C700;fontColor=#FFFFFF;edgeStyle=orthogonalEdgeStyle;endFill=0;exitX=1;exitY=0.5;exitDx=0;exitDy=0;strokeWidth=5;swimlaneLine=1;fixDash=0;snapToPoint=0;comic=0;enumerate=0;backgroundOutline=0;fontSize=25;labelBorderColor=none;entryX=0;entryY=0.5;entryDx=0;entryDy=0;rounded=1;movable=0;resizable=0;rotatable=0;deletable=0;editable=0;connectable=0;spacingTop=0;spacingLeft=2;spacingRight=2;" parent="1" source="OFqDbIYOe_2my_a9MHT3-11" target="OFqDbIYOe_2my_a9MHT3-18" edge="1">
                    <mxGeometry width="50" height="50" relative="1" as="geometry">
                        <mxPoint x="-756.5" y="631" as="sourcePoint"/>
                        <mxPoint x="-482" y="660.7500000000002" as="targetPoint"/>
                    </mxGeometry>
                </mxCell>
                <mxCell id="OFqDbIYOe_2my_a9MHT3-18" value="FollowerID" style="text;align=center;verticalAlign=middle;rounded=0;labelBackgroundColor=none;fontColor=#ffffff;fillColor=#008a00;strokeColor=#C7C700;strokeWidth=5;swimlaneLine=1;fixDash=0;snapToPoint=0;comic=0;enumerate=0;backgroundOutline=0;fontSize=25;labelBorderColor=none;perimeterSpacing=0;swimlaneFillColor=#000000;movable=0;resizable=0;rotatable=0;deletable=0;editable=0;connectable=0;spacingTop=0;spacingLeft=2;spacingRight=2;" parent="1" vertex="1">
                    <mxGeometry x="-678" y="636" width="137" height="42" as="geometry"/>
                </mxCell>
                <mxCell id="266" value="" style="endArrow=none;labelBackgroundColor=none;strokeColor=#C7C700;fontColor=#FFFFFF;edgeStyle=orthogonalEdgeStyle;endFill=0;entryX=0;entryY=0.5;entryDx=0;entryDy=0;exitX=0;exitY=0.5;exitDx=0;exitDy=0;strokeWidth=5;swimlaneLine=1;fixDash=0;snapToPoint=0;comic=0;enumerate=0;backgroundOutline=0;fontSize=25;labelBorderColor=none;rounded=1;movable=0;resizable=0;rotatable=0;deletable=0;editable=0;connectable=0;spacingTop=0;spacingLeft=2;spacingRight=2;" parent="1" source="OFqDbIYOe_2my_a9MHT3-11" target="OFqDbIYOe_2my_a9MHT3-15" edge="1">
                    <mxGeometry width="50" height="50" relative="1" as="geometry">
                        <mxPoint x="-756.4999999999999" y="601" as="sourcePoint"/>
                        <mxPoint x="-482" y="581.5" as="targetPoint"/>
                    </mxGeometry>
                </mxCell>
                <mxCell id="OFqDbIYOe_2my_a9MHT3-15" value="PremiumID" style="text;align=center;verticalAlign=middle;rounded=0;labelBackgroundColor=none;fontColor=#ffffff;fillColor=#008a00;strokeColor=#C7C700;strokeWidth=5;swimlaneLine=1;fixDash=0;snapToPoint=0;comic=0;enumerate=0;backgroundOutline=0;fontSize=25;labelBorderColor=none;perimeterSpacing=0;swimlaneFillColor=#000000;movable=0;resizable=0;rotatable=0;deletable=0;editable=0;connectable=0;spacingTop=0;spacingLeft=2;spacingRight=2;" parent="1" vertex="1">
                    <mxGeometry x="-685" y="560" width="143" height="40" as="geometry"/>
                </mxCell>
                <mxCell id="267" value="" style="endArrow=none;labelBackgroundColor=none;strokeColor=#C7C700;fontColor=#FFFFFF;edgeStyle=orthogonalEdgeStyle;exitX=0;exitY=0.5;exitDx=0;exitDy=0;endFill=0;entryX=0;entryY=0.5;entryDx=0;entryDy=0;strokeWidth=5;swimlaneLine=1;fixDash=0;snapToPoint=0;comic=0;enumerate=0;backgroundOutline=0;fontSize=25;labelBorderColor=none;rounded=1;movable=0;resizable=0;rotatable=0;deletable=0;editable=0;connectable=0;spacingTop=0;spacingLeft=2;spacingRight=2;" parent="1" source="OFqDbIYOe_2my_a9MHT3-4" target="OFqDbIYOe_2my_a9MHT3-10" edge="1">
                    <mxGeometry width="50" height="50" relative="1" as="geometry">
                        <mxPoint x="-750.5000000000001" y="490" as="sourcePoint"/>
                        <mxPoint x="-482" y="502.2499999999998" as="targetPoint"/>
                    </mxGeometry>
                </mxCell>
                <mxCell id="OFqDbIYOe_2my_a9MHT3-10" value="FreindID" style="text;align=center;verticalAlign=middle;rounded=0;labelBackgroundColor=none;fontColor=#FFFFFF;fillColor=#009900;strokeColor=#C7C700;strokeWidth=5;swimlaneLine=1;fixDash=0;snapToPoint=0;comic=0;enumerate=0;backgroundOutline=0;fontSize=25;labelBorderColor=none;perimeterSpacing=0;swimlaneFillColor=#000000;movable=0;resizable=0;rotatable=0;deletable=0;editable=0;connectable=0;spacingTop=0;spacingLeft=2;spacingRight=2;" parent="1" vertex="1">
                    <mxGeometry x="-674" y="492" width="114" height="42" as="geometry"/>
                </mxCell>
                <mxCell id="268" value="" style="endArrow=none;labelBackgroundColor=none;strokeColor=#C7C700;fontColor=#FFFFFF;edgeStyle=orthogonalEdgeStyle;endFill=0;exitX=1;exitY=0.5;exitDx=0;exitDy=0;entryX=0.001;entryY=0.096;entryDx=0;entryDy=0;entryPerimeter=0;strokeWidth=5;swimlaneLine=1;fixDash=0;snapToPoint=0;comic=0;enumerate=0;backgroundOutline=0;fontSize=25;labelBorderColor=none;rounded=1;movable=0;resizable=0;rotatable=0;deletable=0;editable=0;connectable=0;spacingTop=0;spacingLeft=2;spacingRight=2;" parent="1" source="OFqDbIYOe_2my_a9MHT3-4" target="OFqDbIYOe_2my_a9MHT3-7" edge="1">
                    <mxGeometry width="50" height="50" relative="1" as="geometry">
                        <mxPoint x="-750.5000000000001" y="460" as="sourcePoint"/>
                        <mxPoint x="-481.3220000000001" y="453.4319999999998" as="targetPoint"/>
                    </mxGeometry>
                </mxCell>
                <mxCell id="OFqDbIYOe_2my_a9MHT3-7" value="PremiumID" style="text;align=center;verticalAlign=middle;rounded=0;labelBackgroundColor=none;fontColor=#FFFFFF;fillColor=#009900;strokeColor=#C7C700;strokeWidth=5;swimlaneLine=1;fixDash=0;snapToPoint=0;comic=0;enumerate=0;backgroundOutline=0;fontSize=25;labelBorderColor=none;perimeterSpacing=0;swimlaneFillColor=#000000;movable=0;resizable=0;rotatable=0;deletable=0;editable=0;connectable=0;spacingTop=0;spacingLeft=2;spacingRight=2;" parent="1" vertex="1">
                    <mxGeometry x="-685" y="424" width="143" height="40" as="geometry"/>
                </mxCell>
                <mxCell id="286" value="Premium_User" style="shape=table;startSize=30;container=1;collapsible=1;childLayout=tableLayout;fixedRows=1;rowLines=0;fontStyle=1;align=center;resizeLast=1;rounded=0;labelBackgroundColor=none;labelBorderColor=none;comic=0;strokeColor=#C7C700;strokeWidth=5;fontFamily=Helvetica;fontSize=25;fontColor=#ffffff;fillColor=#008a00;spacingTop=0;spacingLeft=2;spacingRight=2;movable=0;resizable=0;rotatable=0;deletable=0;editable=0;connectable=0;" parent="1" vertex="1">
                    <mxGeometry x="-407" y="447" width="470" height="266" as="geometry"/>
                </mxCell>
                <mxCell id="287" value="" style="shape=tableRow;horizontal=0;startSize=0;swimlaneHead=0;swimlaneBody=0;fillColor=none;collapsible=0;dropTarget=0;points=[[0,0.5],[1,0.5]];portConstraint=eastwest;top=0;left=0;right=0;bottom=1;rounded=0;labelBackgroundColor=none;labelBorderColor=none;comic=0;strokeColor=#C7C700;strokeWidth=5;fontFamily=Helvetica;fontSize=25;fontColor=#ffffff;spacingTop=0;spacingLeft=2;spacingRight=2;movable=0;resizable=0;rotatable=0;deletable=0;editable=0;connectable=0;" parent="286" vertex="1">
                    <mxGeometry y="30" width="470" height="30" as="geometry"/>
                </mxCell>
                <mxCell id="288" value="PK,FK" style="shape=partialRectangle;connectable=0;fillColor=none;top=0;left=0;bottom=0;right=0;fontStyle=1;overflow=hidden;rounded=0;labelBackgroundColor=none;labelBorderColor=none;comic=0;strokeColor=#C7C700;strokeWidth=5;fontFamily=Helvetica;fontSize=25;fontColor=#ffffff;startSize=30;spacingTop=0;spacingLeft=2;spacingRight=2;movable=0;resizable=0;rotatable=0;deletable=0;editable=0;" parent="287" vertex="1">
                    <mxGeometry width="100" height="30" as="geometry">
                        <mxRectangle width="100" height="30" as="alternateBounds"/>
                    </mxGeometry>
                </mxCell>
                <mxCell id="289" value="PremiumID" style="shape=partialRectangle;connectable=0;fillColor=none;top=0;left=0;bottom=0;right=0;align=left;spacingLeft=2;fontStyle=5;overflow=hidden;rounded=0;labelBackgroundColor=none;labelBorderColor=none;comic=0;strokeColor=#C7C700;strokeWidth=5;fontFamily=Helvetica;fontSize=24;fontColor=#ffffff;startSize=30;spacingTop=0;spacingRight=2;movable=0;resizable=0;rotatable=0;deletable=0;editable=0;" parent="287" vertex="1">
                    <mxGeometry x="100" width="370" height="30" as="geometry">
                        <mxRectangle width="370" height="30" as="alternateBounds"/>
                    </mxGeometry>
                </mxCell>
                <mxCell id="OFqDbIYOe_2my_a9MHT3-108" value="album" style="shape=table;startSize=30;container=1;collapsible=1;childLayout=tableLayout;fixedRows=1;rowLines=0;fontStyle=1;align=center;resizeLast=1;labelBackgroundColor=none;shadow=1;rounded=0;fillColor=#008a00;fontColor=#ffffff;strokeColor=#C7C700;strokeWidth=5;swimlaneLine=1;fixDash=0;snapToPoint=0;comic=0;enumerate=0;backgroundOutline=0;fontSize=25;labelBorderColor=none;perimeterSpacing=0;swimlaneFillColor=#000000;movable=0;resizable=0;rotatable=0;deletable=0;editable=0;connectable=0;spacingTop=0;spacingLeft=2;spacingRight=2;" parent="1" vertex="1">
                    <mxGeometry x="1857" y="265" width="200" height="180" as="geometry">
                        <mxRectangle x="1670" y="430" width="70" height="30" as="alternateBounds"/>
                    </mxGeometry>
                </mxCell>
                <mxCell id="OFqDbIYOe_2my_a9MHT3-109" value="" style="shape=tableRow;horizontal=0;startSize=0;swimlaneHead=0;swimlaneBody=0;fillColor=none;collapsible=0;dropTarget=0;points=[[0,0.5],[1,0.5]];portConstraint=eastwest;top=0;left=0;right=0;bottom=1;strokeColor=#C7C700;fontColor=#FFFFFF;labelBackgroundColor=none;rounded=0;strokeWidth=5;swimlaneLine=1;fixDash=0;snapToPoint=0;comic=0;enumerate=0;backgroundOutline=0;fontSize=25;labelBorderColor=none;perimeterSpacing=0;swimlaneFillColor=#000000;movable=0;resizable=0;rotatable=0;deletable=0;editable=0;connectable=0;spacingTop=0;spacingLeft=2;spacingRight=2;" parent="OFqDbIYOe_2my_a9MHT3-108" vertex="1">
                    <mxGeometry y="30" width="200" height="30" as="geometry"/>
                </mxCell>
                <mxCell id="OFqDbIYOe_2my_a9MHT3-110" value="PK" style="shape=partialRectangle;connectable=0;fillColor=none;top=0;left=0;bottom=0;right=0;fontStyle=1;overflow=hidden;strokeColor=#C7C700;fontColor=#FFFFFF;labelBackgroundColor=none;rounded=0;strokeWidth=5;swimlaneLine=1;fixDash=0;snapToPoint=0;comic=0;enumerate=0;backgroundOutline=0;fontSize=25;labelBorderColor=none;perimeterSpacing=0;swimlaneFillColor=#000000;movable=0;resizable=0;rotatable=0;deletable=0;editable=0;spacingTop=0;spacingLeft=2;spacingRight=2;" parent="OFqDbIYOe_2my_a9MHT3-109" vertex="1">
                    <mxGeometry width="50" height="30" as="geometry">
                        <mxRectangle width="50" height="30" as="alternateBounds"/>
                    </mxGeometry>
                </mxCell>
                <mxCell id="OFqDbIYOe_2my_a9MHT3-111" value="Title" style="shape=partialRectangle;connectable=0;fillColor=none;top=0;left=0;bottom=0;right=0;align=left;spacingLeft=2;fontStyle=5;overflow=hidden;strokeColor=#C7C700;fontColor=#FFFFFF;labelBackgroundColor=none;rounded=0;strokeWidth=5;swimlaneLine=1;fixDash=0;snapToPoint=0;comic=0;enumerate=0;backgroundOutline=0;fontSize=25;labelBorderColor=none;perimeterSpacing=0;swimlaneFillColor=#000000;movable=0;resizable=0;rotatable=0;deletable=0;editable=0;spacingTop=0;spacingRight=2;" parent="OFqDbIYOe_2my_a9MHT3-109" vertex="1">
                    <mxGeometry x="50" width="150" height="30" as="geometry">
                        <mxRectangle width="150" height="30" as="alternateBounds"/>
                    </mxGeometry>
                </mxCell>
                <mxCell id="334" style="shape=tableRow;horizontal=0;startSize=0;swimlaneHead=0;swimlaneBody=0;fillColor=none;collapsible=0;dropTarget=0;points=[[0,0.5],[1,0.5]];portConstraint=eastwest;top=0;left=0;right=0;bottom=1;strokeColor=#C7C700;fontColor=#FFFFFF;labelBackgroundColor=none;rounded=0;strokeWidth=5;swimlaneLine=1;fixDash=0;snapToPoint=0;comic=0;enumerate=0;backgroundOutline=0;fontSize=25;labelBorderColor=none;perimeterSpacing=0;swimlaneFillColor=#000000;movable=0;resizable=0;rotatable=0;deletable=0;editable=0;connectable=0;spacingTop=0;spacingLeft=2;spacingRight=2;" parent="OFqDbIYOe_2my_a9MHT3-108" vertex="1">
                    <mxGeometry y="60" width="200" height="30" as="geometry"/>
                </mxCell>
                <mxCell id="335" value="FK" style="shape=partialRectangle;connectable=0;fillColor=none;top=0;left=0;bottom=0;right=0;fontStyle=1;overflow=hidden;strokeColor=#C7C700;fontColor=#FFFFFF;labelBackgroundColor=none;rounded=0;strokeWidth=5;swimlaneLine=1;fixDash=0;snapToPoint=0;comic=0;enumerate=0;backgroundOutline=0;fontSize=25;labelBorderColor=none;perimeterSpacing=0;swimlaneFillColor=#000000;movable=0;resizable=0;rotatable=0;deletable=0;editable=0;spacingTop=0;spacingLeft=2;spacingRight=2;" parent="334" vertex="1">
                    <mxGeometry width="50" height="30" as="geometry">
                        <mxRectangle width="50" height="30" as="alternateBounds"/>
                    </mxGeometry>
                </mxCell>
                <mxCell id="336" value="ArtistID" style="shape=partialRectangle;connectable=0;fillColor=none;top=0;left=0;bottom=0;right=0;align=left;spacingLeft=2;fontStyle=5;overflow=hidden;strokeColor=#C7C700;fontColor=#FFFFFF;labelBackgroundColor=none;rounded=0;strokeWidth=5;swimlaneLine=1;fixDash=0;snapToPoint=0;comic=0;enumerate=0;backgroundOutline=0;fontSize=25;labelBorderColor=none;perimeterSpacing=0;swimlaneFillColor=#000000;movable=0;resizable=0;rotatable=0;deletable=0;editable=0;spacingTop=0;spacingRight=2;" parent="334" vertex="1">
                    <mxGeometry x="50" width="150" height="30" as="geometry">
                        <mxRectangle width="150" height="30" as="alternateBounds"/>
                    </mxGeometry>
                </mxCell>
                <mxCell id="13" value="" style="shape=tableRow;horizontal=0;startSize=0;swimlaneHead=0;swimlaneBody=0;fillColor=none;collapsible=0;dropTarget=0;points=[[0,0.5],[1,0.5]];portConstraint=eastwest;top=0;left=0;right=0;bottom=1;strokeColor=#C7C700;fontColor=#FFFFFF;labelBackgroundColor=none;rounded=0;strokeWidth=5;swimlaneLine=1;fixDash=0;snapToPoint=0;comic=0;enumerate=0;backgroundOutline=0;fontSize=25;labelBorderColor=none;perimeterSpacing=0;swimlaneFillColor=#000000;movable=0;resizable=0;rotatable=0;deletable=0;editable=0;connectable=0;spacingTop=0;spacingLeft=2;spacingRight=2;" parent="OFqDbIYOe_2my_a9MHT3-108" vertex="1">
                    <mxGeometry y="90" width="200" height="30" as="geometry"/>
                </mxCell>
                <mxCell id="14" value="" style="shape=partialRectangle;connectable=0;fillColor=none;top=0;left=0;bottom=0;right=0;fontStyle=1;overflow=hidden;strokeColor=#C7C700;fontColor=#FFFFFF;labelBackgroundColor=none;rounded=0;strokeWidth=5;swimlaneLine=1;fixDash=0;snapToPoint=0;comic=0;enumerate=0;backgroundOutline=0;fontSize=25;labelBorderColor=none;perimeterSpacing=0;swimlaneFillColor=#000000;movable=0;resizable=0;rotatable=0;deletable=0;editable=0;spacingTop=0;spacingLeft=2;spacingRight=2;" parent="13" vertex="1">
                    <mxGeometry width="50" height="30" as="geometry">
                        <mxRectangle width="50" height="30" as="alternateBounds"/>
                    </mxGeometry>
                </mxCell>
                <mxCell id="15" value="genre" style="shape=partialRectangle;connectable=0;fillColor=none;top=0;left=0;bottom=0;right=0;align=left;spacingLeft=2;fontStyle=1;overflow=hidden;strokeColor=#C7C700;fontColor=#FFFFFF;labelBackgroundColor=none;rounded=0;strokeWidth=5;swimlaneLine=1;fixDash=0;snapToPoint=0;comic=0;enumerate=0;backgroundOutline=0;fontSize=25;labelBorderColor=none;perimeterSpacing=0;swimlaneFillColor=#000000;movable=0;resizable=0;rotatable=0;deletable=0;editable=0;spacingTop=0;spacingRight=2;" parent="13" vertex="1">
                    <mxGeometry x="50" width="150" height="30" as="geometry">
                        <mxRectangle width="150" height="30" as="alternateBounds"/>
                    </mxGeometry>
                </mxCell>
                <mxCell id="10" value="" style="shape=tableRow;horizontal=0;startSize=0;swimlaneHead=0;swimlaneBody=0;fillColor=none;collapsible=0;dropTarget=0;points=[[0,0.5],[1,0.5]];portConstraint=eastwest;top=0;left=0;right=0;bottom=1;strokeColor=#C7C700;fontColor=#FFFFFF;labelBackgroundColor=none;rounded=0;strokeWidth=5;swimlaneLine=1;fixDash=0;snapToPoint=0;comic=0;enumerate=0;backgroundOutline=0;fontSize=25;labelBorderColor=none;perimeterSpacing=0;swimlaneFillColor=#000000;movable=0;resizable=0;rotatable=0;deletable=0;editable=0;connectable=0;spacingTop=0;spacingLeft=2;spacingRight=2;" parent="OFqDbIYOe_2my_a9MHT3-108" vertex="1">
                    <mxGeometry y="120" width="200" height="30" as="geometry"/>
                </mxCell>
                <mxCell id="11" value="" style="shape=partialRectangle;connectable=0;fillColor=none;top=0;left=0;bottom=0;right=0;fontStyle=1;overflow=hidden;strokeColor=#C7C700;fontColor=#FFFFFF;labelBackgroundColor=none;rounded=0;strokeWidth=5;swimlaneLine=1;fixDash=0;snapToPoint=0;comic=0;enumerate=0;backgroundOutline=0;fontSize=25;labelBorderColor=none;perimeterSpacing=0;swimlaneFillColor=#000000;movable=0;resizable=0;rotatable=0;deletable=0;editable=0;spacingTop=0;spacingLeft=2;spacingRight=2;" parent="10" vertex="1">
                    <mxGeometry width="50" height="30" as="geometry">
                        <mxRectangle width="50" height="30" as="alternateBounds"/>
                    </mxGeometry>
                </mxCell>
                <mxCell id="12" value="country" style="shape=partialRectangle;connectable=0;fillColor=none;top=0;left=0;bottom=0;right=0;align=left;spacingLeft=2;fontStyle=1;overflow=hidden;strokeColor=#C7C700;fontColor=#FFFFFF;labelBackgroundColor=none;rounded=0;strokeWidth=5;swimlaneLine=1;fixDash=0;snapToPoint=0;comic=0;enumerate=0;backgroundOutline=0;fontSize=25;labelBorderColor=none;perimeterSpacing=0;swimlaneFillColor=#000000;movable=0;resizable=0;rotatable=0;deletable=0;editable=0;spacingTop=0;spacingRight=2;" parent="10" vertex="1">
                    <mxGeometry x="50" width="150" height="30" as="geometry">
                        <mxRectangle width="150" height="30" as="alternateBounds"/>
                    </mxGeometry>
                </mxCell>
                <mxCell id="19" value="" style="shape=tableRow;horizontal=0;startSize=0;swimlaneHead=0;swimlaneBody=0;fillColor=none;collapsible=0;dropTarget=0;points=[[0,0.5],[1,0.5]];portConstraint=eastwest;top=0;left=0;right=0;bottom=1;strokeColor=#C7C700;fontColor=#FFFFFF;labelBackgroundColor=none;rounded=0;strokeWidth=5;swimlaneLine=1;fixDash=0;snapToPoint=0;comic=0;enumerate=0;backgroundOutline=0;fontSize=25;labelBorderColor=none;perimeterSpacing=0;swimlaneFillColor=#000000;movable=0;resizable=0;rotatable=0;deletable=0;editable=0;connectable=0;spacingTop=0;spacingLeft=2;spacingRight=2;" parent="OFqDbIYOe_2my_a9MHT3-108" vertex="1">
                    <mxGeometry y="150" width="200" height="30" as="geometry"/>
                </mxCell>
                <mxCell id="20" value="" style="shape=partialRectangle;connectable=0;fillColor=none;top=0;left=0;bottom=0;right=0;fontStyle=1;overflow=hidden;strokeColor=#C7C700;fontColor=#FFFFFF;labelBackgroundColor=none;rounded=0;strokeWidth=5;swimlaneLine=1;fixDash=0;snapToPoint=0;comic=0;enumerate=0;backgroundOutline=0;fontSize=25;labelBorderColor=none;perimeterSpacing=0;swimlaneFillColor=#000000;movable=0;resizable=0;rotatable=0;deletable=0;editable=0;spacingTop=0;spacingLeft=2;spacingRight=2;" parent="19" vertex="1">
                    <mxGeometry width="50" height="30" as="geometry">
                        <mxRectangle width="50" height="30" as="alternateBounds"/>
                    </mxGeometry>
                </mxCell>
                <mxCell id="21" value="ages" style="shape=partialRectangle;connectable=0;fillColor=none;top=0;left=0;bottom=0;right=0;align=left;spacingLeft=2;fontStyle=1;overflow=hidden;strokeColor=#C7C700;fontColor=#FFFFFF;labelBackgroundColor=none;rounded=0;strokeWidth=5;swimlaneLine=1;fixDash=0;snapToPoint=0;comic=0;enumerate=0;backgroundOutline=0;fontSize=25;labelBorderColor=none;perimeterSpacing=0;swimlaneFillColor=#000000;movable=0;resizable=0;rotatable=0;deletable=0;editable=0;spacingTop=0;spacingRight=2;" parent="19" vertex="1">
                    <mxGeometry x="50" width="150" height="30" as="geometry">
                        <mxRectangle width="150" height="30" as="alternateBounds"/>
                    </mxGeometry>
                </mxCell>
                <mxCell id="402" value="has" style="shape=rhombus;double=1;perimeter=rhombusPerimeter;align=center;rounded=0;labelBackgroundColor=none;strokeColor=#C7C700;fontFamily=Helvetica;fontSize=25;fontColor=#FFFFFF;fillColor=#008a00;gradientColor=none;strokeWidth=5;swimlaneLine=1;fixDash=0;snapToPoint=0;comic=0;enumerate=0;backgroundOutline=0;labelBorderColor=none;perimeterSpacing=0;swimlaneFillColor=#000000;movable=0;resizable=0;rotatable=0;deletable=0;editable=0;connectable=0;spacingTop=0;spacingLeft=2;spacingRight=2;" parent="1" vertex="1">
                    <mxGeometry x="486" y="292" width="58" height="42" as="geometry"/>
                </mxCell>
                <mxCell id="406" style="edgeStyle=orthogonalEdgeStyle;shape=connector;rounded=1;comic=0;html=1;exitX=0.5;exitY=0;exitDx=0;exitDy=0;entryX=0.25;entryY=1;entryDx=0;entryDy=0;labelBackgroundColor=none;labelBorderColor=none;strokeColor=#C7C700;strokeWidth=5;fontFamily=Helvetica;fontSize=25;fontColor=default;endArrow=none;endFill=0;startSize=30;targetPerimeterSpacing=0;fillColor=#A8DADC;movable=0;resizable=0;rotatable=0;deletable=0;editable=0;connectable=0;" parent="1" source="404" target="663" edge="1">
                    <mxGeometry relative="1" as="geometry">
                        <Array as="points">
                            <mxPoint x="1242" y="685"/>
                            <mxPoint x="1532" y="685"/>
                        </Array>
                    </mxGeometry>
                </mxCell>
                <mxCell id="404" value="limit" style="ellipse;whiteSpace=wrap;html=1;align=center;rounded=0;labelBackgroundColor=none;labelBorderColor=none;comic=0;strokeColor=#C7C700;strokeWidth=5;fontFamily=Helvetica;fontSize=25;fontColor=default;startSize=30;fillColor=#009900;movable=0;resizable=0;rotatable=0;deletable=0;editable=0;connectable=0;" parent="1" vertex="1">
                    <mxGeometry x="1184" y="771" width="122" height="42" as="geometry"/>
                </mxCell>
                <mxCell id="448" value="Attributes" style="shape=table;startSize=30;container=1;collapsible=1;childLayout=tableLayout;fixedRows=1;rowLines=0;fontStyle=1;align=center;resizeLast=1;rounded=0;labelBackgroundColor=none;labelBorderColor=none;comic=0;strokeColor=#C7C700;strokeWidth=5;fontFamily=Helvetica;fontSize=25;fontColor=default;fillColor=#008a00;movable=0;resizable=0;rotatable=0;deletable=0;editable=0;connectable=0;" parent="1" vertex="1">
                    <mxGeometry x="53" y="830" width="168" height="91" as="geometry">
                        <mxRectangle x="187" y="763" width="50" height="44" as="alternateBounds"/>
                    </mxGeometry>
                </mxCell>
                <mxCell id="449" value="" style="shape=tableRow;horizontal=0;startSize=0;swimlaneHead=0;swimlaneBody=0;fillColor=none;collapsible=0;dropTarget=0;points=[[0,0.5],[1,0.5]];portConstraint=eastwest;top=0;left=0;right=0;bottom=0;rounded=0;labelBackgroundColor=none;labelBorderColor=none;comic=0;strokeColor=#C7C700;strokeWidth=5;fontFamily=Helvetica;fontSize=25;fontColor=#FFFFFF;movable=0;resizable=0;rotatable=0;deletable=0;editable=0;connectable=0;" parent="448" vertex="1">
                    <mxGeometry y="30" width="168" height="30" as="geometry"/>
                </mxCell>
                <mxCell id="450" value="PK,FK1" style="shape=partialRectangle;connectable=0;fillColor=none;top=0;left=0;bottom=0;right=0;fontStyle=1;overflow=hidden;rounded=0;labelBackgroundColor=none;labelBorderColor=none;comic=0;strokeColor=#C7C700;strokeWidth=5;fontFamily=Helvetica;fontSize=25;fontColor=#FFFFFF;startSize=30;movable=0;resizable=0;rotatable=0;deletable=0;editable=0;" parent="449" vertex="1">
                    <mxGeometry width="100" height="30" as="geometry">
                        <mxRectangle width="100" height="30" as="alternateBounds"/>
                    </mxGeometry>
                </mxCell>
                <mxCell id="451" value="PrID" style="shape=partialRectangle;connectable=0;fillColor=none;top=0;left=0;bottom=0;right=0;align=left;spacingLeft=6;fontStyle=5;overflow=hidden;rounded=0;labelBackgroundColor=none;labelBorderColor=none;comic=0;strokeColor=#C7C700;strokeWidth=5;fontFamily=Helvetica;fontSize=25;fontColor=#FFFFFF;startSize=30;movable=0;resizable=0;rotatable=0;deletable=0;editable=0;" parent="449" vertex="1">
                    <mxGeometry x="100" width="68" height="30" as="geometry">
                        <mxRectangle width="68" height="30" as="alternateBounds"/>
                    </mxGeometry>
                </mxCell>
                <mxCell id="452" value="" style="shape=tableRow;horizontal=0;startSize=0;swimlaneHead=0;swimlaneBody=0;fillColor=none;collapsible=0;dropTarget=0;points=[[0,0.5],[1,0.5]];portConstraint=eastwest;top=0;left=0;right=0;bottom=1;rounded=0;labelBackgroundColor=none;labelBorderColor=none;comic=0;strokeColor=#C7C700;strokeWidth=5;fontFamily=Helvetica;fontSize=25;fontColor=#FFFFFF;movable=0;resizable=0;rotatable=0;deletable=0;editable=0;connectable=0;" parent="448" vertex="1">
                    <mxGeometry y="60" width="168" height="30" as="geometry"/>
                </mxCell>
                <mxCell id="453" value="PK,FK2" style="shape=partialRectangle;connectable=0;fillColor=none;top=0;left=0;bottom=0;right=0;fontStyle=1;overflow=hidden;rounded=0;labelBackgroundColor=none;labelBorderColor=none;comic=0;strokeColor=#C7C700;strokeWidth=5;fontFamily=Helvetica;fontSize=25;fontColor=#FFFFFF;startSize=30;movable=0;resizable=0;rotatable=0;deletable=0;editable=0;" parent="452" vertex="1">
                    <mxGeometry width="100" height="30" as="geometry">
                        <mxRectangle width="100" height="30" as="alternateBounds"/>
                    </mxGeometry>
                </mxCell>
                <mxCell id="454" value="TID" style="shape=partialRectangle;connectable=0;fillColor=none;top=0;left=0;bottom=0;right=0;align=left;spacingLeft=6;fontStyle=5;overflow=hidden;rounded=0;labelBackgroundColor=none;labelBorderColor=none;comic=0;strokeColor=#C7C700;strokeWidth=5;fontFamily=Helvetica;fontSize=25;fontColor=#FFFFFF;startSize=30;movable=0;resizable=0;rotatable=0;deletable=0;editable=0;" parent="452" vertex="1">
                    <mxGeometry x="100" width="68" height="30" as="geometry">
                        <mxRectangle width="68" height="30" as="alternateBounds"/>
                    </mxGeometry>
                </mxCell>
                <mxCell id="465" value="Attributes" style="shape=table;startSize=30;container=1;collapsible=1;childLayout=tableLayout;fixedRows=1;rowLines=0;fontStyle=1;align=center;resizeLast=1;rounded=0;labelBackgroundColor=none;labelBorderColor=none;comic=0;strokeColor=#C7C700;strokeWidth=5;fontFamily=Helvetica;fontSize=25;fontColor=default;fillColor=#008a00;movable=0;resizable=0;rotatable=0;deletable=0;editable=0;connectable=0;" parent="1" vertex="1">
                    <mxGeometry x="1224" y="427" width="176" height="90" as="geometry">
                        <mxRectangle x="187" y="763" width="50" height="44" as="alternateBounds"/>
                    </mxGeometry>
                </mxCell>
                <mxCell id="466" value="" style="shape=tableRow;horizontal=0;startSize=0;swimlaneHead=0;swimlaneBody=0;fillColor=none;collapsible=0;dropTarget=0;points=[[0,0.5],[1,0.5]];portConstraint=eastwest;top=0;left=0;right=0;bottom=0;rounded=0;labelBackgroundColor=none;labelBorderColor=none;comic=0;strokeColor=#C7C700;strokeWidth=5;fontFamily=Helvetica;fontSize=25;fontColor=#FFFFFF;movable=0;resizable=0;rotatable=0;deletable=0;editable=0;connectable=0;" parent="465" vertex="1">
                    <mxGeometry y="30" width="176" height="30" as="geometry"/>
                </mxCell>
                <mxCell id="467" value="PK,FK1" style="shape=partialRectangle;connectable=0;fillColor=none;top=0;left=0;bottom=0;right=0;fontStyle=1;overflow=hidden;rounded=0;labelBackgroundColor=none;labelBorderColor=none;comic=0;strokeColor=#C7C700;strokeWidth=5;fontFamily=Helvetica;fontSize=25;fontColor=#FFFFFF;startSize=30;movable=0;resizable=0;rotatable=0;deletable=0;editable=0;" parent="466" vertex="1">
                    <mxGeometry width="100" height="30" as="geometry">
                        <mxRectangle width="100" height="30" as="alternateBounds"/>
                    </mxGeometry>
                </mxCell>
                <mxCell id="468" value="PID" style="shape=partialRectangle;connectable=0;fillColor=none;top=0;left=0;bottom=0;right=0;align=left;spacingLeft=6;fontStyle=5;overflow=hidden;rounded=0;labelBackgroundColor=none;labelBorderColor=none;comic=0;strokeColor=#C7C700;strokeWidth=5;fontFamily=Helvetica;fontSize=25;fontColor=#FFFFFF;startSize=30;movable=0;resizable=0;rotatable=0;deletable=0;editable=0;" parent="466" vertex="1">
                    <mxGeometry x="100" width="76" height="30" as="geometry">
                        <mxRectangle width="76" height="30" as="alternateBounds"/>
                    </mxGeometry>
                </mxCell>
                <mxCell id="469" value="" style="shape=tableRow;horizontal=0;startSize=0;swimlaneHead=0;swimlaneBody=0;fillColor=none;collapsible=0;dropTarget=0;points=[[0,0.5],[1,0.5]];portConstraint=eastwest;top=0;left=0;right=0;bottom=1;rounded=0;labelBackgroundColor=none;labelBorderColor=none;comic=0;strokeColor=#C7C700;strokeWidth=5;fontFamily=Helvetica;fontSize=25;fontColor=#FFFFFF;movable=0;resizable=0;rotatable=0;deletable=0;editable=0;connectable=0;" parent="465" vertex="1">
                    <mxGeometry y="60" width="176" height="30" as="geometry"/>
                </mxCell>
                <mxCell id="470" value="PK,FK2" style="shape=partialRectangle;connectable=0;fillColor=none;top=0;left=0;bottom=0;right=0;fontStyle=1;overflow=hidden;rounded=0;labelBackgroundColor=none;labelBorderColor=none;comic=0;strokeColor=#C7C700;strokeWidth=5;fontFamily=Helvetica;fontSize=25;fontColor=#FFFFFF;startSize=30;movable=0;resizable=0;rotatable=0;deletable=0;editable=0;" parent="469" vertex="1">
                    <mxGeometry width="100" height="30" as="geometry">
                        <mxRectangle width="100" height="30" as="alternateBounds"/>
                    </mxGeometry>
                </mxCell>
                <mxCell id="471" value="SID" style="shape=partialRectangle;connectable=0;fillColor=none;top=0;left=0;bottom=0;right=0;align=left;spacingLeft=6;fontStyle=5;overflow=hidden;rounded=0;labelBackgroundColor=none;labelBorderColor=none;comic=0;strokeColor=#C7C700;strokeWidth=5;fontFamily=Helvetica;fontSize=25;fontColor=#FFFFFF;startSize=30;movable=0;resizable=0;rotatable=0;deletable=0;editable=0;" parent="469" vertex="1">
                    <mxGeometry x="100" width="76" height="30" as="geometry">
                        <mxRectangle width="76" height="30" as="alternateBounds"/>
                    </mxGeometry>
                </mxCell>
                <mxCell id="472" value="has" style="shape=rhombus;double=1;perimeter=rhombusPerimeter;whiteSpace=wrap;html=1;align=center;rounded=0;labelBackgroundColor=none;labelBorderColor=none;comic=0;strokeColor=#C7C700;strokeWidth=5;fontFamily=Helvetica;fontSize=25;fontColor=default;startSize=30;fillColor=#008a00;movable=0;resizable=0;rotatable=0;deletable=0;editable=0;connectable=0;" parent="1" vertex="1">
                    <mxGeometry x="1728" y="293" width="58" height="42" as="geometry"/>
                </mxCell>
                <mxCell id="489" value="Attributes" style="shape=table;startSize=30;container=1;collapsible=1;childLayout=tableLayout;fixedRows=1;rowLines=0;fontStyle=1;align=center;resizeLast=1;rounded=0;labelBackgroundColor=none;labelBorderColor=none;comic=0;strokeColor=#C7C700;strokeWidth=5;fontFamily=Helvetica;fontSize=25;fontColor=default;fillColor=#008a00;movable=0;resizable=0;rotatable=0;deletable=0;editable=0;connectable=0;" parent="1" vertex="1">
                    <mxGeometry x="347" y="-450" width="203" height="208" as="geometry">
                        <mxRectangle x="187" y="763" width="50" height="44" as="alternateBounds"/>
                    </mxGeometry>
                </mxCell>
                <mxCell id="612" style="shape=tableRow;horizontal=0;startSize=0;swimlaneHead=0;swimlaneBody=0;fillColor=none;collapsible=0;dropTarget=0;points=[[0,0.5],[1,0.5]];portConstraint=eastwest;top=0;left=0;right=0;bottom=0;rounded=0;labelBackgroundColor=none;labelBorderColor=none;comic=0;strokeColor=#C7C700;strokeWidth=5;fontFamily=Helvetica;fontSize=25;fontColor=#FFFFFF;movable=0;resizable=0;rotatable=0;deletable=0;editable=0;connectable=0;" parent="489" vertex="1">
                    <mxGeometry y="30" width="203" height="30" as="geometry"/>
                </mxCell>
                <mxCell id="613" value="PK" style="shape=partialRectangle;connectable=0;fillColor=none;top=0;left=0;bottom=0;right=0;fontStyle=1;overflow=hidden;rounded=0;labelBackgroundColor=none;labelBorderColor=none;comic=0;strokeColor=#C7C700;strokeWidth=5;fontFamily=Helvetica;fontSize=25;fontColor=#FFFFFF;startSize=30;movable=0;resizable=0;rotatable=0;deletable=0;editable=0;" parent="612" vertex="1">
                    <mxGeometry width="60" height="30" as="geometry">
                        <mxRectangle width="60" height="30" as="alternateBounds"/>
                    </mxGeometry>
                </mxCell>
                <mxCell id="614" value="ID" style="shape=partialRectangle;connectable=0;fillColor=none;top=0;left=0;bottom=0;right=0;align=left;spacingLeft=6;fontStyle=5;overflow=hidden;rounded=0;labelBackgroundColor=none;labelBorderColor=none;comic=0;strokeColor=#C7C700;strokeWidth=5;fontFamily=Helvetica;fontSize=25;fontColor=#FFFFFF;startSize=30;movable=0;resizable=0;rotatable=0;deletable=0;editable=0;" parent="612" vertex="1">
                    <mxGeometry x="60" width="143" height="30" as="geometry">
                        <mxRectangle width="143" height="30" as="alternateBounds"/>
                    </mxGeometry>
                </mxCell>
                <mxCell id="490" value="" style="shape=tableRow;horizontal=0;startSize=0;swimlaneHead=0;swimlaneBody=0;fillColor=none;collapsible=0;dropTarget=0;points=[[0,0.5],[1,0.5]];portConstraint=eastwest;top=0;left=0;right=0;bottom=0;rounded=0;labelBackgroundColor=none;labelBorderColor=none;comic=0;strokeColor=#C7C700;strokeWidth=5;fontFamily=Helvetica;fontSize=25;fontColor=#FFFFFF;movable=0;resizable=0;rotatable=0;deletable=0;editable=0;connectable=0;" parent="489" vertex="1">
                    <mxGeometry y="60" width="203" height="28" as="geometry"/>
                </mxCell>
                <mxCell id="491" value="FK" style="shape=partialRectangle;connectable=0;fillColor=none;top=0;left=0;bottom=0;right=0;fontStyle=1;overflow=hidden;rounded=0;labelBackgroundColor=none;labelBorderColor=none;comic=0;strokeColor=#C7C700;strokeWidth=5;fontFamily=Helvetica;fontSize=25;fontColor=#FFFFFF;startSize=30;movable=0;resizable=0;rotatable=0;deletable=0;editable=0;" parent="490" vertex="1">
                    <mxGeometry width="60" height="28" as="geometry">
                        <mxRectangle width="60" height="28" as="alternateBounds"/>
                    </mxGeometry>
                </mxCell>
                <mxCell id="492" value="PrID" style="shape=partialRectangle;connectable=0;fillColor=none;top=0;left=0;bottom=0;right=0;align=left;spacingLeft=6;fontStyle=5;overflow=hidden;rounded=0;labelBackgroundColor=none;labelBorderColor=none;comic=0;strokeColor=#C7C700;strokeWidth=5;fontFamily=Helvetica;fontSize=25;fontColor=#FFFFFF;startSize=30;movable=0;resizable=0;rotatable=0;deletable=0;editable=0;" parent="490" vertex="1">
                    <mxGeometry x="60" width="143" height="28" as="geometry">
                        <mxRectangle width="143" height="28" as="alternateBounds"/>
                    </mxGeometry>
                </mxCell>
                <mxCell id="541" style="shape=tableRow;horizontal=0;startSize=0;swimlaneHead=0;swimlaneBody=0;fillColor=none;collapsible=0;dropTarget=0;points=[[0,0.5],[1,0.5]];portConstraint=eastwest;top=0;left=0;right=0;bottom=0;rounded=0;labelBackgroundColor=none;labelBorderColor=none;comic=0;strokeColor=#C7C700;strokeWidth=5;fontFamily=Helvetica;fontSize=25;fontColor=#FFFFFF;movable=0;resizable=0;rotatable=0;deletable=0;editable=0;connectable=0;" parent="489" vertex="1">
                    <mxGeometry y="88" width="203" height="30" as="geometry"/>
                </mxCell>
                <mxCell id="542" value="FK" style="shape=partialRectangle;connectable=0;fillColor=none;top=0;left=0;bottom=0;right=0;fontStyle=1;overflow=hidden;rounded=0;labelBackgroundColor=none;labelBorderColor=none;comic=0;strokeColor=#C7C700;strokeWidth=5;fontFamily=Helvetica;fontSize=25;fontColor=#FFFFFF;startSize=30;movable=0;resizable=0;rotatable=0;deletable=0;editable=0;" parent="541" vertex="1">
                    <mxGeometry width="60" height="30" as="geometry">
                        <mxRectangle width="60" height="30" as="alternateBounds"/>
                    </mxGeometry>
                </mxCell>
                <mxCell id="543" value="PID" style="shape=partialRectangle;connectable=0;fillColor=none;top=0;left=0;bottom=0;right=0;align=left;spacingLeft=6;fontStyle=5;overflow=hidden;rounded=0;labelBackgroundColor=none;labelBorderColor=none;comic=0;strokeColor=#C7C700;strokeWidth=5;fontFamily=Helvetica;fontSize=25;fontColor=#FFFFFF;startSize=30;movable=0;resizable=0;rotatable=0;deletable=0;editable=0;" parent="541" vertex="1">
                    <mxGeometry x="60" width="143" height="30" as="geometry">
                        <mxRectangle width="143" height="30" as="alternateBounds"/>
                    </mxGeometry>
                </mxCell>
                <mxCell id="538" style="shape=tableRow;horizontal=0;startSize=0;swimlaneHead=0;swimlaneBody=0;fillColor=none;collapsible=0;dropTarget=0;points=[[0,0.5],[1,0.5]];portConstraint=eastwest;top=0;left=0;right=0;bottom=0;rounded=0;labelBackgroundColor=none;labelBorderColor=none;comic=0;strokeColor=#C7C700;strokeWidth=5;fontFamily=Helvetica;fontSize=25;fontColor=#FFFFFF;movable=0;resizable=0;rotatable=0;deletable=0;editable=0;connectable=0;" parent="489" vertex="1">
                    <mxGeometry y="118" width="203" height="30" as="geometry"/>
                </mxCell>
                <mxCell id="539" value="FK" style="shape=partialRectangle;connectable=0;fillColor=none;top=0;left=0;bottom=0;right=0;fontStyle=1;overflow=hidden;rounded=0;labelBackgroundColor=none;labelBorderColor=none;comic=0;strokeColor=#C7C700;strokeWidth=5;fontFamily=Helvetica;fontSize=25;fontColor=#FFFFFF;startSize=30;movable=0;resizable=0;rotatable=0;deletable=0;editable=0;" parent="538" vertex="1">
                    <mxGeometry width="60" height="30" as="geometry">
                        <mxRectangle width="60" height="30" as="alternateBounds"/>
                    </mxGeometry>
                </mxCell>
                <mxCell id="540" value="SID" style="shape=partialRectangle;connectable=0;fillColor=none;top=0;left=0;bottom=0;right=0;align=left;spacingLeft=6;fontStyle=5;overflow=hidden;rounded=0;labelBackgroundColor=none;labelBorderColor=none;comic=0;strokeColor=#C7C700;strokeWidth=5;fontFamily=Helvetica;fontSize=25;fontColor=#FFFFFF;startSize=30;movable=0;resizable=0;rotatable=0;deletable=0;editable=0;" parent="538" vertex="1">
                    <mxGeometry x="60" width="143" height="30" as="geometry">
                        <mxRectangle width="143" height="30" as="alternateBounds"/>
                    </mxGeometry>
                </mxCell>
                <mxCell id="493" value="" style="shape=tableRow;horizontal=0;startSize=0;swimlaneHead=0;swimlaneBody=0;fillColor=none;collapsible=0;dropTarget=0;points=[[0,0.5],[1,0.5]];portConstraint=eastwest;top=0;left=0;right=0;bottom=1;rounded=0;labelBackgroundColor=none;labelBorderColor=none;comic=0;strokeColor=#C7C700;strokeWidth=5;fontFamily=Helvetica;fontSize=25;fontColor=#FFFFFF;movable=0;resizable=0;rotatable=0;deletable=0;editable=0;connectable=0;" parent="489" vertex="1">
                    <mxGeometry y="148" width="203" height="30" as="geometry"/>
                </mxCell>
                <mxCell id="494" value="FK" style="shape=partialRectangle;connectable=0;fillColor=none;top=0;left=0;bottom=0;right=0;fontStyle=1;overflow=hidden;rounded=0;labelBackgroundColor=none;labelBorderColor=none;comic=0;strokeColor=#C7C700;strokeWidth=5;fontFamily=Helvetica;fontSize=25;fontColor=#FFFFFF;startSize=30;movable=0;resizable=0;rotatable=0;deletable=0;editable=0;" parent="493" vertex="1">
                    <mxGeometry width="60" height="30" as="geometry">
                        <mxRectangle width="60" height="30" as="alternateBounds"/>
                    </mxGeometry>
                </mxCell>
                <mxCell id="495" value="AID" style="shape=partialRectangle;connectable=0;fillColor=none;top=0;left=0;bottom=0;right=0;align=left;spacingLeft=6;fontStyle=5;overflow=hidden;rounded=0;labelBackgroundColor=none;labelBorderColor=none;comic=0;strokeColor=#C7C700;strokeWidth=5;fontFamily=Helvetica;fontSize=25;fontColor=#FFFFFF;startSize=30;verticalAlign=middle;movable=0;resizable=0;rotatable=0;deletable=0;editable=0;" parent="493" vertex="1">
                    <mxGeometry x="60" width="143" height="30" as="geometry">
                        <mxRectangle width="143" height="30" as="alternateBounds"/>
                    </mxGeometry>
                </mxCell>
                <mxCell id="585" style="shape=tableRow;horizontal=0;startSize=0;swimlaneHead=0;swimlaneBody=0;fillColor=none;collapsible=0;dropTarget=0;points=[[0,0.5],[1,0.5]];portConstraint=eastwest;top=0;left=0;right=0;bottom=1;rounded=0;labelBackgroundColor=none;labelBorderColor=none;comic=0;strokeColor=#C7C700;strokeWidth=5;fontFamily=Helvetica;fontSize=25;fontColor=#FFFFFF;movable=0;resizable=0;rotatable=0;deletable=0;editable=0;connectable=0;" parent="489" vertex="1">
                    <mxGeometry y="178" width="203" height="30" as="geometry"/>
                </mxCell>
                <mxCell id="586" style="shape=partialRectangle;connectable=0;fillColor=none;top=0;left=0;bottom=0;right=0;fontStyle=1;overflow=hidden;rounded=0;labelBackgroundColor=none;labelBorderColor=none;comic=0;strokeColor=#C7C700;strokeWidth=5;fontFamily=Helvetica;fontSize=25;fontColor=#FFFFFF;startSize=30;movable=0;resizable=0;rotatable=0;deletable=0;editable=0;" parent="585" vertex="1">
                    <mxGeometry width="60" height="30" as="geometry">
                        <mxRectangle width="60" height="30" as="alternateBounds"/>
                    </mxGeometry>
                </mxCell>
                <mxCell id="587" value="Comment" style="shape=partialRectangle;connectable=0;fillColor=none;top=0;left=0;bottom=0;right=0;align=left;spacingLeft=6;fontStyle=5;overflow=hidden;rounded=0;labelBackgroundColor=none;labelBorderColor=none;comic=0;strokeColor=#C7C700;strokeWidth=5;fontFamily=Helvetica;fontSize=25;fontColor=#FFFFFF;startSize=30;verticalAlign=middle;movable=0;resizable=0;rotatable=0;deletable=0;editable=0;" parent="585" vertex="1">
                    <mxGeometry x="60" width="143" height="30" as="geometry">
                        <mxRectangle width="143" height="30" as="alternateBounds"/>
                    </mxGeometry>
                </mxCell>
                <mxCell id="615" value="Attributes" style="shape=table;startSize=30;container=1;collapsible=1;childLayout=tableLayout;fixedRows=1;rowLines=0;fontStyle=1;align=center;resizeLast=1;rounded=0;labelBackgroundColor=none;labelBorderColor=none;comic=0;strokeColor=#C7C700;strokeWidth=5;fontFamily=Helvetica;fontSize=25;fontColor=default;fillColor=#008a00;movable=0;resizable=0;rotatable=0;deletable=0;editable=0;connectable=0;" parent="1" vertex="1">
                    <mxGeometry x="717" y="-450" width="203" height="178" as="geometry">
                        <mxRectangle x="187" y="763" width="50" height="44" as="alternateBounds"/>
                    </mxGeometry>
                </mxCell>
                <mxCell id="616" style="shape=tableRow;horizontal=0;startSize=0;swimlaneHead=0;swimlaneBody=0;fillColor=none;collapsible=0;dropTarget=0;points=[[0,0.5],[1,0.5]];portConstraint=eastwest;top=0;left=0;right=0;bottom=0;rounded=0;labelBackgroundColor=none;labelBorderColor=none;comic=0;strokeColor=#C7C700;strokeWidth=5;fontFamily=Helvetica;fontSize=25;fontColor=#FFFFFF;movable=0;resizable=0;rotatable=0;deletable=0;editable=0;connectable=0;" parent="615" vertex="1">
                    <mxGeometry y="30" width="203" height="30" as="geometry"/>
                </mxCell>
                <mxCell id="617" value="PK" style="shape=partialRectangle;connectable=0;fillColor=none;top=0;left=0;bottom=0;right=0;fontStyle=1;overflow=hidden;rounded=0;labelBackgroundColor=none;labelBorderColor=none;comic=0;strokeColor=#C7C700;strokeWidth=5;fontFamily=Helvetica;fontSize=25;fontColor=#FFFFFF;startSize=30;movable=0;resizable=0;rotatable=0;deletable=0;editable=0;" parent="616" vertex="1">
                    <mxGeometry width="60" height="30" as="geometry">
                        <mxRectangle width="60" height="30" as="alternateBounds"/>
                    </mxGeometry>
                </mxCell>
                <mxCell id="618" value="ID" style="shape=partialRectangle;connectable=0;fillColor=none;top=0;left=0;bottom=0;right=0;align=left;spacingLeft=6;fontStyle=5;overflow=hidden;rounded=0;labelBackgroundColor=none;labelBorderColor=none;comic=0;strokeColor=#C7C700;strokeWidth=5;fontFamily=Helvetica;fontSize=25;fontColor=#FFFFFF;startSize=30;movable=0;resizable=0;rotatable=0;deletable=0;editable=0;" parent="616" vertex="1">
                    <mxGeometry x="60" width="143" height="30" as="geometry">
                        <mxRectangle width="143" height="30" as="alternateBounds"/>
                    </mxGeometry>
                </mxCell>
                <mxCell id="619" value="" style="shape=tableRow;horizontal=0;startSize=0;swimlaneHead=0;swimlaneBody=0;fillColor=none;collapsible=0;dropTarget=0;points=[[0,0.5],[1,0.5]];portConstraint=eastwest;top=0;left=0;right=0;bottom=0;rounded=0;labelBackgroundColor=none;labelBorderColor=none;comic=0;strokeColor=#C7C700;strokeWidth=5;fontFamily=Helvetica;fontSize=25;fontColor=#FFFFFF;movable=0;resizable=0;rotatable=0;deletable=0;editable=0;connectable=0;" parent="615" vertex="1">
                    <mxGeometry y="60" width="203" height="28" as="geometry"/>
                </mxCell>
                <mxCell id="620" value="FK" style="shape=partialRectangle;connectable=0;fillColor=none;top=0;left=0;bottom=0;right=0;fontStyle=1;overflow=hidden;rounded=0;labelBackgroundColor=none;labelBorderColor=none;comic=0;strokeColor=#C7C700;strokeWidth=5;fontFamily=Helvetica;fontSize=25;fontColor=#FFFFFF;startSize=30;movable=0;resizable=0;rotatable=0;deletable=0;editable=0;" parent="619" vertex="1">
                    <mxGeometry width="60" height="28" as="geometry">
                        <mxRectangle width="60" height="28" as="alternateBounds"/>
                    </mxGeometry>
                </mxCell>
                <mxCell id="621" value="PrID" style="shape=partialRectangle;connectable=0;fillColor=none;top=0;left=0;bottom=0;right=0;align=left;spacingLeft=6;fontStyle=5;overflow=hidden;rounded=0;labelBackgroundColor=none;labelBorderColor=none;comic=0;strokeColor=#C7C700;strokeWidth=5;fontFamily=Helvetica;fontSize=25;fontColor=#FFFFFF;startSize=30;movable=0;resizable=0;rotatable=0;deletable=0;editable=0;" parent="619" vertex="1">
                    <mxGeometry x="60" width="143" height="28" as="geometry">
                        <mxRectangle width="143" height="28" as="alternateBounds"/>
                    </mxGeometry>
                </mxCell>
                <mxCell id="622" style="shape=tableRow;horizontal=0;startSize=0;swimlaneHead=0;swimlaneBody=0;fillColor=none;collapsible=0;dropTarget=0;points=[[0,0.5],[1,0.5]];portConstraint=eastwest;top=0;left=0;right=0;bottom=0;rounded=0;labelBackgroundColor=none;labelBorderColor=none;comic=0;strokeColor=#C7C700;strokeWidth=5;fontFamily=Helvetica;fontSize=25;fontColor=#FFFFFF;movable=0;resizable=0;rotatable=0;deletable=0;editable=0;connectable=0;" parent="615" vertex="1">
                    <mxGeometry y="88" width="203" height="30" as="geometry"/>
                </mxCell>
                <mxCell id="623" value="FK" style="shape=partialRectangle;connectable=0;fillColor=none;top=0;left=0;bottom=0;right=0;fontStyle=1;overflow=hidden;rounded=0;labelBackgroundColor=none;labelBorderColor=none;comic=0;strokeColor=#C7C700;strokeWidth=5;fontFamily=Helvetica;fontSize=25;fontColor=#FFFFFF;startSize=30;movable=0;resizable=0;rotatable=0;deletable=0;editable=0;" parent="622" vertex="1">
                    <mxGeometry width="60" height="30" as="geometry">
                        <mxRectangle width="60" height="30" as="alternateBounds"/>
                    </mxGeometry>
                </mxCell>
                <mxCell id="624" value="PID" style="shape=partialRectangle;connectable=0;fillColor=none;top=0;left=0;bottom=0;right=0;align=left;spacingLeft=6;fontStyle=5;overflow=hidden;rounded=0;labelBackgroundColor=none;labelBorderColor=none;comic=0;strokeColor=#C7C700;strokeWidth=5;fontFamily=Helvetica;fontSize=25;fontColor=#FFFFFF;startSize=30;movable=0;resizable=0;rotatable=0;deletable=0;editable=0;" parent="622" vertex="1">
                    <mxGeometry x="60" width="143" height="30" as="geometry">
                        <mxRectangle width="143" height="30" as="alternateBounds"/>
                    </mxGeometry>
                </mxCell>
                <mxCell id="625" style="shape=tableRow;horizontal=0;startSize=0;swimlaneHead=0;swimlaneBody=0;fillColor=none;collapsible=0;dropTarget=0;points=[[0,0.5],[1,0.5]];portConstraint=eastwest;top=0;left=0;right=0;bottom=0;rounded=0;labelBackgroundColor=none;labelBorderColor=none;comic=0;strokeColor=#C7C700;strokeWidth=5;fontFamily=Helvetica;fontSize=25;fontColor=#FFFFFF;movable=0;resizable=0;rotatable=0;deletable=0;editable=0;connectable=0;" parent="615" vertex="1">
                    <mxGeometry y="118" width="203" height="30" as="geometry"/>
                </mxCell>
                <mxCell id="626" value="FK" style="shape=partialRectangle;connectable=0;fillColor=none;top=0;left=0;bottom=0;right=0;fontStyle=1;overflow=hidden;rounded=0;labelBackgroundColor=none;labelBorderColor=none;comic=0;strokeColor=#C7C700;strokeWidth=5;fontFamily=Helvetica;fontSize=25;fontColor=#FFFFFF;startSize=30;movable=0;resizable=0;rotatable=0;deletable=0;editable=0;" parent="625" vertex="1">
                    <mxGeometry width="60" height="30" as="geometry">
                        <mxRectangle width="60" height="30" as="alternateBounds"/>
                    </mxGeometry>
                </mxCell>
                <mxCell id="627" value="SID" style="shape=partialRectangle;connectable=0;fillColor=none;top=0;left=0;bottom=0;right=0;align=left;spacingLeft=6;fontStyle=5;overflow=hidden;rounded=0;labelBackgroundColor=none;labelBorderColor=none;comic=0;strokeColor=#C7C700;strokeWidth=5;fontFamily=Helvetica;fontSize=25;fontColor=#FFFFFF;startSize=30;movable=0;resizable=0;rotatable=0;deletable=0;editable=0;" parent="625" vertex="1">
                    <mxGeometry x="60" width="143" height="30" as="geometry">
                        <mxRectangle width="143" height="30" as="alternateBounds"/>
                    </mxGeometry>
                </mxCell>
                <mxCell id="628" value="" style="shape=tableRow;horizontal=0;startSize=0;swimlaneHead=0;swimlaneBody=0;fillColor=none;collapsible=0;dropTarget=0;points=[[0,0.5],[1,0.5]];portConstraint=eastwest;top=0;left=0;right=0;bottom=1;rounded=0;labelBackgroundColor=none;labelBorderColor=none;comic=0;strokeColor=#C7C700;strokeWidth=5;fontFamily=Helvetica;fontSize=25;fontColor=#FFFFFF;movable=0;resizable=0;rotatable=0;deletable=0;editable=0;connectable=0;" parent="615" vertex="1">
                    <mxGeometry y="148" width="203" height="30" as="geometry"/>
                </mxCell>
                <mxCell id="629" value="FK" style="shape=partialRectangle;connectable=0;fillColor=none;top=0;left=0;bottom=0;right=0;fontStyle=1;overflow=hidden;rounded=0;labelBackgroundColor=none;labelBorderColor=none;comic=0;strokeColor=#C7C700;strokeWidth=5;fontFamily=Helvetica;fontSize=25;fontColor=#FFFFFF;startSize=30;movable=0;resizable=0;rotatable=0;deletable=0;editable=0;" parent="628" vertex="1">
                    <mxGeometry width="60" height="30" as="geometry">
                        <mxRectangle width="60" height="30" as="alternateBounds"/>
                    </mxGeometry>
                </mxCell>
                <mxCell id="630" value="AID" style="shape=partialRectangle;connectable=0;fillColor=none;top=0;left=0;bottom=0;right=0;align=left;spacingLeft=6;fontStyle=5;overflow=hidden;rounded=0;labelBackgroundColor=none;labelBorderColor=none;comic=0;strokeColor=#C7C700;strokeWidth=5;fontFamily=Helvetica;fontSize=25;fontColor=#FFFFFF;startSize=30;verticalAlign=middle;movable=0;resizable=0;rotatable=0;deletable=0;editable=0;" parent="628" vertex="1">
                    <mxGeometry x="60" width="143" height="30" as="geometry">
                        <mxRectangle width="143" height="30" as="alternateBounds"/>
                    </mxGeometry>
                </mxCell>
                <mxCell id="634" value="Attributes" style="shape=table;startSize=30;container=1;collapsible=1;childLayout=tableLayout;fixedRows=1;rowLines=0;fontStyle=1;align=center;resizeLast=1;rounded=0;labelBackgroundColor=none;labelBorderColor=none;comic=0;strokeColor=#C7C700;strokeWidth=5;fontFamily=Helvetica;fontSize=25;fontColor=default;fillColor=#008a00;movable=0;resizable=0;rotatable=0;deletable=0;editable=0;connectable=0;" parent="1" vertex="1">
                    <mxGeometry x="1096" y="-450" width="203" height="178" as="geometry">
                        <mxRectangle x="187" y="763" width="50" height="44" as="alternateBounds"/>
                    </mxGeometry>
                </mxCell>
                <mxCell id="635" style="shape=tableRow;horizontal=0;startSize=0;swimlaneHead=0;swimlaneBody=0;fillColor=none;collapsible=0;dropTarget=0;points=[[0,0.5],[1,0.5]];portConstraint=eastwest;top=0;left=0;right=0;bottom=0;rounded=0;labelBackgroundColor=none;labelBorderColor=none;comic=0;strokeColor=#C7C700;strokeWidth=5;fontFamily=Helvetica;fontSize=25;fontColor=#FFFFFF;movable=0;resizable=0;rotatable=0;deletable=0;editable=0;connectable=0;" parent="634" vertex="1">
                    <mxGeometry y="30" width="203" height="30" as="geometry"/>
                </mxCell>
                <mxCell id="636" value="PK" style="shape=partialRectangle;connectable=0;fillColor=none;top=0;left=0;bottom=0;right=0;fontStyle=1;overflow=hidden;rounded=0;labelBackgroundColor=none;labelBorderColor=none;comic=0;strokeColor=#C7C700;strokeWidth=5;fontFamily=Helvetica;fontSize=25;fontColor=#FFFFFF;startSize=30;movable=0;resizable=0;rotatable=0;deletable=0;editable=0;" parent="635" vertex="1">
                    <mxGeometry width="60" height="30" as="geometry">
                        <mxRectangle width="60" height="30" as="alternateBounds"/>
                    </mxGeometry>
                </mxCell>
                <mxCell id="637" value="ID" style="shape=partialRectangle;connectable=0;fillColor=none;top=0;left=0;bottom=0;right=0;align=left;spacingLeft=6;fontStyle=5;overflow=hidden;rounded=0;labelBackgroundColor=none;labelBorderColor=none;comic=0;strokeColor=#C7C700;strokeWidth=5;fontFamily=Helvetica;fontSize=25;fontColor=#FFFFFF;startSize=30;movable=0;resizable=0;rotatable=0;deletable=0;editable=0;" parent="635" vertex="1">
                    <mxGeometry x="60" width="143" height="30" as="geometry">
                        <mxRectangle width="143" height="30" as="alternateBounds"/>
                    </mxGeometry>
                </mxCell>
                <mxCell id="638" value="" style="shape=tableRow;horizontal=0;startSize=0;swimlaneHead=0;swimlaneBody=0;fillColor=none;collapsible=0;dropTarget=0;points=[[0,0.5],[1,0.5]];portConstraint=eastwest;top=0;left=0;right=0;bottom=0;rounded=0;labelBackgroundColor=none;labelBorderColor=none;comic=0;strokeColor=#C7C700;strokeWidth=5;fontFamily=Helvetica;fontSize=25;fontColor=#FFFFFF;movable=0;resizable=0;rotatable=0;deletable=0;editable=0;connectable=0;" parent="634" vertex="1">
                    <mxGeometry y="60" width="203" height="28" as="geometry"/>
                </mxCell>
                <mxCell id="639" value="FK" style="shape=partialRectangle;connectable=0;fillColor=none;top=0;left=0;bottom=0;right=0;fontStyle=1;overflow=hidden;rounded=0;labelBackgroundColor=none;labelBorderColor=none;comic=0;strokeColor=#C7C700;strokeWidth=5;fontFamily=Helvetica;fontSize=25;fontColor=#FFFFFF;startSize=30;movable=0;resizable=0;rotatable=0;deletable=0;editable=0;" parent="638" vertex="1">
                    <mxGeometry width="60" height="28" as="geometry">
                        <mxRectangle width="60" height="28" as="alternateBounds"/>
                    </mxGeometry>
                </mxCell>
                <mxCell id="640" value="PrID" style="shape=partialRectangle;connectable=0;fillColor=none;top=0;left=0;bottom=0;right=0;align=left;spacingLeft=6;fontStyle=5;overflow=hidden;rounded=0;labelBackgroundColor=none;labelBorderColor=none;comic=0;strokeColor=#C7C700;strokeWidth=5;fontFamily=Helvetica;fontSize=25;fontColor=#FFFFFF;startSize=30;movable=0;resizable=0;rotatable=0;deletable=0;editable=0;" parent="638" vertex="1">
                    <mxGeometry x="60" width="143" height="28" as="geometry">
                        <mxRectangle width="143" height="28" as="alternateBounds"/>
                    </mxGeometry>
                </mxCell>
                <mxCell id="641" style="shape=tableRow;horizontal=0;startSize=0;swimlaneHead=0;swimlaneBody=0;fillColor=none;collapsible=0;dropTarget=0;points=[[0,0.5],[1,0.5]];portConstraint=eastwest;top=0;left=0;right=0;bottom=0;rounded=0;labelBackgroundColor=none;labelBorderColor=none;comic=0;strokeColor=#C7C700;strokeWidth=5;fontFamily=Helvetica;fontSize=25;fontColor=#FFFFFF;movable=0;resizable=0;rotatable=0;deletable=0;editable=0;connectable=0;" parent="634" vertex="1">
                    <mxGeometry y="88" width="203" height="30" as="geometry"/>
                </mxCell>
                <mxCell id="642" value="FK" style="shape=partialRectangle;connectable=0;fillColor=none;top=0;left=0;bottom=0;right=0;fontStyle=1;overflow=hidden;rounded=0;labelBackgroundColor=none;labelBorderColor=none;comic=0;strokeColor=#C7C700;strokeWidth=5;fontFamily=Helvetica;fontSize=25;fontColor=#FFFFFF;startSize=30;movable=0;resizable=0;rotatable=0;deletable=0;editable=0;" parent="641" vertex="1">
                    <mxGeometry width="60" height="30" as="geometry">
                        <mxRectangle width="60" height="30" as="alternateBounds"/>
                    </mxGeometry>
                </mxCell>
                <mxCell id="643" value="PID" style="shape=partialRectangle;connectable=0;fillColor=none;top=0;left=0;bottom=0;right=0;align=left;spacingLeft=6;fontStyle=5;overflow=hidden;rounded=0;labelBackgroundColor=none;labelBorderColor=none;comic=0;strokeColor=#C7C700;strokeWidth=5;fontFamily=Helvetica;fontSize=25;fontColor=#FFFFFF;startSize=30;movable=0;resizable=0;rotatable=0;deletable=0;editable=0;" parent="641" vertex="1">
                    <mxGeometry x="60" width="143" height="30" as="geometry">
                        <mxRectangle width="143" height="30" as="alternateBounds"/>
                    </mxGeometry>
                </mxCell>
                <mxCell id="644" style="shape=tableRow;horizontal=0;startSize=0;swimlaneHead=0;swimlaneBody=0;fillColor=none;collapsible=0;dropTarget=0;points=[[0,0.5],[1,0.5]];portConstraint=eastwest;top=0;left=0;right=0;bottom=0;rounded=0;labelBackgroundColor=none;labelBorderColor=none;comic=0;strokeColor=#C7C700;strokeWidth=5;fontFamily=Helvetica;fontSize=25;fontColor=#FFFFFF;movable=0;resizable=0;rotatable=0;deletable=0;editable=0;connectable=0;" parent="634" vertex="1">
                    <mxGeometry y="118" width="203" height="30" as="geometry"/>
                </mxCell>
                <mxCell id="645" value="FK" style="shape=partialRectangle;connectable=0;fillColor=none;top=0;left=0;bottom=0;right=0;fontStyle=1;overflow=hidden;rounded=0;labelBackgroundColor=none;labelBorderColor=none;comic=0;strokeColor=#C7C700;strokeWidth=5;fontFamily=Helvetica;fontSize=25;fontColor=#FFFFFF;startSize=30;movable=0;resizable=0;rotatable=0;deletable=0;editable=0;" parent="644" vertex="1">
                    <mxGeometry width="60" height="30" as="geometry">
                        <mxRectangle width="60" height="30" as="alternateBounds"/>
                    </mxGeometry>
                </mxCell>
                <mxCell id="646" value="SID" style="shape=partialRectangle;connectable=0;fillColor=none;top=0;left=0;bottom=0;right=0;align=left;spacingLeft=6;fontStyle=5;overflow=hidden;rounded=0;labelBackgroundColor=none;labelBorderColor=none;comic=0;strokeColor=#C7C700;strokeWidth=5;fontFamily=Helvetica;fontSize=25;fontColor=#FFFFFF;startSize=30;movable=0;resizable=0;rotatable=0;deletable=0;editable=0;" parent="644" vertex="1">
                    <mxGeometry x="60" width="143" height="30" as="geometry">
                        <mxRectangle width="143" height="30" as="alternateBounds"/>
                    </mxGeometry>
                </mxCell>
                <mxCell id="647" value="" style="shape=tableRow;horizontal=0;startSize=0;swimlaneHead=0;swimlaneBody=0;fillColor=none;collapsible=0;dropTarget=0;points=[[0,0.5],[1,0.5]];portConstraint=eastwest;top=0;left=0;right=0;bottom=1;rounded=0;labelBackgroundColor=none;labelBorderColor=none;comic=0;strokeColor=#C7C700;strokeWidth=5;fontFamily=Helvetica;fontSize=25;fontColor=#FFFFFF;movable=0;resizable=0;rotatable=0;deletable=0;editable=0;connectable=0;" parent="634" vertex="1">
                    <mxGeometry y="148" width="203" height="30" as="geometry"/>
                </mxCell>
                <mxCell id="648" value="FK" style="shape=partialRectangle;connectable=0;fillColor=none;top=0;left=0;bottom=0;right=0;fontStyle=1;overflow=hidden;rounded=0;labelBackgroundColor=none;labelBorderColor=none;comic=0;strokeColor=#C7C700;strokeWidth=5;fontFamily=Helvetica;fontSize=25;fontColor=#FFFFFF;startSize=30;movable=0;resizable=0;rotatable=0;deletable=0;editable=0;" parent="647" vertex="1">
                    <mxGeometry width="60" height="30" as="geometry">
                        <mxRectangle width="60" height="30" as="alternateBounds"/>
                    </mxGeometry>
                </mxCell>
                <mxCell id="649" value="AID" style="shape=partialRectangle;connectable=0;fillColor=none;top=0;left=0;bottom=0;right=0;align=left;spacingLeft=6;fontStyle=5;overflow=hidden;rounded=0;labelBackgroundColor=none;labelBorderColor=none;comic=0;strokeColor=#C7C700;strokeWidth=5;fontFamily=Helvetica;fontSize=25;fontColor=#FFFFFF;startSize=30;verticalAlign=middle;movable=0;resizable=0;rotatable=0;deletable=0;editable=0;" parent="647" vertex="1">
                    <mxGeometry x="60" width="143" height="30" as="geometry">
                        <mxRectangle width="143" height="30" as="alternateBounds"/>
                    </mxGeometry>
                </mxCell>
                <mxCell id="653" value="Attributes" style="shape=table;startSize=30;container=1;collapsible=1;childLayout=tableLayout;fixedRows=1;rowLines=0;fontStyle=1;align=center;resizeLast=1;rounded=0;labelBackgroundColor=none;labelBorderColor=none;comic=0;strokeColor=#C7C700;strokeWidth=5;fontFamily=Helvetica;fontSize=25;fontColor=default;fillColor=#008a00;movable=0;resizable=0;rotatable=0;deletable=0;editable=0;connectable=0;" parent="1" vertex="1">
                    <mxGeometry x="872" y="687" width="176" height="90" as="geometry">
                        <mxRectangle x="187" y="763" width="50" height="44" as="alternateBounds"/>
                    </mxGeometry>
                </mxCell>
                <mxCell id="654" value="" style="shape=tableRow;horizontal=0;startSize=0;swimlaneHead=0;swimlaneBody=0;fillColor=none;collapsible=0;dropTarget=0;points=[[0,0.5],[1,0.5]];portConstraint=eastwest;top=0;left=0;right=0;bottom=0;rounded=0;labelBackgroundColor=none;labelBorderColor=none;comic=0;strokeColor=#C7C700;strokeWidth=5;fontFamily=Helvetica;fontSize=25;fontColor=#FFFFFF;movable=0;resizable=0;rotatable=0;deletable=0;editable=0;connectable=0;" parent="653" vertex="1">
                    <mxGeometry y="30" width="176" height="30" as="geometry"/>
                </mxCell>
                <mxCell id="655" value="PK,FK1" style="shape=partialRectangle;connectable=0;fillColor=none;top=0;left=0;bottom=0;right=0;fontStyle=1;overflow=hidden;rounded=0;labelBackgroundColor=none;labelBorderColor=none;comic=0;strokeColor=#C7C700;strokeWidth=5;fontFamily=Helvetica;fontSize=25;fontColor=#FFFFFF;startSize=30;movable=0;resizable=0;rotatable=0;deletable=0;editable=0;" parent="654" vertex="1">
                    <mxGeometry width="100" height="30" as="geometry">
                        <mxRectangle width="100" height="30" as="alternateBounds"/>
                    </mxGeometry>
                </mxCell>
                <mxCell id="656" value="PrID" style="shape=partialRectangle;connectable=0;fillColor=none;top=0;left=0;bottom=0;right=0;align=left;spacingLeft=6;fontStyle=5;overflow=hidden;rounded=0;labelBackgroundColor=none;labelBorderColor=none;comic=0;strokeColor=#C7C700;strokeWidth=5;fontFamily=Helvetica;fontSize=25;fontColor=#FFFFFF;startSize=30;movable=0;resizable=0;rotatable=0;deletable=0;editable=0;" parent="654" vertex="1">
                    <mxGeometry x="100" width="76" height="30" as="geometry">
                        <mxRectangle width="76" height="30" as="alternateBounds"/>
                    </mxGeometry>
                </mxCell>
                <mxCell id="657" value="" style="shape=tableRow;horizontal=0;startSize=0;swimlaneHead=0;swimlaneBody=0;fillColor=none;collapsible=0;dropTarget=0;points=[[0,0.5],[1,0.5]];portConstraint=eastwest;top=0;left=0;right=0;bottom=1;rounded=0;labelBackgroundColor=none;labelBorderColor=none;comic=0;strokeColor=#C7C700;strokeWidth=5;fontFamily=Helvetica;fontSize=25;fontColor=#FFFFFF;movable=0;resizable=0;rotatable=0;deletable=0;editable=0;connectable=0;" parent="653" vertex="1">
                    <mxGeometry y="60" width="176" height="30" as="geometry"/>
                </mxCell>
                <mxCell id="658" value="PK,FK2" style="shape=partialRectangle;connectable=0;fillColor=none;top=0;left=0;bottom=0;right=0;fontStyle=1;overflow=hidden;rounded=0;labelBackgroundColor=none;labelBorderColor=none;comic=0;strokeColor=#C7C700;strokeWidth=5;fontFamily=Helvetica;fontSize=25;fontColor=#FFFFFF;startSize=30;movable=0;resizable=0;rotatable=0;deletable=0;editable=0;" parent="657" vertex="1">
                    <mxGeometry width="100" height="30" as="geometry">
                        <mxRectangle width="100" height="30" as="alternateBounds"/>
                    </mxGeometry>
                </mxCell>
                <mxCell id="659" value="ArID" style="shape=partialRectangle;connectable=0;fillColor=none;top=0;left=0;bottom=0;right=0;align=left;spacingLeft=6;fontStyle=5;overflow=hidden;rounded=0;labelBackgroundColor=none;labelBorderColor=none;comic=0;strokeColor=#C7C700;strokeWidth=5;fontFamily=Helvetica;fontSize=25;fontColor=#FFFFFF;startSize=30;movable=0;resizable=0;rotatable=0;deletable=0;editable=0;" parent="657" vertex="1">
                    <mxGeometry x="100" width="76" height="30" as="geometry">
                        <mxRectangle width="76" height="30" as="alternateBounds"/>
                    </mxGeometry>
                </mxCell>
            </root>
        </mxGraphModel>
    </diagram>
</mxfile>